<?xml version="1.0" encoding="UTF-8" standalone="no"?>
<!-- Created with Inkscape (http://www.inkscape.org/) -->

<svg
   xmlns:dc="http://purl.org/dc/elements/1.1/"
   xmlns:cc="http://creativecommons.org/ns#"
   xmlns:rdf="http://www.w3.org/1999/02/22-rdf-syntax-ns#"
   xmlns:svg="http://www.w3.org/2000/svg"
   xmlns="http://www.w3.org/2000/svg"
   xmlns:sodipodi="http://sodipodi.sourceforge.net/DTD/sodipodi-0.dtd"
   xmlns:inkscape="http://www.inkscape.org/namespaces/inkscape"
   width="328.34503mm"
   height="328.64551mm"
   viewBox="0 0 328.34503 328.64551"
   version="1.1"
   id="svg8"
   inkscape:version="0.92.3 (2405546, 2018-03-11)"
   sodipodi:docname="logo-ico.svg">
  <defs
     id="defs2">
    <clipPath
       clipPathUnits="userSpaceOnUse"
       id="a">
      <path
         id="path815"
         d="M 0,74.824 H 558.74 V 0 H 0 Z"
         inkscape:connector-curvature="0" />
    </clipPath>
  </defs>
  <sodipodi:namedview
     id="base"
     pagecolor="#ffffff"
     bordercolor="#666666"
     borderopacity="1.0"
     inkscape:pageopacity="0.0"
     inkscape:pageshadow="2"
     inkscape:zoom="0.35"
     inkscape:cx="1208.1851"
     inkscape:cy="538.20522"
     inkscape:document-units="mm"
     inkscape:current-layer="g855"
     showgrid="false"
     inkscape:window-width="1920"
     inkscape:window-height="1027"
     inkscape:window-x="-8"
     inkscape:window-y="-8"
     inkscape:window-maximized="1" />
  <metadata
     id="metadata5">
    <rdf:RDF>
      <cc:Work
         rdf:about="">
        <dc:format>image/svg+xml</dc:format>
        <dc:type
           rdf:resource="http://purl.org/dc/dcmitype/StillImage" />
        <dc:title></dc:title>
      </cc:Work>
    </rdf:RDF>
  </metadata>
  <g
     inkscape:label="Layer 1"
     inkscape:groupmode="layer"
     id="layer1"
     transform="translate(349.14779,37.41203)">
    <g
       id="g855"
       fill-opacity="0.2"
       transform="matrix(0.26458333,0,0,0.26458333,-349.1479,-37.412026)">
      <path
         id="path820"
         d="m 2266.722,933.81 26.398,-26.398 -26.398,-26.399 -26.37,26.4 26.399,26.398"
         stroke-miterlimit="10"
         inkscape:connector-curvature="0"
         style="fill:none;stroke-width:5.33332014;stroke-linecap:round;stroke-miterlimit:10" />
      <g
         id="g834"
         transform="matrix(1.33333,0,0,-1.33333,1894.243,950.607)"
         clip-path="url(#a)">
        <path
           id="path822"
           d="m 279.359,32.397 19.799,19.799 -19.799,19.799 -19.777,-19.8 z"
           stroke-miterlimit="10"
           inkscape:connector-curvature="0"
           style="fill:none;stroke-width:4;stroke-linecap:round;stroke-miterlimit:10" />
        <path
           id="path826"
           d="m 340.623,35.91 -12.451,-12.45 -24.411,24.41 4.76,4.76 10.334,-10.334 -10.334,-10.334 -29.173,29.173 -29.13,-29.173 -10.333,10.334 10.334,10.333 4.76,-4.76 -24.41,-24.41 -12.452,12.451"
           stroke-miterlimit="10"
           inkscape:connector-curvature="0"
           style="fill:none;stroke-width:4;stroke-linecap:round;stroke-miterlimit:10" />
        <path
           id="path830"
           d="M 279.37,25.766 290.84,14.296 279.37,2.83 267.901,14.298 Z"
           stroke-miterlimit="10"
           inkscape:connector-curvature="0"
           style="fill:none;stroke-width:4;stroke-linecap:round;stroke-miterlimit:10" />
        <path
           id="path832"
           d="m 349.735,24.996 h -9.49 L 328.26,36.983 306.896,15.62 279.37,43.146 251.844,15.62 230.48,36.983 218.493,24.996 h -9.49"
           stroke-miterlimit="10"
           inkscape:connector-curvature="0"
           style="fill:none;stroke-width:4;stroke-linecap:round;stroke-miterlimit:10" />
      </g>
      <path
         id="path836"
         d="m 606.66605,1007.2899 c -70.47985,-3.0137 -141.03749,-26.16036 -200.41956,-65.74569 -49.21794,-32.80967 -89.09148,-75.11812 -119.1874,-126.4635 -7.01655,-11.97039 -18.89671,-36.31079 -24.2682,-49.72147 -45.33217,-113.16735 -36.25105,-237.83517 24.79103,-340.33981 27.66475,-46.45626 67.38517,-88.42362 113.63416,-120.0644 2.71064,-1.85419 5.20095,-3.81543 5.53332,-4.35756 0.44067,-0.71703 0.002,-2.38388 -1.6102,-6.11156 -3.03866,-7.02837 -5.7132,-11.30565 -10.01662,-16.01987 -11.54964,-12.65132 -29.92663,-19.43012 -63.00519,-23.23933 -6.4707,-0.74504 -12.67498,-1.48572 -13.78787,-1.64568 l -2.02287,-0.29067 v -11.68098 l 3.26771,-0.33362 c 1.79755,-0.18361 48.08202,-1.80003 102.85507,-3.59261 124.02859,-4.05943 142.3508,-4.14221 172.72183,-0.78362 95.78437,10.5936 150.69248,52.52735 158.77462,121.25632 1.08301,9.20996 0.41204,31.14533 -1.23986,40.52583 -7.23004,41.06111 -30.52789,72.66765 -72.06888,97.77238 -6.68668,4.04076 -27.3442,14.64619 -32.40449,16.63607 -1.4546,0.57263 -2.64529,1.30086 -2.64529,1.62017 0,0.31867 1.89092,1.84112 4.20135,3.38348 12.90216,8.60995 31.95508,26.53567 44.42405,41.79432 24.13002,29.52952 43.28751,63.34379 61.53565,108.61247 6.09599,15.12233 8.96038,22.91505 21.16232,57.57394 5.06215,14.37793 10.9322,30.76316 13.0447,36.41163 4.14408,11.07909 14.08414,31.1447 20.60711,41.5964 10.81146,17.32259 24.15305,31.93019 38.25213,41.88084 12.4092,8.75746 30.88266,17.04375 45.63093,20.46644 3.2565,0.75625 3.34551,0.73882 5.20779,-1.01516 8.00683,-7.5425 28.21058,-33.25534 38.81603,-49.40032 36.18138,-55.07865 56.68573,-115.81512 62.61868,-185.48145 1.449,-17.01451 0.8664,-54.82533 -1.09795,-71.26721 -0.62241,-5.20967 0.75565,-2.43055 1.85105,3.73453 5.4294,30.5397 6.4166,71.94937 2.5302,106.12277 -11.81049,103.85095 -65.31688,197.22158 -149.05305,260.1048 -71.69357,53.8388 -160.80994,81.81842 -248.6323,78.06212 z m 54.15062,-26.0701 c 26.4697,-2.17226 53.83693,-7.49768 79.47321,-15.46525 11.94115,-3.71088 16.8645,-5.52028 17.11595,-6.28834 0.12262,-0.37598 -2.8955,-1.08925 -7.32589,-1.73157 -32.35718,-4.69058 -67.05528,-20.76649 -94.55198,-43.80663 -25.80868,-21.62477 -48.06646,-49.57769 -70.2844,-88.26552 -7.30722,-12.72415 -24.16114,-46.41269 -32.07335,-64.10936 -3.36667,-7.5313 -11.51168,-26.15787 -18.1,-41.391 C 491.7441,619.97912 485.8616,607.1865 473.10571,585.40799 c -23.67379,-40.42127 -46.80731,-63.94131 -78.0628,-79.36802 -17.99544,-8.88195 -35.36472,-13.68704 -60.99727,-16.8757 -8.0093,-0.99588 -29.59985,-0.99089 -36.33693,0.009 -12.03762,1.78635 -25.29145,6.31197 -27.54587,9.40603 -2.01664,2.76728 -8.45994,28.43717 -11.40523,45.43673 -1.74589,10.07762 -3.75134,25.4508 -4.41733,33.86033 -0.41515,5.2414 -0.37532,5.52025 0.73197,5.16921 0.6442,-0.20416 3.50361,-1.22679 6.35429,-2.27309 14.58022,-5.35219 44.29273,-7.1846 61.12112,-3.77 23.92586,4.85364 47.37122,18.18839 67.85635,38.59197 30.20484,30.08596 57.77311,75.74739 85.67812,141.91199 7.48336,17.74273 18.18091,44.66991 26.33462,66.28783 20.2262,53.62158 30.0729,74.78638 45.75168,98.34255 21.17352,31.81193 45.08196,50.08688 77.37813,59.14683 4.95199,1.38925 6.15887,1.48629 14.73023,1.18447 5.13497,-0.18112 14.37792,-0.74318 20.53988,-1.24863 z M 529.52941,968.31705 c -28.46953,-21.32169 -51.50533,-48.76363 -74.55608,-88.81576 -7.09871,-12.33514 -21.71191,-41.5715 -28.69734,-57.4146 -9.77698,-22.17624 -13.85322,-32.32793 -30.30319,-75.47229 -23.90345,-62.69273 -41.14265,-93.75652 -65.64425,-118.2855 -15.10118,-15.11861 -30.96856,-24.91366 -47.63263,-29.40442 -5.24452,-1.41289 -7.15785,-1.599 -16.92737,-1.64195 -8.30496,-0.0373 -11.21415,0.15188 -11.826,0.76621 -0.63051,0.63362 -0.783,4.27603 -0.68466,16.35348 0.78301,95.79682 38.32869,187.87903 104.12854,255.37934 39.6893,40.71443 86.16236,70.61182 140.35594,90.29272 11.08657,4.02643 29.47164,9.58532 31.74347,9.59837 l 1.86727,0.0107 -1.8237,-1.3656 z m 281.15068,-32.79972 c 23.01838,-12.7951 47.42351,-30.3586 66.27228,-47.69614 3.16688,-2.91169 5.7574,-5.49224 5.7574,-5.73312 0,-0.24088 -4.72542,-0.32988 -10.50149,-0.19793 -39.26792,0.90064 -76.52542,-15.19516 -107.27053,-46.34236 -18.55313,-18.79586 -31.54803,-37.7268 -46.73448,-68.08228 -9.17635,-18.34212 -13.4057,-28.03197 -27.78798,-63.66993 -23.64702,-58.59346 -28.15398,-68.12833 -54.05166,-114.34247 -23.93147,-42.70431 -38.62123,-64.63905 -51.51717,-76.92626 -2.54819,-2.42806 -4.6333,-4.68807 -4.6333,-5.02293 0,-0.33424 2.171,-1.53988 4.82376,-2.67953 20.28906,-8.71514 37.68759,-20.4901 51.19413,-34.64831 7.92155,-8.30309 13.43744,-16.18668 18.66764,-26.6807 5.04473,-10.12243 7.35951,-16.76802 9.75459,-28.00894 1.63759,-7.68628 1.72535,-8.93175 1.74153,-24.89684 0.0162,-14.94994 -0.14315,-17.69855 -1.43903,-24.89684 -7.04705,-39.13597 -28.68988,-68.75449 -64.82515,-88.71554 -26.40995,-14.5883 -63.32885,-23.6327 -97.40889,-23.86238 l -11.82599,-0.0803 -0.15748,86.36092 c -0.13756,75.26315 -0.27511,86.36091 -1.06745,86.36091 -0.50043,0 -3.47685,-1.55605 -6.61385,-3.45879 -18.11121,-10.982 -38.10648,-18.66018 -58.30964,-22.39222 -4.60094,-0.84961 -8.61431,-1.6992 -8.92054,-1.8878 -0.30498,-0.1886 -0.55769,-6.83916 -0.56142,-14.77814 -0.0124,-28.22617 -1.77826,-54.4581 -4.66941,-69.36634 -1.51497,-7.81449 -1.84548,-8.86638 -2.78471,-8.86638 -0.73881,0 -17.57094,13.5028 -25.21677,20.22806 -9.31701,8.19604 -30.87955,30.04239 -38.61188,39.1204 -24.79538,29.11064 -44.22986,59.83956 -59.10697,93.45652 -3.8061,8.59937 -9.02635,21.75423 -9.02635,22.74575 0,1.05314 0.9411,0.66164 7.47279,-3.1121 15.11798,-8.73444 39.68245,-16.79915 60.05989,-19.71955 11.13885,-1.59589 36.03009,-1.60584 46.37037,-0.0187 32.46423,4.98435 58.72106,16.6871 85.58289,38.1432 8.8029,7.03149 27.5496,25.7284 35.81161,35.71763 35.01865,42.33833 66.9003,99.2108 100.48863,179.25725 2.65774,6.33314 9.83425,24.04413 15.94891,39.35755 6.11467,15.3128 13.66215,33.79871 16.77238,41.07978 27.97534,65.48492 57.59946,104.10427 99.24192,129.37461 16.45681,9.9867 30.81606,15.40368 48.23763,18.19773 0.85582,0.13687 3.93681,0.28626 6.84663,0.32982 l 5.29058,0.081 z"
         inkscape:connector-curvature="0"
         style="fill:#7f618e;stroke-width:0.62242103" />
    </g>
  </g>
</svg>
