<svg xmlns="http://www.w3.org/2000/svg" xmlns:xlink="http://www.w3.org/1999/xlink"><symbol id="sprite-arrow" viewBox="0 0 8.031 5.787"><title>arrow</title><path d="M4.807 5.767a.525.525 0 01-.243-.25.48.48 0 01.013-.291c.032-.073.087-.127 1.228-1.206l.757-.717-3.139-.008-3.138-.008-.068-.037a.52.52 0 01-.123-.101c-.17-.2-.1-.5.146-.622l.077-.039 3.115-.008 3.114-.008-.953-.904A31.766 31.766 0 014.6.603a.441.441 0 01-.03-.346.513.513 0 01.233-.232A.55.55 0 014.975 0c.093 0 .129.008.2.046.121.064 2.774 2.58 2.818 2.672.048.1.051.229.007.33-.033.078-.176.218-1.388 1.368-.9.854-1.378 1.297-1.433 1.327-.07.038-.1.045-.199.043a.794.794 0 01-.173-.02z"/></symbol><symbol id="sprite-cart" viewBox="0 0 86.1 74.889"><title>cart</title><path d="M31.289 74.787c-1.45-.216-3.384-1.182-4.526-2.262-2.472-2.338-3.038-6.068-1.355-8.94.234-.398.538-.818.677-.933.47-.39.257-.514-.88-.514-1.914 0-3.032-.765-3.032-2.073 0-.401.765-2.599 2.066-5.94 2.098-5.383 2.529-6.384 2.754-6.394.069-.003.27-.115.447-.25.305-.23-.044-1.214-6.843-19.306L13.432 9.112l-5.91-2.133c-3.25-1.174-6.155-2.283-6.455-2.466-1.53-.934-1.389-3.238.26-4.203 1.057-.62 1.62-.486 8.614 2.048 3.627 1.313 6.75 2.466 6.94 2.563.945.477 1.264 1.045 2.607 4.653l1.352 3.634h31.768c31.182.002 31.778.008 32.323.34.305.186.682.534.84.773.704 1.076.8.747-5.203 18.017-3.11 8.947-5.815 16.7-6.013 17.229-.277.74-.523 1.069-1.07 1.43l-.709.47H30.175l-1.181 3.02-1.24 3.167c-.031.08 9.942.146 22.163.146 24.647 0 23.224-.067 23.959 1.122.437.708.445 1.41.023 2.102-.499.817-1.307 1.114-3.038 1.114H69.37l.57.747c2.323 3.042 1.866 7.268-1.065 9.854-3.658 3.226-9.646 2.676-12.528-1.152-1.011-1.343-1.466-2.722-1.456-4.418.01-1.589.382-2.76 1.293-4.06l.68-.971H39.001l.677.997c.942 1.39 1.274 2.46 1.274 4.121.002 4.712-4.586 8.288-9.663 7.531zm2.565-4.334c.9-.25 1.944-1.233 2.3-2.166.815-2.134-.912-4.414-3.343-4.414-2.159 0-3.697 1.375-3.697 3.305 0 1.093.386 1.951 1.152 2.562 1.056.843 2.26 1.082 3.588.713zm30.826-.174c.986-.447 1.342-.773 1.775-1.621.516-1.011.377-2.478-.318-3.351-.821-1.033-1.827-1.468-3.225-1.397-1.439.074-2.445.691-3.055 1.874-1.466 2.84 1.787 5.872 4.823 4.495zM39.698 43.572v-2.776h-8.494l.185.477c.102.263.523 1.375.935 2.473.413 1.097.804 2.132.87 2.299.11.273.435.303 3.312.303h3.192zm18.218 0v-2.776H45.25v5.552h12.666zm12.057 2.473c.067-.167.46-1.28.873-2.473.413-1.193.804-2.305.87-2.472.11-.284-.152-.304-4.065-.304h-4.183v5.552h3.192c2.877 0 3.203-.03 3.313-.303zM39.698 32.468V29.17h-6.439c-6.06 0-6.431.018-6.32.304.066.167.631 1.65 1.257 3.296l1.138 2.993h10.364zm18.218 0V29.17H45.25v6.593h12.666zm16.766.086c.598-1.717 1.091-3.181 1.096-3.253.005-.071-2.762-.13-6.15-.13h-6.16v3.181c0 1.75.054 3.234.119 3.3.065.064 2.343.097 5.063.072l4.945-.046zM39.698 21.103V18.24h-16.96L23.8 21.1l1.063 2.861 7.417.003 7.418.002zm18.218 0V18.24H45.25v5.726h12.666zm20.652.217c.505-1.456.953-2.744.996-2.863.061-.172-1.614-.217-8.009-.217h-8.087v5.726H77.65z"/></symbol><symbol id="sprite-comment" viewBox="0 0 43 44"><title>comment</title><style>.st0{fill:#6a2d8b}</style><path d="M25.38 28.17c2.6-1.12 4.65-2.65 6.15-4.58 1.5-1.93 2.26-4.03 2.26-6.31 0-2.28-.75-4.38-2.26-6.31-1.5-1.93-3.56-3.46-6.15-4.58-2.6-1.12-5.43-1.68-8.48-1.68-3.06 0-5.88.56-8.48 1.68-2.6 1.12-4.65 2.65-6.15 4.58C.75 12.91 0 15.01 0 17.28c0 1.95.57 3.78 1.7 5.5 1.14 1.72 2.7 3.17 4.68 4.35-.16.39-.32.75-.49 1.08-.17.33-.37.64-.6.95-.23.3-.41.54-.54.71-.13.17-.34.41-.62.72-.29.31-.47.52-.55.61 0-.02-.03.02-.1.11-.06.09-.1.13-.11.12-.01-.01-.04.03-.1.12-.06.09-.08.14-.08.14l-.06.12c-.02.05-.04.1-.05.15-.01.05-.01.1-.01.16s.01.11.02.16c.03.21.12.38.28.52.15.13.32.2.49.2h.07c.8-.11 1.49-.25 2.06-.39 2.46-.65 4.69-1.7 6.67-3.14 1.44.26 2.85.39 4.22.39 3.07 0 5.9-.56 8.5-1.69z" class="st0"/><path d="M41.3 29.08c1.14-1.71 1.7-3.55 1.7-5.51 0-2.01-.6-3.9-1.8-5.65-1.2-1.75-2.83-3.21-4.9-4.37.37 1.23.55 2.47.55 3.73 0 2.19-.54 4.27-1.61 6.24-1.07 1.96-2.61 3.7-4.61 5.2-1.86 1.38-3.97 2.43-6.34 3.17-2.35.74-4.82 1.11-7.4 1.11-.48 0-1.18-.03-2.11-.1 3.22 2.16 6.99 3.24 11.33 3.24 1.38 0 2.78-.13 4.22-.39 1.98 1.44 4.21 2.49 6.67 3.14.58.15 1.26.28 2.06.39.19.02.37-.04.53-.17.16-.13.26-.31.31-.54-.01-.1 0-.15.02-.16.02-.01.02-.06-.01-.16s-.05-.15-.05-.15l-.06-.12c-.02-.03-.04-.08-.08-.13a.443.443 0 00-.1-.12c-.02-.02-.06-.07-.11-.12-.05-.06-.08-.09-.1-.11-.08-.1-.26-.3-.55-.61-.29-.31-.5-.55-.62-.72-.13-.17-.31-.41-.54-.71-.23-.3-.43-.62-.6-.95-.17-.33-.33-.69-.49-1.08 1.99-1.19 3.55-2.64 4.69-4.35z" class="st0"/></symbol><symbol id="sprite-credit-cards" viewBox="0 0 17.006 17.006"><title>credit-cards</title><path d="M11.011 6.689l.246-.246a.567.567 0 000-.801L7.161 1.546a.568.568 0 00-.801 0L.166 7.741a.567.567 0 000 .801l4.096 4.096A.566.566 0 005 12.69V7.659a.97.97 0 01.969-.969h5.042v-.001zm-3.119-2.86L8.984 4.92 7.347 6.557 6.255 5.466l1.637-1.637z"/><path d="M15.769 7.36h-8.76c-.682 0-1.237.555-1.237 1.237v5.792c0 .682.555 1.237 1.237 1.237h8.76c.684 0 1.237-.556 1.237-1.237V8.597c0-.682-.554-1.237-1.237-1.237zm.701 7.03c0 .386-.314.7-.701.7h-8.76a.7.7 0 01-.7-.7v-2.896h10.162l-.001 2.896zm0-4.288H6.308V8.598c0-.386.314-.701.7-.701h8.76c.387 0 .701.314.701.701l.001 1.504z"/></symbol><symbol id="sprite-delivery-1" viewBox="0 0 1024 1024"><title>delivery-1</title><path d="M901.582 563.683l-22.879-116.514c-6.274-32.75-17.067-57.657-33.119-76.384-20.572-24.078-49.539-36.809-83.673-36.809H627.96v-160.15c0-22.048-17.897-40.037-40.037-40.037s-40.037 17.897-40.037 40.037v388.198H200.002c-22.048 0-40.037 17.897-40.037 40.037 0 22.048 17.897 40.037 40.037 40.037h679.992c1.477 0 2.86-.092 4.243-.185 34.134 7.472 59.779 37.916 59.779 74.263V819.96h-86.901c-16.513-46.588-60.979-79.982-113.101-79.982s-96.588 33.488-113.101 79.982h-247.79c-16.513-46.588-60.979-79.982-113.101-79.982s-96.588 33.396-113.101 79.89c-42.713-1.661-76.938-36.809-76.938-79.89V451.966c0-22.048-17.897-40.037-40.037-40.037S.001 429.918.001 451.966v288.012c0 87.178 70.112 158.212 156.829 159.965 16.513 46.588 60.979 80.074 113.193 80.074 52.123 0 96.588-33.396 113.101-79.982h247.79c16.513 46.588 60.979 79.982 113.101 79.982s96.588-33.396 113.101-79.982h126.847c22.048 0 40.037-17.897 40.037-40.037V715.993c0-74.448-52.492-136.902-122.418-152.309zM627.963 413.958h134.043c12.177 0 28.967 0 38.193 48.247v.185l19.557 99.54H627.963zm-357.94 486.077c-22.048 0-40.037-17.897-40.037-40.037 0-22.048 17.989-40.037 40.037-40.037s40.037 17.989 40.037 40.037c-.092 22.048-17.989 40.037-40.037 40.037zm473.993 0c-22.048 0-40.037-17.897-40.037-40.037 0-22.048 17.989-40.037 40.037-40.037s40.037 17.989 40.037 40.037c-.092 22.048-17.989 40.037-40.037 40.037zM12.179 272.995c-15.776-15.407-16.143-40.775-.738-56.551s40.775-16.143 56.551-.645l129.246 126.108a23.621 23.621 0 0017.805 6.366c3.782-.277 10.794-1.661 16.42-8.118L431.466 60.723c12.823-17.989 37.824-22.14 55.813-9.225 17.989 12.823 22.14 37.824 9.225 55.813L295.671 387.757a29.93 29.93 0 01-1.384 1.754c-18.174 22.602-45.111 36.624-73.986 38.562-2.306.185-4.613.185-6.827.185-26.477 0-52.308-10.24-71.587-28.599-.092-.092-.277-.185-.369-.369z"/></symbol><symbol id="sprite-delivery-2" viewBox="0 0 1024 1024"><title>delivery-2</title><path d="M994.525 252.441l28.395-75.789c1.267-3.484 1.478-7.389.317-10.978-1.056-3.589-3.378-6.755-6.439-8.867-3.061-2.217-6.755-3.273-10.556-3.167s-7.389 1.478-10.239 3.906L722.614 382.695c-7.494 6.227-12.984 14.355-16.044 23.538s-3.378 19.106-.95 28.5a1593.847 1593.847 0 014.855 19c1.267 4.75.95 9.817-.845 14.461s-4.961 8.55-9.078 11.295l-.633.422c-4.328 2.956-9.606 4.223-14.883 3.8s-10.133-2.639-14.038-6.227l-40.639-57.845-9.711-48.767c-1.689-8.233-1.689-16.783-.106-25.016s4.855-16.15 9.606-23.116c7.917-11.823 19.528-20.795 33.144-25.333 5.7-1.9 11.717-2.745 17.733-2.217 6.016.422 11.928 2.006 17.311 4.75l44.967 22.484c2.956 1.478 6.227 2.006 9.394 1.689a16.217 16.217 0 008.867-3.695c2.534-2.006 4.434-4.75 5.488-7.811s1.161-6.439.422-9.606l-10.978-43.805a72.205 72.205 0 00-22.484-36.733l13.617-67.767c1.584-8.128.211-16.678-4.012-23.855s-10.872-12.667-18.789-15.305l-22.906-7.705-.211-.106a53.12 53.12 0 01-2.111-.633V85.347c0-4.539-1.795-8.867-4.961-12.034s-7.494-4.961-12.034-4.961c-4.539 0-8.867 1.795-12.034 4.961s-4.961 7.494-4.961 12.034v21.85c-.739.211-1.478.317-2.111.633l-.211.106-22.8 7.705c-7.917 2.639-14.566 8.128-18.789 15.305s-5.594 15.727-4.012 23.855l10.978 54.678a173.334 173.334 0 00-25.016 8.233l-21.639-32.405 21.323-63.967c4.117-12.35 3.378-25.861-2.111-37.683s-15.305-21.111-27.444-25.966l-44.755-17.839V17.157c0-4.539-1.795-8.867-4.961-12.034-3.167-3.273-7.494-5.066-12.034-5.066s-8.867 1.795-12.034 4.961a17.01 17.01 0 00-4.961 12.034v22.589L450.278 57.48c-12.139 4.855-21.956 14.144-27.444 25.966s-6.227 25.333-2.111 37.683l21.323 63.967-21.639 32.405c-8.128-3.378-16.466-6.227-25.016-8.233l10.978-54.678c1.584-8.128.211-16.678-4.012-23.855s-10.872-12.667-18.789-15.305l-22.906-7.705-.211-.106a53.12 53.12 0 01-2.111-.633V85.347c0-4.539-1.795-8.867-4.961-12.034s-7.494-4.961-12.034-4.961c-4.539 0-8.867 1.795-12.034 4.961s-4.961 7.494-4.961 12.034v21.85c-.739.211-1.478.317-2.111.633l-.211.106-22.8 7.705c-7.917 2.639-14.566 8.128-18.789 15.305s-5.594 15.727-4.012 23.855l13.617 67.767c-11.084 9.606-18.894 22.484-22.484 36.733l-10.978 43.805c-.739 3.167-.633 6.544.422 9.606s2.956 5.805 5.488 7.917c2.534 2.006 5.594 3.273 8.867 3.695 3.273.317 6.544-.211 9.394-1.689l44.967-22.484c5.383-2.745 11.295-4.328 17.311-4.75s12.034.317 17.733 2.217c13.512 4.539 25.122 13.406 33.144 25.333 4.644 6.966 7.917 14.883 9.606 23.116 1.584 8.233 1.584 16.783-.106 25.016l-9.711 48.767-40.639 57.845c-3.8 3.589-8.761 5.805-14.038 6.227s-10.45-.95-14.883-3.8l-.633-.422c-4.117-2.745-7.283-6.65-9.078-11.295s-2.006-9.711-.845-14.461a1009.84 1009.84 0 004.855-19c2.322-9.394 2.006-19.317-.95-28.5-3.061-9.183-8.55-17.417-16.044-23.538L27.948 157.545c-2.85-2.428-6.544-3.8-10.239-3.906-3.8-.106-7.494.95-10.556 3.167s-5.277 5.277-6.439 8.867c-1.056 3.589-.95 7.494.317 10.978l28.395 75.789c15.939 42.539 42.75 80.222 77.689 109.355l7.811 6.544-78.744-9.817c-3.273-.422-6.544.106-9.5 1.584-2.956 1.372-5.383 3.589-7.178 6.439-1.689 2.745-2.639 6.016-2.534 9.289s1.056 6.439 2.85 9.183c24.066 36.311 59.112 64.072 99.961 79.272l12.139 4.539-82.65 9.183c-3.589.422-6.861 1.9-9.5 4.328s-4.539 5.594-5.277 9.078c-.739 3.484-.422 7.178 1.056 10.45 1.372 3.273 3.8 6.016 6.861 7.917l29.872 17.944c35.783 21.534 75.156 36.628 116.216 44.439-26.072 17.944-48.556 40.745-66.184 67.028-1.689 2.534-2.745 5.594-2.85 8.655s.528 6.122 2.006 8.867c1.478 2.745 3.589 4.961 6.333 6.544a17.115 17.115 0 008.761 2.428h6.755c33.144 0 65.867-7.389 95.634-21.85v38.95c0 3.378.95 6.65 2.85 9.5s4.539 4.961 7.705 6.333c3.167 1.267 6.544 1.584 9.817.95s6.333-2.322 8.761-4.644l39.161-39.161 22.062 22.062c1.795 1.795 3.906 3.167 6.333 4.012s4.961 1.161 7.389.95c2.534-.211 4.961-1.056 7.072-2.322 2.217-1.267 4.012-3.061 5.383-5.172l15.2-22.8c5.277-7.917 12.878-14.038 21.85-17.628v2.534c0 13.617-5.383 26.6-14.989 36.205l-12.139 12.139c-13.089 12.984-23.433 28.5-30.506 45.6s-10.661 35.361-10.661 53.833c0 4.223 1.584 8.233 4.328 11.4s6.65 5.066 10.767 5.594l-9.817 19.633-21.323 5.383-43.594-48.661c5.911-9.394 8.55-20.372 7.705-31.35s-5.383-21.428-12.667-29.767c-7.283-8.233-17.1-13.933-27.972-16.255-10.872-2.217-22.062-.95-32.089 3.8s-18.261 12.561-23.433 22.273c-5.172 9.817-7.072 20.9-5.383 31.878s6.861 21.006 14.777 28.711c7.917 7.705 18.156 12.667 29.133 14.144 2.217.317 4.434.422 6.65.422 5.594 0 11.084-.95 16.361-2.745l33.038 36.944-1.9.528c-2.217.528-4.223 1.478-6.016 2.85s-3.273 3.061-4.434 4.961c-2.322 3.906-3.061 8.55-1.9 12.878s3.906 8.128 7.811 10.45c3.906 2.322 8.55 3.061 12.878 1.9l19.422-4.855 14.989 16.572c1.478 1.689 3.273 3.061 5.383 4.012s4.223 1.478 6.439 1.584c2.217.106 4.434-.211 6.544-.95s4.012-1.9 5.7-3.378a15.68 15.68 0 004.012-5.383c.95-2.006 1.478-4.223 1.689-6.439.106-2.217-.211-4.434-.95-6.544s-1.9-4.012-3.378-5.7l-2.85-3.167 11.4-2.85c2.428-.633 4.644-1.689 6.544-3.273s3.484-3.484 4.539-5.7l20.9-41.8h15.094c3.167 0 6.227-.845 8.972-2.534s4.855-4.012 6.333-6.861c7.072-14.355 17.628-26.6 30.717-35.889l4.75 7.072-40.217 70.405c-18.156 31.667-27.656 67.556-27.656 104.078 0 4.539 1.795 8.867 4.961 12.034s7.494 4.961 12.034 4.961c4.539 0 8.867-1.795 12.034-4.961s4.961-7.494 4.961-12.034c0-30.611 8.022-60.588 23.116-87.188l23.327-40.745-2.006 5.066c-18.367 45.811-21.85 96.267-9.817 144.083.528 2.217 1.478 4.223 2.85 6.016s2.956 3.378 4.961 4.539c1.9 1.161 4.012 1.9 6.333 2.217 2.217.317 4.539.211 6.65-.317 2.217-.528 4.223-1.478 6.016-2.85s3.378-3.061 4.434-4.961c1.161-1.9 1.9-4.117 2.217-6.333s.211-4.539-.317-6.65c-10.345-40.85-7.389-84.022 8.339-123.078l.211-.528 8.972 13.512v165.511c0 4.539 1.795 8.867 4.961 12.034s7.705 5.066 12.245 5.066c4.539 0 8.867-1.795 12.034-4.961s4.961-7.494 4.961-12.034V841.439l8.972-13.512.211.528c15.727 39.161 18.683 82.228 8.339 123.078-.528 2.217-.633 4.434-.317 6.65s1.056 4.328 2.217 6.333c1.161 1.9 2.639 3.589 4.434 4.961s3.906 2.322 6.016 2.85c2.217.528 4.434.633 6.65.317s4.328-1.056 6.333-2.217c1.9-1.161 3.589-2.639 4.961-4.539 1.372-1.795 2.322-3.906 2.85-6.016 12.034-47.817 8.655-98.272-9.817-144.083l-2.006-5.172 23.327 40.745c15.2 26.6 23.116 56.578 23.116 87.188 0 4.539 1.795 8.867 4.961 12.034s7.494 4.961 12.034 4.961c4.539 0 8.867-1.795 12.034-4.961s4.961-7.494 4.961-12.034c0-36.522-9.5-72.411-27.656-104.078l-40.006-70.405 4.855-7.283a95.248 95.248 0 0130.717 35.889c1.372 2.85 3.589 5.172 6.333 6.861s5.805 2.534 8.972 2.534h15.094l20.9 41.8c1.056 2.217 2.639 4.117 4.539 5.7s4.117 2.639 6.544 3.273l44.122 11.084c4.644 10.556 11.928 19.739 21.217 26.811 9.183 6.966 20.056 11.506 31.456 13.195s23.116.317 33.883-3.695c10.767-4.117 20.372-10.872 27.867-19.739s12.561-19.422 14.883-30.717c2.322-11.295 1.584-23.011-1.9-34.094-3.484-10.978-9.711-21.006-18.156-28.922s-18.683-13.617-29.872-16.466v-19.211c0-4.539-1.795-8.867-4.961-12.034s-7.494-4.961-12.034-4.961c-4.539 0-8.867 1.795-12.034 4.961s-4.961 7.494-4.961 12.034v19.211c-13.195 3.378-25.016 10.661-33.989 20.9s-14.777 22.8-16.572 36.311l-23.011-5.805-9.817-19.633c4.117-.528 8.022-2.428 10.767-5.594s4.328-7.178 4.328-11.4c.106-18.472-3.589-36.733-10.661-53.833s-17.417-32.616-30.506-45.6l-12.139-12.139c-9.606-9.606-14.989-22.695-14.989-36.205v-2.534c8.867 3.484 16.466 9.606 21.85 17.628l15.2 22.8a16.785 16.785 0 005.383 5.172c2.217 1.267 4.539 2.111 7.072 2.322s5.066-.106 7.389-.95c2.428-.845 4.539-2.217 6.333-4.012l22.062-22.062 39.161 39.161c2.428 2.428 5.383 4.012 8.761 4.644 3.273.633 6.755.317 9.817-.95 3.167-1.267 5.805-3.484 7.705-6.333s2.85-6.122 2.85-9.5v-38.95c29.872 14.355 62.489 21.85 95.634 21.85h6.755c3.061 0 6.122-.845 8.761-2.428s4.855-3.906 6.227-6.544c1.478-2.745 2.111-5.805 2.006-8.867s-1.161-6.122-2.85-8.655c-17.628-26.389-40.006-49.084-66.184-67.028 41.062-7.917 80.327-22.906 116.111-44.439l29.872-17.944a16.254 16.254 0 006.861-7.917c1.372-3.273 1.795-6.966 1.056-10.45s-2.639-6.65-5.277-9.078c-2.639-2.428-6.016-3.906-9.5-4.328l-82.65-9.183 12.139-4.539c40.85-15.2 75.789-42.961 99.961-79.272 1.795-2.745 2.85-5.911 2.85-9.183.106-3.273-.845-6.439-2.534-9.289-1.689-2.745-4.223-4.961-7.178-6.439-2.956-1.372-6.227-1.9-9.5-1.584l-78.744 9.817 7.811-6.544c35.044-28.922 61.75-66.711 77.795-109.25zM219.326 767.868c-4.328-.528-8.233-2.745-10.978-6.122s-4.117-7.6-3.8-11.928c.317-4.328 2.217-8.339 5.383-11.295s7.283-4.644 11.611-4.644c3.484 0 6.966 1.056 9.817 3.061s5.066 4.855 6.227 8.233c1.161 3.273 1.267 6.966.317 10.345s-2.956 6.439-5.7 8.655c-.317.211-.633.422-.95.739a17.092 17.092 0 01-11.928 2.956zm565.777 102.495c-6.016 0-11.823-1.584-16.994-4.539s-9.5-7.283-12.456-12.456h59.006a33.585 33.585 0 01-12.456 12.456c-5.277 2.956-11.189 4.539-17.1 4.539zm29.45-51.194h-12.456v-12.456a33.585 33.585 0 0112.456 12.456zm-46.55-12.456v12.456h-12.456c3.061-5.172 7.283-9.5 12.456-12.456zM426.742 443.707h170.683V640.99c0 3.589-1.161 7.072-3.167 10.028-2.111 2.956-5.066 5.066-8.444 6.227l-73.678 24.594-73.678-24.594c-3.378-1.161-6.333-3.273-8.444-6.227s-3.273-6.439-3.167-10.028V443.707zm286.9-174.166c-9.394-4.75-19.633-7.6-30.084-8.339s-21.006.633-31.034 3.906c-20.689 6.966-38.528 20.584-50.666 38.739-7.178 10.767-12.139 22.8-14.672 35.467s-2.428 25.755.106 38.317l6.333 31.878H531.77l8.655-60.8a127.384 127.384 0 0142.855-78.533c23.222-20.161 52.989-31.245 83.811-31.245h19.739c8.444 0 16.572 2.85 23.222 8.022s11.4 12.456 13.406 20.584l1.9 7.811zm-62.383-121.6l22.695-7.6c5.7-1.795 11.717-1.795 17.311 0l22.906 7.705-11.717 58.584c-5.172-1.161-10.45-1.795-15.727-1.795h-19.739c-1.478 0-2.956 0-4.434.106zM462.948 89.252l49.084-19.633 49.084 19.633c4.012 1.584 7.283 4.75 9.183 8.655 1.795 3.906 2.111 8.444.739 12.561l-20.056 60.166h-77.795l-20.056-60.166c-1.372-4.117-1.161-8.655.739-12.561 1.795-3.906 5.066-7.072 9.078-8.655zm7.073 115.583h84.128l19.633 29.45c-29.45 20.795-51.194 50.877-61.75 85.395-10.556-34.516-32.194-64.6-61.75-85.395zm-137.328-64.493c5.7-1.795 11.717-1.795 17.311 0l22.906 7.705-11.4 56.789c-1.478 0-2.956-.106-4.539-.106h-19.739c-5.277 0-10.556.633-15.622 1.795l-11.611-58.584zm38.844 124.766c-9.922-3.378-20.478-4.644-31.034-3.906-10.45.739-20.689 3.589-30.084 8.339l-11.717 5.911 1.9-7.811c2.006-8.128 6.755-15.411 13.406-20.584s14.777-8.022 23.222-8.022h19.739c30.823 0 60.588 11.084 83.811 31.245s38.422 48.028 42.855 78.533l8.655 60.8h-61.855l6.333-31.878c2.534-12.667 2.639-25.65.106-38.317s-7.494-24.7-14.672-35.467c-12.139-18.261-29.978-31.878-50.666-38.845zm-29.134 368.177l-3.695 5.488-19.422-19.422c-3.167-3.167-7.494-4.961-12.034-4.961s-8.867 1.795-12.034 4.961l-22.062 22.062v-27.022c0-3.061-.845-6.122-2.428-8.761s-3.906-4.855-6.544-6.227c-2.745-1.478-5.805-2.111-8.867-2.006s-6.122 1.161-8.655 2.85c-21.85 14.566-46.55 24.383-72.517 28.711 17.1-17.944 37.156-32.722 59.323-43.805l13.195-6.65c3.273-1.584 5.805-4.223 7.494-7.389s2.217-6.861 1.689-10.45c-.528-3.589-2.217-6.861-4.75-9.394s-5.805-4.223-9.394-4.855l-38.634-6.439c-34.622-5.7-68.084-17.1-99.011-33.672l102.706-11.4c3.8-.422 7.389-2.111 10.133-4.855s4.434-6.227 4.961-10.028c.528-3.8-.317-7.705-2.322-10.978s-5.066-5.805-8.655-7.178l-78.955-29.556c-20.795-7.811-39.9-19.422-56.261-34.411l92.995 11.611c3.695.422 7.389-.317 10.556-2.111s5.7-4.644 7.178-8.022c1.478-3.378 1.795-7.178.95-10.767s-2.85-6.755-5.7-9.183l-52.566-43.805c-30.4-25.333-53.622-58.161-67.556-95.211l-6.016-16.044 224.2 184.722c2.428 2.006 4.328 4.75 5.277 7.811a15.864 15.864 0 01.317 9.394c-1.478 5.911-3.167 12.561-4.855 18.789-3.061 11.611-2.322 23.961 1.9 35.255a57.854 57.854 0 0022.062 27.55l.633.422c11.189 7.494 24.594 10.767 38 9.289s25.755-7.494 35.15-17.1c.633-.633 1.161-1.372 1.689-2.111l12.561-17.839v39.9l-12.245 9.183c-11.611 8.655-25.544 13.512-40.006 13.933s-28.711-3.695-40.745-11.717c-1.9-1.267-3.906-2.111-6.122-2.534s-4.434-.422-6.65 0c-2.217.422-4.328 1.267-6.122 2.534-1.9 1.267-3.484 2.85-4.75 4.75s-2.111 3.906-2.534 6.122c-.422 2.217-.422 4.434 0 6.65s1.267 4.328 2.534 6.122a16.957 16.957 0 004.75 4.75c16.466 10.978 35.783 16.994 55.628 17.417s39.372-4.855 56.261-15.2v36.628c-20.372 4.539-38.422 16.783-50.034 34.2zm292.073 76.422c15.833 15.727 26.283 36.205 29.872 58.267h-22.695c-12.773-21.217-31.456-38.317-53.622-49.4-3.695-1.9-8.022-2.322-12.034-1.267s-7.494 3.589-9.817 7.072l-54.15 81.066-54.044-81.066c-2.322-3.484-5.805-5.911-9.817-7.072-4.012-1.056-8.339-.633-12.034 1.267-22.167 11.084-40.85 28.183-53.622 49.4h-22.695c3.484-22.062 13.933-42.433 29.872-58.267l12.139-12.139c4.539-4.539 8.55-9.711 12.034-15.2 4.223 3.061 8.867 5.488 13.827 7.072l79.061 26.389a17.077 17.077 0 0010.767 0l79.061-26.389c4.961-1.689 9.606-4.012 13.827-7.072a82.856 82.856 0 0012.034 15.2zm260.51-374.088l-52.566 43.805c-2.85 2.322-4.855 5.594-5.7 9.183s-.528 7.389.95 10.767c1.478 3.378 4.012 6.227 7.178 8.022s6.861 2.534 10.556 2.111l92.995-11.611c-16.361 14.989-35.467 26.705-56.261 34.411l-78.955 29.556c-3.589 1.372-6.65 3.906-8.655 7.178s-2.85 7.178-2.322 10.978 2.217 7.389 4.961 10.028a16.97 16.97 0 0010.133 4.855l102.706 11.4a319.33 319.33 0 01-99.116 33.672l-38.634 6.439c-3.589.633-6.861 2.322-9.394 4.855s-4.223 5.911-4.75 9.394c-.528 3.589.106 7.178 1.689 10.45 1.689 3.167 4.328 5.805 7.494 7.389l13.195 6.65c22.167 11.084 42.222 25.966 59.323 43.805-25.966-4.328-50.666-14.144-72.517-28.711-2.534-1.689-5.594-2.745-8.655-2.85s-6.122.528-8.867 2.006c-2.745 1.478-4.961 3.589-6.544 6.227s-2.428 5.7-2.428 8.761v27.022l-22.062-22.062a17.372 17.372 0 00-5.488-3.695c-2.111-.845-4.328-1.267-6.544-1.267s-4.434.422-6.544 1.267c-2.111.845-3.906 2.111-5.488 3.695l-19.422 19.422-3.695-5.488c-11.611-17.522-29.661-29.767-50.245-34.2v-36.628c16.889 10.345 36.417 15.516 56.261 15.2 19.845-.422 39.056-6.439 55.628-17.417 3.8-2.534 6.333-6.439 7.283-10.872.845-4.434 0-9.078-2.534-12.773-2.534-3.8-6.439-6.333-10.872-7.283-4.434-.845-9.078 0-12.773 2.534-12.034 8.022-26.283 12.139-40.745 11.717s-28.395-5.277-40.006-13.933l-12.245-9.183v-39.9l12.561 17.839c.528.739 1.056 1.372 1.689 2.111 9.394 9.606 21.745 15.727 35.15 17.1s26.811-1.9 38-9.289l.633-.422c10.028-6.65 17.733-16.361 22.062-27.55s4.961-23.538 1.9-35.255a1258.937 1258.937 0 01-4.855-18.789c-.739-3.167-.633-6.439.317-9.394.95-3.061 2.85-5.805 5.277-7.811l224.2-184.722-6.016 16.044c-13.617 37.05-36.944 69.877-67.239 95.211z"/><path d="M465.798 609.429a17.372 17.372 0 005.488 3.695c2.111.845 4.328 1.267 6.544 1.267s4.434-.422 6.544-1.267c2.111-.845 3.906-2.111 5.488-3.695 5.911-5.911 10.345-13.3 12.773-21.323s2.745-16.572.95-24.805h17.628c5.066 6.966 7.811 15.516 7.811 24.172v10.028c0 4.539 1.795 8.867 4.961 12.034s7.494 4.961 12.034 4.961c4.539 0 8.867-1.795 12.034-4.961s4.961-7.494 4.961-12.034v-10.028c0-16.889-5.7-33.355-16.15-46.656 1.161-3.378 3.273-6.333 6.227-8.444 2.85-2.111 6.333-3.167 9.922-3.273 4.539 0 8.867-1.795 12.034-4.961s4.961-7.494 4.961-12.034c0-4.539-1.795-8.867-4.961-12.034s-7.494-4.961-12.034-4.961c-10.556 0-20.9 3.273-29.556 9.394s-15.2 14.777-18.683 24.7h-19.95V495.11c0-4.539-1.795-8.867-4.961-12.034s-7.494-4.961-12.034-4.961c-4.539 0-8.867 1.795-12.034 4.961s-4.961 7.494-4.961 12.034v51.194c0 2.639.633 5.172 1.795 7.6v.106l6.227 12.561a15.398 15.398 0 011.478 9.922c-.528 3.378-2.111 6.544-4.644 8.972-3.167 3.167-4.961 7.494-4.961 12.034s1.9 8.655 5.066 11.928z"/></symbol><symbol id="sprite-delivery-3" viewBox="0 0 1024 1024"><title>delivery-3</title><path d="M963.116 621.733l-71.687-140.814c-3.38-6.759-10.343-10.958-17.819-10.958H150.389c-7.578 0-14.44 4.199-17.819 10.958L60.883 621.733c-3.175 6.247-2.867 13.621.819 19.56s10.139 9.524 17.103 9.524h24.988v353.213a19.93 19.93 0 0019.97 19.97h776.474c11.06 0 19.97-9.012 19.97-19.97V650.817h24.988c6.964 0 13.416-3.584 17.103-9.524s3.994-13.313.819-19.56zM861.32 510.003l51.308 100.772H595.976l-51.308-100.772zm-698.642 0H479.33l-51.308 100.772H111.37zM880.164 984.06H531.969V873.15c0-11.06-8.91-19.97-19.97-19.97s-19.97 9.012-19.97 19.97v110.91H143.834V650.817h296.478c7.578 0 14.44-4.199 17.819-10.958l33.795-66.464V693.42c0 11.06 8.91 19.97 19.97 19.97s19.97-9.012 19.97-19.97V573.498l33.795 66.464c3.38 6.759 10.343 10.958 17.819 10.958h296.478v333.141z"/><path d="M340.871 874.481H226.888c-11.06 0-19.97 9.012-19.97 19.97a19.93 19.93 0 0019.97 19.97h113.983c11.06 0 19.97-9.012 19.97-19.97s-8.91-19.97-19.97-19.97zm171.128-463.304c113.266 0 205.333-92.272 205.333-205.64S625.265 0 511.999 0 306.564 92.169 306.564 205.537s92.169 205.64 205.435 205.64zm0-371.135c91.145 0 165.29 74.247 165.29 165.495 0 91.35-74.145 165.597-165.29 165.597-91.248 0-165.393-74.247-165.393-165.597 0-91.248 74.145-165.495 165.393-165.495z"/><path d="M422.287 235.544l53.253 45.163c3.584 3.072 8.193 4.711 12.904 4.711.614 0 1.127 0 1.741-.102a19.614 19.614 0 0013.621-7.066l100.26-119.82c7.066-8.5 5.94-21.097-2.458-28.163-8.5-7.066-21.097-5.94-28.163 2.458l-87.356 104.356-37.892-32.157c-8.398-7.169-21.097-6.145-28.163 2.355-7.271 8.5-6.145 21.199 2.253 28.265zm-303.441-9.934h86.537c11.06 0 19.97-9.012 19.97-19.97a19.93 19.93 0 00-19.97-19.97h-86.537c-11.06 0-19.97 9.012-19.97 19.97s8.91 19.97 19.97 19.97zm-9.319-139.278l86.537 45.675c2.97 1.536 6.145 2.355 9.319 2.355 7.169 0 14.133-3.892 17.717-10.651 5.121-9.729 1.434-21.916-8.398-27.036L128.165 51c-9.729-5.121-21.916-1.434-27.036 8.398-5.121 9.627-1.331 21.813 8.398 26.934zm-8.398 265.447c3.584 6.759 10.548 10.651 17.717 10.651 3.175 0 6.349-.717 9.319-2.355l86.537-45.573c9.729-5.121 13.518-17.205 8.398-27.036-5.121-9.729-17.205-13.518-27.036-8.398l-86.537 45.573c-9.729 5.325-13.518 17.41-8.398 27.139zM818.513 225.61h86.537c11.06 0 19.97-9.012 19.97-19.97a19.93 19.93 0 00-19.97-19.97h-86.537c-11.06 0-19.97 9.012-19.97 19.97-.102 10.958 8.91 19.97 19.97 19.97zm0-91.35c3.175 0 6.349-.717 9.319-2.355l86.537-45.675c9.729-5.121 13.518-17.307 8.398-27.036s-17.307-13.518-27.036-8.398l-86.537 45.675c-9.729 5.121-13.518 17.307-8.398 27.036 3.584 6.964 10.548 10.753 17.717 10.753zm-9.32 180.344l86.537 45.573c2.97 1.536 6.145 2.355 9.319 2.355 7.169 0 14.133-3.892 17.717-10.651 5.121-9.729 1.434-21.916-8.398-27.036l-86.537-45.573c-9.831-5.121-21.916-1.434-27.036 8.398-5.121 9.627-1.434 21.813 8.398 26.934zm-297.194 448.66c-11.06 0-19.97 9.012-19.97 19.97v.102c0 11.06 8.91 19.97 19.97 19.97s19.97-9.012 19.97-20.072c0-10.958-8.91-19.97-19.97-19.97z"/></symbol><symbol id="sprite-delivery-4" viewBox="0 0 1024 1024"><title>delivery-4</title><path d="M934.031.001H571.975c-23.04 0-44.008 8.655-59.977 23.04C496.028 8.656 475.061.001 452.021.001H89.965C40.35.001-.001 40.351-.001 89.967v784.089c0 39.131 25.112 72.411 59.977 84.846v35.109c0 16.579 13.41 29.989 29.989 29.989s29.989-13.41 29.989-29.989v-29.989h301.957v29.989c0 16.579 13.41 29.989 29.989 29.989s29.989-13.41 29.989-29.989v-29.989h60.099v29.989c0 16.579 13.41 29.989 29.989 29.989s29.989-13.41 29.989-29.989v-29.989h301.957v29.989c0 16.579 13.41 29.989 29.989 29.989s29.989-13.41 29.989-29.989v-35.109c34.987-12.434 60.099-45.836 60.099-84.846V89.967C1024 40.352 983.65.001 934.034.001zM482.009 904.044H89.964c-16.579 0-29.989-13.41-29.989-29.989V89.966c0-16.579 13.41-29.989 29.989-29.989H452.02c16.579 0 29.989 13.41 29.989 29.989zm482.011-29.989c0 16.579-13.41 29.989-29.989 29.989H541.986V89.967c0-16.579 13.41-29.989 29.989-29.989h362.056c16.579 0 29.989 13.41 29.989 29.989z"/><path d="M392.044 119.954H149.942c-16.579 0-29.989 13.41-29.989 29.989s13.41 29.989 29.989 29.989h241.98c16.579 0 29.989-13.41 29.989-29.989s-13.288-29.989-29.867-29.989zm0 120.076H149.942c-16.579 0-29.989 13.41-29.989 29.989s13.41 29.989 29.989 29.989h241.98c16.579 0 29.989-13.41 29.989-29.989.122-16.579-13.288-29.989-29.867-29.989zm482.01 423.984H631.952c-16.579 0-29.989 13.41-29.989 29.989s13.41 29.989 29.989 29.989h242.102c16.579 0 29.989-13.41 29.989-29.989s-13.531-29.989-29.989-29.989zm0 119.954H631.952c-16.579 0-29.989 13.41-29.989 29.989s13.41 29.989 29.989 29.989h242.102c16.579 0 29.989-13.41 29.989-29.989s-13.531-29.989-29.989-29.989zm0-664.014H631.952c-16.579 0-29.989 13.41-29.989 29.989s13.41 29.989 29.989 29.989h242.102c16.579 0 29.989-13.41 29.989-29.989s-13.531-29.989-29.989-29.989zm0 120.076H631.952c-16.579 0-29.989 13.41-29.989 29.989s13.41 29.989 29.989 29.989h242.102c16.579 0 29.989-13.41 29.989-29.989s-13.531-29.989-29.989-29.989zm-482.01 423.984H149.942c-16.579 0-29.989 13.41-29.989 29.989s13.41 29.989 29.989 29.989h241.98c16.579 0 29.989-13.41 29.989-29.989s-13.288-29.989-29.867-29.989zm0 119.954H149.942c-16.579 0-29.989 13.41-29.989 29.989s13.41 29.989 29.989 29.989h241.98c16.579 0 29.989-13.41 29.989-29.989s-13.288-29.989-29.867-29.989zm0-361.935c-16.579 0-29.989 13.41-29.989 29.989v59.977c0 16.579 13.41 29.989 29.989 29.989s29.989-13.41 29.989-29.989v-59.977c0-16.579-13.41-29.989-29.989-29.989zm482.01 0c-16.579 0-29.989 13.41-29.989 29.989v59.977c0 16.579 13.41 29.989 29.989 29.989s29.989-13.41 29.989-29.989v-59.977c0-16.579-13.531-29.989-29.989-29.989z"/></symbol><symbol id="sprite-home" viewBox="0 0 1024 1024"><title>home</title><path d="M512.128 269.169L146.793 570.244c0 .512 0 1.024-.256 1.792s-.256 1.536-.256 1.792v304.915c0 11.008 4.096 20.481 12.032 28.673 7.937 7.937 17.665 12.032 28.673 12.032h243.983V675.465h162.57v243.983h243.983c11.008 0 20.481-4.096 28.673-12.032 7.937-7.937 12.032-17.665 12.032-28.673V574.084c0-1.792-.256-3.073-.768-3.841z"/><path d="M1016.991 501.632l-139.017-115.72V126.824c0-5.888-1.792-10.753-5.633-14.593s-8.704-5.633-14.593-5.633H735.884c-5.888 0-10.753 1.792-14.593 5.633s-5.633 8.704-5.633 14.593v123.912l-154.89-129.544c-13.825-11.008-29.954-16.641-48.643-16.641s-34.818 5.376-48.387 16.641L7.263 501.632C2.911 504.96.607 509.569.094 515.201s1.024 10.753 4.352 14.849l39.426 47.107c3.328 3.841 7.937 6.144 13.313 6.912 5.12.512 10.24-1.024 15.361-4.352l439.579-366.359 439.579 366.614c3.328 3.073 7.937 4.352 13.313 4.352h1.792c5.376-.768 9.985-3.073 13.313-6.912l39.426-47.107c3.328-4.352 4.864-9.217 4.352-14.849-.256-5.888-2.56-10.497-6.912-13.825z"/></symbol><symbol id="sprite-instagram" viewBox="0 0 512 512"><title>instagram</title><path d="M256 46.1c68.4 0 76.5.3 103.4 1.5 25 1.1 38.5 5.3 47.5 8.8 11.9 4.6 20.5 10.2 29.4 19.1 9 9 14.5 17.5 19.2 29.4 3.5 9 7.7 22.6 8.8 47.5 1.2 27 1.5 35.1 1.5 103.4s-.3 76.5-1.5 103.4c-1.1 25-5.3 38.5-8.8 47.5-4.6 11.9-10.2 20.5-19.1 29.4-9 9-17.5 14.5-29.4 19.2-9 3.5-22.6 7.7-47.5 8.8-27 1.2-35.1 1.5-103.4 1.5s-76.5-.3-103.4-1.5c-25-1.1-38.5-5.3-47.5-8.8-11.9-4.6-20.5-10.2-29.4-19.1-9-9-14.5-17.5-19.2-29.4-3.5-9-7.7-22.6-8.8-47.5-1.2-27-1.5-35.1-1.5-103.4s.3-76.5 1.5-103.4c1.1-25 5.3-38.5 8.8-47.5 4.6-11.9 10.2-20.5 19.1-29.4 9-9 17.5-14.5 29.4-19.2 9-3.5 22.6-7.7 47.5-8.8 26.9-1.2 35-1.5 103.4-1.5zM256 0c-69.5 0-78.2.3-105.5 1.5-27.2 1.2-45.9 5.6-62.1 11.9C71.5 20 57.2 28.7 43 43 28.7 57.2 20 71.5 13.4 88.3c-6.3 16.3-10.7 34.9-11.9 62.1C.3 177.8 0 186.5 0 256s.3 78.2 1.5 105.5c1.2 27.2 5.6 45.9 11.9 62.1C20 440.5 28.7 454.8 43 469c14.2 14.2 28.5 23 45.3 29.5 16.3 6.3 34.9 10.7 62.1 11.9 27.3 1.2 36 1.5 105.5 1.5s78.2-.3 105.5-1.5c27.2-1.2 45.9-5.6 62.1-11.9 16.8-6.5 31.1-15.3 45.3-29.5s23-28.5 29.5-45.3c6.3-16.3 10.7-34.9 11.9-62.1 1.2-27.3 1.5-36 1.5-105.5s-.3-78.2-1.5-105.5c-1.2-27.2-5.6-45.9-11.9-62.1-6.3-17-15-31.3-29.3-45.5-14.2-14.2-28.5-23-45.3-29.5-16.3-6.3-34.9-10.7-62.1-11.9C334.2.3 325.5 0 256 0z"/><path d="M256 124.5c-72.6 0-131.5 58.9-131.5 131.5S183.4 387.5 256 387.5 387.5 328.6 387.5 256 328.6 124.5 256 124.5zm0 216.8c-47.1 0-85.3-38.2-85.3-85.3s38.2-85.3 85.3-85.3c47.1 0 85.3 38.2 85.3 85.3s-38.2 85.3-85.3 85.3zm167.4-222c0 16.955-13.745 30.7-30.7 30.7S362 136.255 362 119.3s13.745-30.7 30.7-30.7 30.7 13.745 30.7 30.7z"/></symbol><symbol id="sprite-iomoney" viewBox="0 0 93.885 66.667"><title>iomoney</title><defs><clipPath id="a" clipPathUnits="userSpaceOnUse"><path d="M0 50h239V0H0z"/></clipPath></defs><g clip-path="url(#a)" transform="matrix(1.33333 0 0 -1.33333 0 66.667)"><path d="M45.412 15.665c-5.063 0-9.336 4.271-9.336 9.335 0 5.063 4.273 9.335 9.336 9.335 5.063 0 9.335-4.272 9.335-9.335 0-5.064-4.114-9.335-9.335-9.335m0 34.335c-13.924 0-25-11.234-25-25 0-13.924 11.234-25 25-25s25 11.234 25 25c.158 13.766-11.234 25-25 25m-25-7.279V6.33h-9.02L0 42.721z"/></g></symbol><symbol id="sprite-lifting-1" viewBox="0 0 9.517 8.18"><title>lifting-1</title><path fill="#79288e" stroke-width=".011" d="M2.148 8.16c-.261-.088-.499-.436-.712-1.045a9.586 9.586 0 01-.407-1.825c-.032-.273-.023-.343.068-.479.06-.09.29-.311.452-.435.171-.13.514-.356.738-.485l.173-.1-.048-.002c-.535-.029-.8-.053-1.044-.098-.383-.07-.54-.14-.64-.284C.586 3.201.492 2.87.361 2.1c-.065-.384-.086-.45-.193-.629C.03 1.238-.002 1.134 0 .89.002.539.07.274.19.148.29.043.413 0 .61 0c.215 0 .448.055.784.185.328.127 1.13.525 1.382.687.514.328 1.022.94 1.487 1.79.09.166.265.52.283.576.01.034.036.051.062.043.038-.012.039-.05 0-.15-.044-.12-.043-.194.006-.244l.031-.032-.262-.597a11.77 11.77 0 00-.296-.645.49.49 0 01-.078-.19c0-.063.063-.022.102.066a.6.6 0 01.033.102c.005.026.127.317.272.648l.264.6.039-.01a.274.274 0 01.08-.007l.04.004.263-.6c.145-.33.264-.61.264-.624a.423.423 0 01.078-.18c.033-.039.059-.039.059 0a.474.474 0 01-.075.185c-.016.021-.148.309-.294.64-.257.586-.263.601-.243.623.057.062.06.132.012.263-.038.098-.037.136.001.148.034.01.047-.006.101-.128.19-.428.534-1.015.806-1.376.281-.373.609-.698.897-.889.188-.124.913-.494 1.244-.634.308-.131.561-.212.758-.242.115-.018.304-.015.383.006.142.036.257.13.319.258s.117.508.102.706c-.013.186-.046.278-.173.495-.112.191-.11.184-.24.91-.123.68-.258 1.031-.44 1.144-.148.093-.443.163-.876.21a13.18 13.18 0 01-.684.048l-.049.002.171.1c.67.387 1.13.762 1.25 1.02a.286.286 0 01.029.151c-.002.265-.133 1.015-.267 1.526-.226.864-.509 1.401-.815 1.55a.357.357 0 01-.17.04c-.494.026-.976-.426-1.389-1.302-.18-.384-.273-.638-.5-1.373-.202-.658-.27-.843-.323-.891-.056-.05-.066.02-.077.489-.009.37-.01.404-.034.461-.07.177-.2.216-.295.087-.066-.089-.07-.122-.08-.56-.01-.45-.022-.524-.075-.48-.053.042-.133.264-.337.93-.16.52-.241.76-.338.994-.253.614-.498 1.02-.788 1.304-.187.185-.382.298-.57.332a.708.708 0 01-.296-.008z"/></symbol><symbol id="sprite-lifting-2" viewBox="0 0 9.257 9.753"><title>lifting-2</title><path fill="#79288e" stroke-width=".014" d="M1.741 9.744c-.295-.006-.75-.017-1.01-.024L.26 9.71l-.078-.042a.235.235 0 01-.118-.115c-.056-.103-.076-.3-.055-.557.027-.332.084-.424.312-.5.314-.106.537-.283.65-.515a.803.803 0 00.083-.393c0-.14-.003-.163-.036-.233a1.344 1.344 0 00-.182-.239c-.233-.26-.319-.41-.356-.629a.67.67 0 01-.007-.236 1.05 1.05 0 01.466-.738c.074-.045.103-.071.118-.108.03-.075.004-.103-.152-.167-.23-.094-.37-.212-.384-.328-.019-.144.104-.255.411-.37.127-.049.17-.084.17-.142 0-.064-.022-.092-.112-.139a.876.876 0 01-.215-.179.81.81 0 01-.193-.27.745.745 0 01-.09-.422c.012-.238.08-.368.34-.652.217-.238.27-.377.253-.669a.952.952 0 00-.263-.623c-.148-.154-.28-.232-.53-.312C.025 1.045.004 1 .014.527.02.289.022.267.056.193.11.068.118.066.522.059l1.84-.033a88.606 88.606 0 014.268 0c.925.015 1.865.03 2.088.032l.406.006.035.036c.047.049.07.15.088.383.017.233.008.431-.024.514-.028.071-.084.102-.229.126a1.11 1.11 0 00-.808.658c-.033.086-.036.112-.036.27.001.248.031.337.205.606.2.31.264.47.263.667 0 .27-.113.505-.378.784-.108.114-.142.159-.142.187 0 .02.006.044.013.051.007.008.074.03.148.049.16.042.307.12.364.192a.293.293 0 01.03.272c-.046.125-.216.257-.395.308-.207.059-.213.088-.034.185a.77.77 0 01.348.483c.038.145.035.44-.006.577-.057.189-.106.273-.322.549a1.775 1.775 0 00-.153.218c-.092.244-.064.672.061.927.11.223.308.383.56.45.047.013.15.028.23.034.172.013.223.036.262.115.038.076.06.31.051.552-.005.17-.01.201-.04.26a.2.2 0 01-.107.105c-.118.061-.319.095-.658.111-.39.018-5.995.028-6.709.011zm3.82-.336c1.748-.03 2.731-.068 2.897-.113.117-.032.168-.13.103-.193-.045-.044-.088-.057-.244-.074-.302-.033-.694-.041-2.817-.058-2.7-.021-3.902-.005-4.405.059a1.284 1.284 0 00-.365.086c-.098.051-.056.14.085.18.311.087 2.805.146 4.746.113zm-3.2-.723c.03-.022.03-.022-.049-.455a.822.822 0 01-.014-.33c.042-.398.23-.745.641-1.184.08-.084.306-.303.505-.487.383-.355.623-.599.657-.668.04-.082.009-.112-.371-.359-.254-.164-.314-.22-.314-.291 0-.08.093-.163.28-.249.354-.162.429-.216.429-.309 0-.065-.026-.094-.174-.2a4.305 4.305 0 01-.645-.567 3.64 3.64 0 01-.525-.644c-.235-.363-.373-.73-.394-1.052-.007-.12-.005-.137.048-.315.065-.223.069-.263.022-.285-.048-.023-.2.017-.338.087-.232.12-.432.312-.523.5a.376.376 0 00-.05.237c.002.221.07.417.192.557.273.313.367.534.354.83-.013.288-.171.543-.448.725-.121.08-.134.095-.134.16 0 .07.027.092.224.189.295.145.382.26.312.41-.047.103-.208.203-.437.271-.106.031-.137.047-.152.075-.03.054.01.125.113.2.183.135.316.321.378.53.04.135.043.392.006.534a1.46 1.46 0 01-.282.52c-.16.204-.197.276-.217.429-.045.331.112.708.39.937.11.09.267.176.367.201.105.026.118.027.15.003zm4.453-.097c.187-.097.403-.278.518-.432.224-.3.273-.686.128-.992a2.631 2.631 0 00-.184-.282c-.229-.314-.27-.426-.27-.737a.906.906 0 01.106-.485.8.8 0 01.301-.308c.164-.077.177-.086.182-.117.005-.038-.018-.051-.169-.096a.723.723 0 01-.315-.166c-.174-.164-.143-.354.082-.504a.823.823 0 01.362-.124c.113-.014.151-.03.151-.063 0-.021-.08-.099-.19-.185a1.452 1.452 0 01-.318-.339c-.195-.335-.134-.784.153-1.122a.99.99 0 00.262-.575.607.607 0 00-.006-.241.944.944 0 00-.466-.64c-.097-.05-.22-.077-.268-.058-.076.03-.083.078-.044.327.077.497-.172 1.113-.704 1.744-.191.227-.307.343-.686.687-.525.477-.548.5-.531.528.007.013.105.074.218.135.502.276.564.34.444.452-.067.063-.151.118-.39.256-.344.199-.41.26-.352.335.06.078.297.276.727.608.593.459.842.719 1.01 1.057.096.19.135.342.144.555.01.28-.038.476-.153.617-.065.08-.081.116-.07.159.02.083.176.086.328.006zm-.662-.718a.623.623 0 00.054-.317.482.482 0 00-.061-.242c-.15-.318-.407-.583-.888-.914-.348-.24-.546-.332-.599-.278-.023.025-.02.141.011.329.055.33.177.612.309.716.038.03.117.067.213.1.31.106.531.237.692.41.05.052.106.128.126.169.057.117.098.125.143.027zM3 7.813c.024-.026.07-.08.102-.12.033-.04.094-.1.136-.133.14-.11.22-.147.443-.205.236-.06.224-.056.306-.124.142-.118.282-.368.323-.58.037-.187.011-.517-.043-.564-.016-.014-.061.012-.236.133-.29.201-.624.46-.753.585-.202.195-.366.461-.413.669a.77.77 0 00-.016.206c.01.177.066.227.151.133zM1.375 6.7a.486.486 0 00.168-.214c.05-.149.013-.336-.082-.428-.149-.144-.385-.093-.49.104-.108.202 0 .47.222.554a.225.225 0 00.182-.016zm6.547-.174c.22-.116.266-.491.08-.656-.122-.107-.278-.097-.403.026-.077.076-.103.143-.103.263 0 .125.03.207.108.288.099.101.219.131.318.079zM1.354 3.794a.336.336 0 00.21-.206.54.54 0 00-.013-.369c-.069-.138-.18-.239-.262-.239-.094 0-.217.11-.281.252a.499.499 0 00-.003.37c.051.11.167.198.27.206a.35.35 0 00.079-.014zm6.674-.175a.266.266 0 00.107-.125c.076-.153.05-.347-.07-.507-.046-.064-.137-.12-.194-.12-.058 0-.105.028-.174.101-.17.182-.187.464-.037.613.07.07.12.089.226.083a.258.258 0 00.142-.045zm-3.258-.71c.307-.025.565-.096.8-.218.327-.17.589-.423.725-.705.108-.222.114-.367.024-.56-.065-.138-.132-.22-.214-.26-.122-.062-.207-.031-.565.204-.403.266-.646.343-1.026.326-.276-.013-.484-.08-.866-.277a2.825 2.825 0 00-.244-.115.381.381 0 00-.281.003.664.664 0 00-.248.29.394.394 0 00-.05.224.37.37 0 00.054.225c.068.138.24.33.41.455a2.29 2.29 0 001.086.407c.181.017.205.017.395.001zM6.48.828C7.884.81 8.418.788 8.565.741c.067-.02.123-.078.123-.125S8.625.51 8.553.49C8.33.43 7.166.394 4.99.383 2.767.37 1.243.405.79.478.636.502.551.574.593.644c.056.093.533.16 1.322.183.54.016 3.324.017 4.566.001z"/></symbol><symbol id="sprite-lifting-3" viewBox="0 0 10.818 8.989"><title>lifting-3</title><path fill="#79288e" stroke-width=".015" d="M.337 8.98a.426.426 0 01-.302-.236L0 8.669V5.216c0-3.865-.01-3.534.11-3.657a.556.556 0 01.122-.093c.06-.03.103-.03 3.447-.03h3.386l.067.04c.09.053.142.11.182.2.028.063.034.108.04.295l.007.221.406-.4A30.582 30.582 0 019.327.347c.28-.242.39-.308.565-.338.32-.055.674.147.843.482a.734.734 0 01-.053.766 5.058 5.058 0 01-.388.356 31.54 31.54 0 00-2.74 2.7l-.196.216L7.354 6.6 7.35 8.671l-.045.088a.423.423 0 01-.11.137c-.133.101.128.094-3.522.093A431.342 431.342 0 01.338 8.98zm6.593-.427c.004-.01.005-.811.003-1.78L6.93 5.01l-.39.447c-.214.246-.553.637-.753.87a8.28 8.28 0 01-.427.471c-.264.21-.571.243-.834.089-.15-.089-.444-.333-.832-.69-.451-.418-.628-.57-.838-.726-.443-.327-.787-.47-1.208-.5-.212-.016-.32-.048-.422-.125-.314-.239-.312-.777.005-1.078.168-.16.34-.209.658-.185.586.043 1.107.273 1.753.775.103.08.356.29.562.465.206.176.408.346.448.379l.072.059.047-.053c.026-.029.148-.183.272-.343.5-.645 1.153-1.416 1.764-2.08l.131-.142v-.796H.42v6.725h3.253c2.587 0 3.253-.004 3.258-.019z"/></symbol><symbol id="sprite-lifting-4" viewBox="0 0 8.455 8.969"><title>lifting-4</title><path fill="#79288e" stroke-width=".014" d="M3.276 8.966c-.264-.038-.548-.154-.694-.283-.12-.106-.184-.297-.176-.525.004-.136.009-.156.05-.24.058-.115.123-.163.225-.163.065 0 .07.003.124.067.095.113.278.28.356.326a.76.76 0 00.138.06c.213.055.372-.164.424-.582.009-.071.014-.612.014-1.436V4.868l-.117-.111c-.539-.508-1.119-.51-1.66-.005l-.123.115-.029-.04a1.8 1.8 0 00-.33-.313 1.114 1.114 0 00-.192-.097.643.643 0 00-.27-.035.78.78 0 00-.276.031c-.2.062-.403.178-.62.354-.096.078-.116.09-.12.068a4.802 4.802 0 01.075-.619c.102-.548.248-.981.484-1.439.497-.96 1.26-1.59 2.3-1.9a5.1 5.1 0 01.794-.154L3.865.7l.118-.346c.065-.19.121-.349.126-.353.004-.004.089.14.189.32L4.48.65l.145.01c.755.047 1.446.258 2.005.611.375.237.76.612 1.02.995.453.664.755 1.587.797 2.433l.008.168-.102-.085c-.644-.535-1.188-.54-1.744-.02l-.11.103-.063-.052a2.805 2.805 0 00-.464-.32c-.44-.217-.814-.133-1.277.287l-.093.084v1.48c0 1.302-.003 1.495-.022 1.607-.105.599-.541.998-1.112 1.017-.083.003-.17.003-.192 0z"/></symbol><symbol id="sprite-lifting-5" viewBox="0 0 9.42 9.726"><title>lifting-5</title><path fill="#79288e" stroke-width=".017" d="M5.766 9.695c-.073-.045-.147-.169-.244-.412-.159-.394-.36-.682-.765-1.095a7.395 7.395 0 00-.448-.421c-.387-.321-.804-.597-.97-.64-.07-.02-.083-.018-.113.009-.05.045-.06.156-.026.283.063.238.076.321.086.533.01.207.008.23-.031.342a1.19 1.19 0 01-.104.215 1.32 1.32 0 01-.443.397c-.128.063-.138.065-.31.065-.17 0-.184-.002-.307-.061a1.088 1.088 0 01-.224-.148.982.982 0 00-.164-.122c-.1-.051-.31-.102-.422-.102a.852.852 0 01-.371-.08C.787 8.4.565 8.176.473 8.019a2.345 2.345 0 01-.289-1.446 1.02 1.02 0 01.153-.459c.123-.183.117-.22-.116-.801-.151-.378-.204-.576-.218-.818-.037-.642.265-1.034.795-1.033.432 0 .72.229.776.615a.454.454 0 01-.136.422c-.096.104-.253.197-.302.179-.052-.02-.017-.124.076-.222.14-.15.151-.297.031-.443-.148-.18-.432-.188-.563-.015-.046.06-.049.073-.048.227.002.357.16.698.54 1.173.44.55.92.87 1.575 1.052.233.065.409.135.682.273.461.232.982.586 1.27.863.083.08.115.102.123.084a.796.796 0 00-.043-.201c-.16-.54-.177-1.062-.05-1.477.045-.15.1-.444.1-.536 0-.06-.005-.075-.03-.075-.042 0-.144.062-.31.19-.261.2-.554.353-.904.47-.287.096-.512.13-.698.108-.35-.044-.611-.199-.792-.471-.16-.241-.222-.486-.222-.892 0-.665.155-1.2.486-1.669.237-.335.453-.723.528-.948.078-.23.012-.457-.193-.666a.837.837 0 00-.66-.26.462.462 0 00-.315.125c-.12.109-.184.282-.188.508-.003.149.04.246.167.38a.49.49 0 00.38.184l.128.006-.015.068a.356.356 0 01-.122.213c-.078.069-.163.096-.306.096a.406.406 0 01-.232-.056c-.268-.134-.512-.451-.595-.774a1.435 1.435 0 01-.002-.52c.121-.578.68-1.13 1.384-1.366.364-.122.705-.138 1.127-.052C4.653.3 5.732 1.284 6.03 2.411c.043.164.088.261.13.283.016.008.092.02.168.025.664.049 1.085.53 1.188 1.357.03.238.014.681-.03.846a1.776 1.776 0 01-.377.737 1.09 1.09 0 01-.679.33c-.474.041-.888-.114-1.149-.43a.955.955 0 00-.097-.108c-.015-.006-.075.21-.12.435-.043.214-.058.55-.034.725.022.155.067.35.086.37.007.008.034-.023.06-.068.112-.193.31-.41.486-.53.123-.084.313-.167.48-.21.131-.033.192-.037.52-.037.33 0 .387.004.508.037.304.083.645.09 1.053.02a2.53 2.53 0 00.928-.361l.09-.061.051.113c.153.339.169.727.049 1.202a2.24 2.24 0 01-.785 1.226 2.048 2.048 0 01-.576.279 2.167 2.167 0 01-.697.033 1.26 1.26 0 01-.96-.7c-.188-.375-.163-.774.068-1.062.067-.085.108-.236.077-.293-.046-.086-.22-.122-.386-.08a.827.827 0 00-.426.249c-.213.213-.293.426-.294.781 0 .21 0 .214.06.34.168.353.534.809.859 1.07a.62.62 0 01.136.132c0 .078-.193.364-.35.515-.166.161-.206.177-.301.12zm-3.42-2.46c.076-.038.086-.093.026-.133a.784.784 0 00-.242-.052c-.305-.035-.49-.113-.695-.29-.098-.085-.17-.098-.17-.032 0 .028.032.07.102.136.326.303.775.473.979.37zm5.303-.269c.272-.047.51-.149.293-.126-.184.02-.398.006-.502-.033a.996.996 0 00-.228-.046c-.113-.008-.13-.005-.165.027-.05.048-.05.129 0 .156.02.01.056.026.08.033.075.023.36.017.522-.011zM4.912 4.252c.095-.1.116-.39.048-.638-.087-.314-.335-.862-.634-1.4-.13-.236-.173-.288-.205-.256-.01.011.013.081.07.204.112.247.318.759.383.954.072.217.086.323.092.693.004.252.011.336.033.386.043.1.148.128.213.057z"/></symbol><symbol id="sprite-lifting-6" viewBox="0 0 9.924 6.687"><title>lifting-6</title><path fill="#79288e" stroke-width=".013" d="M2.394 6.583c.346-.311.663-.762.788-1.118.07-.201.079-.276.07-.65-.007-.259.05-.465.229-.828a6.11 6.11 0 01.606-.972l.127-.173a3.252 3.252 0 00-.27.172c-.918.612-1.67.913-2.277.914-.281 0-.511-.06-.812-.214C.35 3.457.102 3.088.017 2.47a7.423 7.423 0 010-1.012c.04-.291.12-.535.235-.72C.328.613.532.406.658.323c.207-.135.485-.254.7-.298.16-.032.409-.035.6-.006.676.102 1.515.521 2.46 1.23l.279.21.066-.014c.084-.018.287-.018.385 0 .06.01.081.01.1-.004l.26-.196c.42-.318.841-.587 1.244-.794C7.24.2 7.648.058 8.013.012a1.97 1.97 0 01.63.032c.316.088.606.244.805.434.281.266.414.574.463 1.07.017.175.017.656 0 .831-.038.388-.139.685-.306.902a1.822 1.822 0 01-.332.315c-.2.134-.493.26-.711.305-.643.13-1.57-.194-2.649-.928a2.32 2.32 0 00-.213-.138l.11.149a6.8 6.8 0 01.607.95c.204.402.28.694.254.985-.027.317.043.58.247.92.131.22.278.405.504.634l.211.214-.584-.004-.585-.003-.103-.151c-.31-.452-.523-.91-.582-1.248a.812.812 0 01-.01-.25 3.039 3.039 0 00-.014-.657c-.08-.464-.322-1.19-.565-1.7l-.082-.172h-.296l-.038.075a8.804 8.804 0 00-.531 1.443 2.74 2.74 0 00-.093 1.011c.013.18-.006.305-.081.532-.087.264-.361.772-.566 1.048l-.056.075H2.28zM1.7 3.053c.515-.078 1.315-.326 2.4-.744l.345-.132-.01-.054a1.583 1.583 0 010-.338c.01-.034.007-.036-.236-.13-.862-.334-1.56-.567-2.079-.695-.316-.078-.507-.108-.696-.11C1.24.846 1.199.856.996.952c-.427.203-.727.543-.79.896a.478.478 0 00.001.233c.064.348.363.689.78.888a.99.99 0 00.287.104c.08.014.26.005.427-.02zm7.038 0c.192-.064.46-.223.617-.366.235-.214.386-.527.368-.762-.031-.398-.372-.79-.878-1.007C8.648.832 8.528.825 8.18.88c-.512.081-1.512.397-2.478.783l-.224.09.01.059c.012.06.006.305-.008.341-.01.022.165.094.774.318.969.358 1.681.558 2.155.607.091.01.266-.005.331-.026z"/></symbol><symbol id="sprite-location" viewBox="0 0 512 512"><title>location</title><path d="M256 0C167.634 0 96 71.634 96 160c0 160 160 352 160 352s160-192 160-352C416 71.634 344.365 0 256 0zm0 258c-54.124 0-98-43.876-98-98s43.876-98 98-98 98 43.876 98 98-43.876 98-98 98zm-62-98c0-34.242 27.758-62 62-62s62 27.758 62 62c0 34.242-27.759 62-62 62s-62-27.758-62-62z"/></symbol><symbol id="sprite-logo-ico" viewBox="0 0 1240.989 1242.125"><title>logo-ico</title><defs><clipPath id="a" clipPathUnits="userSpaceOnUse"><path d="M0 74.824h558.74V0H0z"/></clipPath></defs><path fill="none" stroke-linecap="round" stroke-miterlimit="10" stroke-width="5.333" d="M2266.722 933.81l26.398-26.398-26.398-26.399-26.37 26.4 26.399 26.398"/><g clip-path="url(#a)" transform="matrix(1.33333 0 0 -1.33333 1894.243 950.607)"><path fill="none" stroke-linecap="round" stroke-miterlimit="10" stroke-width="4" d="M279.359 32.397l19.799 19.799-19.799 19.799-19.777-19.8z"/><path fill="#231f20" d="M218.117 33.91l-9.33-.04-24.596-.057c-10.178.018-22.052.04-34.774.061l-39.864.213-74.637.485L.99 34.91a1 1 0 000 2l33.926.338 74.637.485 39.864.213 34.774.061 24.596-.056 9.33-.04a2 2 0 000-4"/><path fill="none" stroke-linecap="round" stroke-miterlimit="10" stroke-width="4" d="M340.623 35.91l-12.451-12.45-24.411 24.41 4.76 4.76 10.334-10.334-10.334-10.334-29.173 29.173-29.13-29.173-10.333 10.334 10.334 10.333 4.76-4.76-24.41-24.41-12.452 12.451"/><path fill="#231f20" d="M557.75 34.91l-33.926-.338-74.638-.485-39.863-.213-34.774-.06-24.597.055-9.329.041a2 2 0 000 4l9.33.041 24.596.056 34.774-.06 39.863-.214 74.638-.485 33.926-.338a1 1 0 000-2"/><path fill="none" stroke-linecap="round" stroke-miterlimit="10" stroke-width="4" d="M279.37 25.766l11.47-11.47L279.37 2.83l-11.469 11.468z"/><path fill="none" stroke-linecap="round" stroke-miterlimit="10" stroke-width="4" d="M349.735 24.996h-9.49L328.26 36.983 306.896 15.62 279.37 43.146 251.844 15.62 230.48 36.983l-11.987-11.987h-9.49"/></g><path fill="#7f618e" d="M598.277 1241.587c-113.235-4.842-226.595-42.03-322-105.629-79.075-52.713-143.137-120.687-191.49-203.18-11.273-19.232-30.36-58.338-38.99-79.884-72.832-181.818-58.242-382.113 39.83-546.8 44.447-74.638 108.263-142.064 182.568-192.899 4.355-2.979 8.356-6.13 8.89-7.001.708-1.152.002-3.83-2.587-9.819-4.882-11.292-9.179-18.164-16.093-25.738C239.849 50.311 210.324 39.42 157.179 33.3c-10.396-1.197-20.364-2.387-22.152-2.644l-3.25-.467V11.422l5.25-.536c2.888-.295 77.25-2.892 165.25-5.772 199.268-6.522 228.705-6.655 277.5-1.259 153.89 17.02 242.107 84.392 255.092 194.814 1.74 14.797.662 50.039-1.992 65.11-11.616 65.97-49.047 116.75-115.788 157.084-10.743 6.492-43.932 23.531-52.062 26.728-2.337.92-4.25 2.09-4.25 2.603 0 .512 3.038 2.958 6.75 5.436 20.729 13.833 51.34 42.633 71.373 67.148 38.768 47.443 69.547 101.77 98.865 174.5 9.794 24.296 14.396 36.816 34 92.5 8.133 23.1 17.564 49.425 20.958 58.5 6.658 17.8 22.628 50.038 33.108 66.83 17.37 27.831 38.805 51.3 61.457 67.287 19.937 14.07 49.617 27.383 73.312 32.882 5.232 1.215 5.375 1.187 8.367-1.631 12.864-12.118 45.324-53.429 62.363-79.368 58.13-88.491 91.073-186.072 100.605-298 2.328-27.336 1.392-88.084-1.764-114.5-1-8.37 1.214-3.905 2.974 6 8.723 49.066 10.309 115.596 4.065 170.5-18.975 166.85-104.94 316.862-239.473 417.892-115.185 86.499-258.362 131.452-399.46 125.417zm87-41.885c42.527-3.49 86.496-12.046 127.684-24.847 19.185-5.962 27.095-8.869 27.499-10.103.197-.604-4.652-1.75-11.77-2.782-51.986-7.536-107.733-33.364-151.91-70.381-41.465-34.743-77.225-79.653-112.921-141.81-11.74-20.443-38.818-74.568-51.53-103-5.409-12.1-18.495-42.026-29.08-66.5-69.609-160.957-79.06-181.51-99.554-216.5-38.035-64.942-75.202-102.73-125.418-127.515-28.912-14.27-56.818-21.99-98-27.113-12.868-1.6-47.556-1.592-58.38.015-19.34 2.87-40.634 10.141-44.256 15.112-3.24 4.446-13.592 45.688-18.324 73-2.805 16.191-6.027 40.89-7.097 54.401-.667 8.421-.603 8.869 1.176 8.305 1.035-.328 5.629-1.971 10.209-3.652 23.425-8.599 71.162-11.543 98.199-6.057 38.44 7.798 76.108 29.222 109.02 62.003 48.528 48.337 92.82 121.698 137.653 228 12.023 28.506 29.21 71.768 42.31 106.5 32.496 86.15 48.316 120.154 73.506 158 34.018 51.11 72.43 80.471 124.318 95.027 7.956 2.232 9.895 2.388 23.666 1.903 8.25-.291 23.1-1.194 33-2.006zm-210.93-20.73c-45.74-34.256-82.75-78.345-119.784-142.694-11.405-19.818-34.883-66.79-46.106-92.244-15.708-35.629-22.257-51.939-48.686-121.256-38.404-100.724-66.101-150.632-105.466-190.041-24.262-24.29-49.755-40.027-76.528-47.242-8.426-2.27-11.5-2.569-27.196-2.638-13.343-.06-18.017.244-19 1.231-1.013 1.018-1.258 6.87-1.1 26.274 1.258 153.91 61.58 301.852 167.296 410.3 63.766 65.413 138.431 113.447 225.5 145.067 17.812 6.469 47.35 15.4 51 15.421l3 .017-2.93-2.194zm451.705-52.697c36.982-20.557 76.192-48.775 106.475-76.63 5.088-4.678 9.25-8.824 9.25-9.211 0-.387-7.592-.53-16.872-.318-63.089 1.447-122.948-24.413-172.344-74.455-29.808-30.198-50.686-60.613-75.085-109.383-14.743-29.469-21.538-45.037-44.645-102.294-37.992-94.138-45.233-109.457-86.841-183.706-38.449-68.61-62.05-103.851-82.769-123.592-4.094-3.901-7.444-7.532-7.444-8.07 0-.537 3.488-2.474 7.75-4.305 32.597-14.002 60.55-32.92 82.25-55.667 12.727-13.34 21.589-26.006 29.992-42.866 8.105-16.263 11.824-26.94 15.672-45 2.631-12.349 2.772-14.35 2.798-40 .026-24.019-.23-28.435-2.312-40-11.322-62.877-46.094-110.463-104.15-142.533-42.431-23.438-101.746-37.969-156.5-38.338l-19-.129-.253 138.75c-.221 120.92-.442 138.75-1.715 138.75-.804 0-5.586-2.5-10.626-5.557-29.098-17.644-61.223-29.98-93.682-35.976-7.392-1.365-13.84-2.73-14.332-3.033-.49-.303-.896-10.988-.902-23.743-.02-45.349-2.857-87.494-7.502-111.446-2.434-12.555-2.965-14.245-4.474-14.245-1.187 0-28.23 21.694-40.514 32.499-14.969 13.168-49.612 48.267-62.035 62.852-39.837 46.77-71.061 96.14-94.963 150.15-6.115 13.816-14.502 34.951-14.502 36.544 0 1.692 1.512 1.063 12.006-5 24.289-14.033 63.755-26.99 96.494-31.682 17.896-2.564 57.887-2.58 74.5-.03 52.158 8.008 94.343 26.81 137.5 61.282 14.143 11.297 44.262 41.336 57.536 57.385 56.262 68.022 107.484 159.395 161.448 288 4.27 10.175 15.8 38.63 25.624 63.233 9.824 24.602 21.95 54.302 26.947 66 44.946 105.21 92.541 167.257 159.445 207.857 26.44 16.045 49.51 24.748 77.5 29.237 1.375.22 6.325.46 11 .53l8.5.13z"/></symbol><symbol id="sprite-logo" viewBox="0 0 343.958 472.355"><title>logo</title><path d="M177.714 471.97c-1.281-.456-1.297-.475-1.092-1.293.28-1.114.723-1.317 2.188-1.003 1.73.371 3.025 0 3.846-1.1 1.46-1.958 1.656-1.201-2.858-11.099-2.336-5.123-4.02-9.133-3.89-9.264.127-.126.804-.193 1.505-.148l1.275.082 3.088 7.092c1.7 3.9 3.224 7.226 3.39 7.391.224.225.372.104.584-.476.156-.428 1.437-3.754 2.848-7.392l2.563-6.615 1.39-.08c1.054-.06 1.389.01 1.389.292 0 .414-7.392 18.704-8.196 20.28-.789 1.547-1.865 2.688-3.038 3.22-1.27.577-3.547.629-4.992.114zm111.01-11.72l.069-12.105h2.646l.08 1.39c.043.764.15 1.389.234 1.389.086 0 .684-.487 1.33-1.082 1.71-1.576 3.195-2.152 5.552-2.152 1.66 0 2.217.126 3.637.825 1.967.969 3.374 2.424 4.344 4.493.614 1.311.697 1.817.697 4.266 0 2.448-.083 2.954-.697 4.265-.974 2.077-2.379 3.525-4.374 4.507-1.44.71-2.005.84-3.622.84-2.203 0-4.192-.756-5.688-2.163-.488-.46-.994-.835-1.125-.835-.13 0-.236 1.905-.236 4.233v4.234h-2.916zm12.3 3.41c4.395-2.242 4.693-9.542.505-12.39-3.018-2.054-6.982-1.097-9.032 2.179-.693 1.106-.805 1.558-.882 3.539-.08 2.071-.022 2.395.662 3.697 1.75 3.331 5.529 4.617 8.746 2.976zM7.958 466.655c-1.626-.45-2.783-1.1-3.71-2.088-.849-.902-1.074-.855-1.074.226 0 1.54-.187 1.742-1.616 1.742H.265V440.34h1.137c.626 0 1.28.143 1.455.318.225.224.318 1.775.318 5.291 0 2.736.096 4.975.213 4.975.117 0 .623-.427 1.124-.95 3.097-3.224 8.34-3.09 11.729.299 3.662 3.662 3.577 10.527-.177 14.194-2.153 2.104-5.319 2.958-8.105 2.187zm3.75-2.614c2.667-.952 4.24-3.383 4.268-6.597.023-2.571-.58-4.07-2.237-5.56-2.786-2.504-6.61-2.221-9.088.674-3.327 3.887-1.56 10.14 3.283 11.613 1.036.315 2.685.258 3.773-.13zm33.329 2.757c-6.409-1.347-9.306-9.415-5.478-15.255 2.105-3.21 5.977-4.61 9.84-3.554 3.284.897 5.898 4.798 5.898 8.805v1.539l-6.946.004c-3.82.003-7.103.104-7.296.227-.276.175-.29.448-.067 1.278 1.207 4.483 6.824 6.025 10.936 3.001.783-.576 1.185-.72 1.514-.545.703.376 1.138 1.02.975 1.443-.23.601-2.557 2.203-3.85 2.65-1.499.518-4.088.71-5.526.407zm7.293-11.376c.113-.972-1.247-3.424-2.41-4.348-.88-.698-1.26-.813-2.91-.883-2.274-.096-3.485.47-4.857 2.267-.884 1.16-1.562 3.031-1.27 3.505.103.165 2.251.237 5.767.192l5.604-.071zm26.593 11.375c-3.182-.66-5.088-2.812-5.1-5.76-.007-1.72.453-2.842 1.617-3.947 1.78-1.691 4.699-2.355 8.432-1.918 1.237.145 2.487.29 2.778.323.463.052.523-.082.478-1.075-.157-3.472-4.056-4.986-8.95-3.475-1.975.61-2.187.534-2.415-.872l-.152-.938 1.815-.626c2.304-.796 7.009-.876 8.619-.147a6.715 6.715 0 013.398 3.42c.566 1.288.62 1.84.726 7.402.063 3.305.037 6.318-.057 6.695-.159.631-.27.678-1.42.604-1.235-.08-1.25-.09-1.33-1.073-.046-.545-.143-.992-.217-.992-.073 0-.52.295-.99.654-1.978 1.508-4.908 2.208-7.232 1.725zm4.49-2.48c1.648-.495 2.75-1.33 3.375-2.556.587-1.15.697-3.22.193-3.636-.443-.365-3.16-.85-4.76-.85-2.047 0-3.603.508-4.597 1.502-.777.777-.896 1.07-.896 2.206 0 1.057.14 1.467.728 2.12 1.301 1.447 3.617 1.919 5.958 1.215zm32.56 2.479c-1.562-.32-2.496-.86-3.602-2.085-1.6-1.771-1.797-2.946-1.715-10.233l.07-6.332 1.165-.083c.753-.054 1.243.04 1.385.265.122.191.225 3.027.23 6.3.01 5.218.071 6.087.5 7.033 1.677 3.69 7.355 3.548 9.349-.235.54-1.023.595-1.58.725-7.194l.14-6.086h2.382v18.257h-1.19c-1.169 0-1.193-.018-1.276-.926-.128-1.393-.448-1.514-1.426-.538-1.596 1.593-4.335 2.348-6.737 1.857zm140.75.003c-3.154-.659-5.094-2.825-5.094-5.688 0-4.322 3.942-6.653 10.043-5.939 1.237.145 2.487.29 2.778.323.794.09.826-1.265.064-2.706-1.234-2.334-4.587-3.076-8.441-1.868-.923.29-1.748.527-1.833.53-.234.005-.77-1.275-.77-1.837 0-.744 2.78-1.616 5.704-1.789 3.309-.196 5.03.315 6.706 1.992 1.853 1.852 2.01 2.647 2.01 10.236v6.35h-2.646l-.082-.993c-.046-.545-.135-.992-.198-.992-.064 0-.682.402-1.374.892-1.975 1.402-4.58 1.966-6.867 1.489zm5.614-2.911c1.795-.87 2.598-2.08 2.727-4.113l.106-1.67-1.154-.335c-.635-.183-2.344-.34-3.8-.348-3.034-.017-4.338.438-5.205 1.816-.716 1.139-.537 3.13.362 4.03 1.498 1.497 4.583 1.772 6.964.62zm70.772 2.768c-5.478-1.529-8.188-7.495-6.035-13.283.599-1.61 2.749-4.098 4.166-4.82 2.279-1.163 5.652-1.184 7.876-.05 1.161.592 2.99 2.466 3.647 3.737.502.972 1.183 3.965 1.19 5.233l.004.86H337.1c-3.772 0-7.046.072-7.276.16-.952.366-.14 2.71 1.476 4.258 2.378 2.28 6.527 2.252 9.277-.062.712-.599.86-.633 1.348-.309 1.197.795 1.19 1.211-.04 2.313-2.16 1.935-5.888 2.769-8.776 1.963zm7.626-11.172c.221-1.557-1.58-4.269-3.318-4.997-1.288-.539-3.425-.446-4.777.208-1.295.627-2.552 2.17-3.008 3.692-.561 1.873-.636 1.849 5.522 1.769 5.486-.072 5.496-.073 5.581-.672zm-189.393 10.74c-.777-.402-1.395-.982-1.782-1.673-.566-1.012-.592-1.333-.596-7.327-.004-4.632-.088-6.32-.326-6.467-.177-.11-.743-.267-1.257-.35-.889-.145-.935-.205-.935-1.207 0-1.05.003-1.054 1.123-1.135 1.317-.095 1.356-.187 1.456-3.358l.067-2.117h2.381l.067 2.117c.11 3.536-.104 3.307 3.108 3.307 2.71 0 2.771.014 2.93.643.088.353.082.889-.014 1.19-.159.501-.378.548-2.554.548-3.629 0-3.405-.379-3.403 5.765 0 2.868.126 5.663.278 6.21.42 1.515 1.2 1.888 3.567 1.71l1.974-.15v1.006c0 .587-.171 1.147-.412 1.347-.226.188-1.327.39-2.447.448-1.741.091-2.208.018-3.225-.508zm75.675-.02c-2.332-1.191-2.651-2.412-2.651-10.128 0-5.872.054-5.68-1.625-5.68-.762 0-.784-.036-.706-1.125.08-1.096.108-1.128 1.14-1.257l1.058-.132.067-2.117c.104-3.309.124-3.35 1.595-3.255l1.249.08.132 2.646.132 2.646 2.778.132 2.779.132.08 1.125.082 1.124h-2.608c-1.676 0-2.721.114-2.925.318-.227.226-.318 1.866-.318 5.697 0 7.4.235 7.877 3.8 7.703l1.889-.092.082 1c.076.922.012 1.028-.851 1.389-1.426.595-3.795.501-5.18-.206zM101.07 426.038c-4.14-.516-8.381-1.94-11.621-3.903-2.248-1.362-5.048-3.469-5.048-3.798 0-.357 4.736-6.043 5.034-6.043.124 0 1.156.673 2.292 1.495 2.327 1.682 5.573 3.303 7.909 3.95 2.432.672 7.088.804 8.98.253 4.046-1.175 6.034-4.374 4.774-7.675-.998-2.613-3.368-3.855-11.282-5.915-11.984-3.118-15.855-6.682-15.855-14.597 0-4.12 1.121-6.93 3.868-9.69 1.782-1.791 4.878-3.501 7.58-4.185 4.96-1.255 11.964-.507 17.257 1.843 1.817.807 5.956 3.438 5.956 3.787 0 .333-4.197 6.243-4.51 6.35-.143.05-.92-.349-1.727-.884-4.051-2.69-8.142-3.957-12.235-3.793-2.28.092-2.839.211-4.175.895-1.962 1.003-3.04 2.456-3.221 4.34-.256 2.658 1.147 4.7 4.14 6.023.798.353 3.829 1.297 6.736 2.099 6.069 1.672 9.18 2.927 11.676 4.708 3.266 2.331 4.628 4.946 4.832 9.277.223 4.756-1.033 8.137-4.084 10.991-1.971 1.844-4.61 3.256-7.433 3.978-2.376.607-7.05.842-9.843.494zm56.976-.096c-9.83-1.869-17.365-9.133-19.859-19.14-.324-1.304-.442-2.921-.437-6.017.005-3.715.09-4.548.695-6.802 2.105-7.849 8.245-14.58 15.724-17.237 3.33-1.184 6.117-1.567 10.4-1.43 7.346.236 12.608 2.422 17.354 7.208 5.03 5.073 7.357 10.862 7.34 18.261-.013 5.384-1.12 9.42-3.734 13.625-1.473 2.367-4.6 5.712-6.823 7.3-2.157 1.54-5.601 3.156-8.183 3.839-2.727.722-9.61.939-12.477.393zm10.545-8.353c3.51-1.09 7.292-4.162 9.204-7.476 1.925-3.334 2.79-8.379 2.125-12.37-.941-5.638-4.41-10.517-9.089-12.785-2.653-1.287-4.34-1.637-7.716-1.605-3.72.035-6.337.823-9.037 2.72-4.493 3.155-6.923 7.831-7.164 13.786-.233 5.77 1.27 9.819 5.059 13.636 2.51 2.528 4.996 3.906 8.119 4.499 2.484.471 6.255.292 8.499-.405zm143.616 8.21c-5.836-1.248-10.693-4.184-14.262-8.62-3.899-4.848-5.603-9.738-5.62-16.128-.011-4.8.702-8.046 2.62-11.908 1.732-3.486 5.147-7.42 8.365-9.633 1.875-1.29 5.362-2.869 7.707-3.488 3.212-.848 9.48-.995 12.835-.3 5.204 1.078 9.437 3.41 13.046 7.187 4.58 4.795 6.731 9.927 6.99 16.685.224 5.816-1.01 10.57-3.904 15.045-3.832 5.925-9.403 9.753-16.267 11.177-3.16.656-8.4.648-11.51-.017zm10.549-8.064c5.671-1.525 10.294-6.588 11.593-12.698.619-2.907.354-7.927-.546-10.372-1.09-2.959-1.953-4.302-4.248-6.61-3.45-3.473-6.475-4.71-11.527-4.717-2.395-.003-3.437.12-4.895.575-8.061 2.517-12.938 11.056-11.42 19.998 1.27 7.492 6.654 13.091 13.656 14.206 1.882.299 5.561.109 7.387-.382zM0 400.776v-24.76l13.295.093c12.692.09 13.39.12 15.36.67 5.77 1.61 9.843 5.43 11.204 10.512 1.008 3.758.602 8.4-1.023 11.713-1.405 2.865-4.362 5.489-7.859 6.973-1.248.53-1.735.873-1.72 1.213.01.26 2.737 4.284 6.058 8.94 3.321 4.658 6.094 8.676 6.162 8.93.115.43-.237.464-4.755.464-4.726 0-4.897-.019-5.415-.596-.295-.327-2.992-4.061-5.994-8.297-3.003-4.237-5.625-7.841-5.83-8.01-.259-.215-1.897-.286-5.494-.235l-5.125.072-.133 8.467-.132 8.466-4.3.073-4.299.073zm26.653-1.282c3.381-1.562 5.037-4.384 4.77-8.128-.24-3.351-2.226-5.705-5.726-6.79-1.27-.392-2.614-.46-9.16-.46H8.863l-.07 8.15-.07 8.15 8.14-.08 8.14-.08zm31.98 25.611c-.21-.547-.21-48.093 0-48.64.241-.628 8.434-.628 8.675 0 .21.547.21 48.093 0 48.64-.137.357-.772.419-4.337.419-3.565 0-4.2-.062-4.337-.419zm148.396.095c-.071-.186-.098-11.292-.06-24.68l.067-24.341h12.965c14.694 0 15.278.062 19.222 2.036 6.887 3.447 9.87 11.59 7.115 19.428-1.176 3.346-4.53 6.676-8.345 8.286-1.338.565-1.848.914-1.838 1.259.007.262 2.734 4.286 6.06 8.943 3.324 4.657 6.1 8.675 6.167 8.93.114.428-.239.463-4.756.463-4.724 0-4.897-.02-5.418-.596-.297-.327-2.895-3.929-5.776-8.003-2.88-4.075-5.479-7.679-5.776-8.01-.53-.59-.626-.599-5.714-.529l-5.174.072-.133 8.467-.132 8.466-4.173.073c-3.193.056-4.203-.006-4.301-.264zm26.528-25.706c3.381-1.562 5.037-4.384 4.77-8.128-.239-3.324-2.254-5.714-5.724-6.788-1.271-.394-2.612-.462-9.162-.462h-7.673l-.07 8.15-.07 8.15 8.14-.08 8.14-.08zm31.942 25.7c-.07-.183-.095-11.285-.058-24.673l.068-24.342 4.214-.073c3.193-.056 4.265.008 4.427.264.246.387.307 48.099.062 48.735-.137.357-.776.419-4.374.419-3.127 0-4.246-.086-4.339-.331zm-100.531-96.691c-29.96-1.281-59.954-11.12-85.196-27.948-20.922-13.947-37.872-31.931-50.665-53.758-2.983-5.088-8.033-15.435-10.317-21.136-19.27-48.106-15.41-101.1 10.54-144.674C41.088 61.24 57.972 43.4 77.633 29.95c1.152-.788 2.21-1.622 2.352-1.852.187-.305 0-1.013-.685-2.598-1.292-2.988-2.428-4.806-4.258-6.81-4.91-5.378-12.721-8.26-26.782-9.878a465.132 465.132 0 01-5.862-.7l-.86-.123V3.022l1.39-.142c.763-.078 20.439-.765 43.722-1.527 52.723-1.726 60.512-1.76 73.422-.333 40.716 4.503 64.057 22.329 67.493 51.545.46 3.915.175 13.239-.527 17.227-3.074 17.454-12.977 30.89-30.636 41.561-2.842 1.718-11.623 6.226-13.774 7.072-.619.244-1.125.553-1.125.689 0 .135.804.782 1.786 1.438 5.484 3.66 13.584 11.28 18.884 17.766 10.257 12.553 18.401 26.927 26.158 46.17 2.592 6.428 3.81 9.741 8.996 24.474 2.152 6.112 4.647 13.077 5.545 15.478 1.762 4.71 5.987 13.24 8.76 17.682 4.596 7.364 10.267 13.573 16.26 17.803 5.276 3.723 13.128 7.245 19.398 8.7 1.384.322 1.422.314 2.213-.431 3.404-3.206 11.992-14.137 16.5-21 15.38-23.413 24.097-49.231 26.619-78.845.616-7.233.368-23.306-.467-30.295-.264-2.215.321-1.033.787 1.587 2.308 12.982 2.728 30.585 1.076 45.112-5.02 44.145-27.766 83.836-63.36 110.567-30.477 22.886-68.36 34.78-105.691 33.183zm23.018-11.082c11.252-.924 22.886-3.187 33.784-6.574 5.076-1.578 7.168-2.347 7.275-2.673.052-.16-1.23-.463-3.114-.736-13.754-1.994-28.504-8.828-40.193-18.622-10.97-9.192-20.432-21.075-29.877-37.52-3.106-5.41-10.27-19.73-13.634-27.253-1.43-3.201-4.893-11.119-7.694-17.594-18.417-42.587-20.918-48.025-26.34-57.283-10.064-17.182-19.898-27.18-33.184-33.738-7.65-3.776-15.033-5.818-25.929-7.174-3.404-.423-12.583-.42-15.446.004-5.117.76-10.751 2.683-11.71 3.999-.857 1.176-3.596 12.088-4.848 19.314-.742 4.284-1.594 10.819-1.878 14.394-.176 2.228-.16 2.346.312 2.197.273-.087 1.489-.521 2.7-.966 6.198-2.275 18.829-3.054 25.983-1.603 10.17 2.064 20.136 7.732 28.844 16.405 12.84 12.79 24.56 32.2 36.421 60.325 3.18 7.543 7.729 18.989 11.195 28.178 8.598 22.794 12.783 31.791 19.448 41.805 9 13.522 19.164 21.29 32.893 25.142 2.105.59 2.618.632 6.261.504 2.183-.077 6.112-.316 8.731-.531zm-55.808-5.485c-12.102-9.063-21.895-20.729-31.693-37.754-3.018-5.244-9.23-17.672-12.199-24.407-4.156-9.426-5.889-13.742-12.882-32.082-10.16-26.65-17.489-39.855-27.904-50.282-6.42-6.426-13.164-10.59-20.248-12.499-2.23-.6-3.043-.68-7.196-.698-3.53-.016-4.767.065-5.027.326-.268.269-.333 1.817-.29 6.951.332 40.722 16.292 79.865 44.263 108.559 16.872 17.307 36.627 30.016 59.664 38.382 4.712 1.712 12.528 4.075 13.493 4.08l.794.005-.775-.58zm119.514-13.943c9.784-5.439 20.158-12.905 28.171-20.275 1.346-1.237 2.447-2.334 2.447-2.437 0-.102-2.008-.14-4.464-.084-16.692.383-32.53-6.46-45.599-19.7-7.887-7.99-13.41-16.037-19.866-28.94-3.901-7.797-5.699-11.916-11.813-27.066-10.052-24.907-11.967-28.96-22.976-48.605-10.173-18.153-16.417-27.477-21.9-32.7-1.083-1.033-1.97-1.993-1.97-2.136 0-.142.924-.654 2.051-1.139 8.625-3.705 16.021-8.71 21.762-14.728 3.368-3.53 5.712-6.881 7.936-11.342 2.144-4.303 3.128-7.128 4.146-11.906.696-3.268.734-3.797.74-10.584.007-6.355-.06-7.523-.611-10.583-2.996-16.636-12.196-29.226-27.556-37.712-11.227-6.2-26.92-10.045-41.408-10.143l-5.027-.034-.067 36.71c-.058 31.994-.117 36.712-.453 36.712-.213 0-1.478-.662-2.812-1.47-7.699-4.669-16.199-7.933-24.787-9.52-1.955-.36-3.662-.722-3.792-.802-.13-.08-.237-2.907-.238-6.282-.006-11.998-.756-23.15-1.985-29.487-.644-3.321-.785-3.769-1.184-3.769-.314 0-7.47 5.74-10.72 8.6-3.96 3.483-13.126 12.77-16.413 16.629-10.54 12.374-18.801 25.437-25.126 39.727-1.617 3.655-3.836 9.247-3.836 9.669 0 .447.4.28 3.176-1.323 6.427-3.713 16.869-7.141 25.531-8.383 4.735-.678 15.316-.682 19.711-.008 13.8 2.119 24.962 7.094 36.38 16.214 3.743 2.99 11.711 10.937 15.224 15.184 14.886 17.997 28.438 42.173 42.716 76.2 1.13 2.692 4.18 10.22 6.78 16.73 2.6 6.51 5.807 14.367 7.13 17.462 11.891 27.837 24.484 44.254 42.186 54.996 6.996 4.245 13.1 6.548 20.505 7.736.364.058 1.674.122 2.91.14l2.25.034z"/></symbol><symbol id="sprite-mail" viewBox="0 0 37 37"><title>mail</title><style>.st0{fill:#6a2d8b}</style><path d="M34.69 5.78H2.31C1.04 5.78 0 6.82 0 8.09v1.32l18.5 7.83L37 9.41V8.09c0-1.27-1.04-2.31-2.31-2.31z" class="st0"/><path d="M18.95 19.56a1.166 1.166 0 01-.9 0L0 11.92v16.99c0 1.28 1.04 2.31 2.31 2.31h32.38c1.28 0 2.31-1.04 2.31-2.31V11.92l-18.05 7.64z" class="st0"/></symbol><symbol class="ldi-47ibm8" display="block" overflow="hidden" pointer-events="all" preserveAspectRatio="xMidYMid" style="width:525px;webkit-user-select:none;webkit-transform-origin:262.5px 262.5px;webkit-perspective-origin:262.5px 262.5px;webkit-logical-width:525px;webkit-logical-height:525px;user-select:none;transform-origin:262.5px 262.5px;r:0;perspective-origin:262.5px 262.5px;overflow-y:hidden;overflow-x:hidden;inline-size:525px;height:525px;d:none;block-size:525px;background:0 0/auto padding-box border-box" id="sprite-ok" viewBox="0 0 100 100"><title>ok</title><svg xmlns="http://www.w3.org/2000/svg" id="_1" x="0" y="0" display="block" overflow="hidden" pointer-events="all" version="1.1" viewBox="0 0 100 100" xml:space="preserve" style="x:0;webkit-user-select:none;webkit-transform-origin:50px 50px;webkit-perspective-origin:0 0;user-select:none;transform-origin:50px 50px;r:0;perspective-origin:0 0;overflow-y:hidden;overflow-x:hidden"><g style="x:0;webkit-user-select:none;webkit-transform-origin:50px 50px;webkit-perspective-origin:0 0;user-select:none;transform-origin:50px 50px;r:0;perspective-origin:0 0"><g style="x:0;webkit-user-select:none;webkit-transform-origin:50px 50px;webkit-transform:matrix(.7,0,0,.7,0,0);webkit-perspective-origin:0 0;user-select:none;transform-origin:50px 50px;r:0;perspective-origin:0 0"><g style="x:0;webkit-user-select:none;webkit-transform-origin:50px 50px;webkit-perspective-origin:0 0;user-select:none;transform-origin:50px 50px;r:0;perspective-origin:0 0"><g style="webkit-user-select:none;webkit-perspective-origin:0 0;user-select:none;perspective-origin:0 0" transform="scale(.7)"><style/><g style="y:0;x:0;webkit-user-select:none;webkit-transform-origin:50px 50px;webkit-perspective-origin:0 0;webkit-animation-duration:2.2s;webkit-animation-delay:.169231s;webkit-animation:2.2s ease .169231s 1 normal none running none;user-select:none;transform-origin:50px 50px;r:0;perspective-origin:0 0;d:none"><circle cx="50" cy="50" r="40" fill="none" stroke="#3c3" style="webkit-user-select:none;webkit-perspective-origin:0 0;user-select:none;r:40px;perspective-origin:0 0;cy:50px;cx:50px" stroke-miterlimit="10" stroke-width="8"/></g><g style="x:0;webkit-user-select:none;webkit-transform-origin:50px 50px;webkit-perspective-origin:0 0;user-select:none;transform-origin:50px 50px;r:0;perspective-origin:0 0"><g style="webkit-user-select:none;webkit-perspective-origin:0 0;user-select:none;perspective-origin:0 0"><g style="y:0;x:0;webkit-user-select:none;webkit-transform-origin:50px 50px;webkit-perspective-origin:0 0;webkit-animation-duration:2.2s;webkit-animation-delay:.338462s;webkit-animation:2.2s ease .338462s 1 normal none running none;user-select:none;transform-origin:50px 50px;r:0;perspective-origin:0 0;d:none"><path fill="#3c3" style="webkit-user-select:none;webkit-perspective-origin:0 0;user-select:none;r:0;perspective-origin:0 0" d="M43.7 69.4L25 47.7l3.9-3.9 14.8 12.6 28.6-25.8 2.7 2.7z"/></g></g></g></g></g></g></g><style>@keyframes ldt-bounce-in{0%{-webkit-transform:scale(0);transform:scale(0)}5%{-webkit-transform:scale(.0846);transform:scale(.0846)}6%{-webkit-transform:scale(.191);transform:scale(.191)}7%{-webkit-transform:scale(.3255);transform:scale(.3255)}8%{-webkit-transform:scale(.4804);transform:scale(.4804)}9%{-webkit-transform:scale(.646);transform:scale(.646)}10%{-webkit-transform:scale(.8116);transform:scale(.8116)}11%{-webkit-transform:scale(.9665);transform:scale(.9665)}12%{-webkit-transform:scale(1.1);transform:scale(1.1)}13%{-webkit-transform:scale(1.2069);transform:scale(1.2069)}14%{-webkit-transform:scale(1.2796);transform:scale(1.2796)}19%{-webkit-transform:scale(1.1558);transform:scale(1.1558)}20%{-webkit-transform:scale(1.07);transform:scale(1.07)}21%{-webkit-transform:scale(.9823);transform:scale(.9823)}22%{-webkit-transform:scale(.901);transform:scale(.901)}23%{-webkit-transform:scale(.8328);transform:scale(.8328)}25%{-webkit-transform:scale(.7551);transform:scale(.7551)}29%{-webkit-transform:scale(.8516);transform:scale(.8516)}31%{-webkit-transform:scale(.973);transform:scale(.973)}33%{-webkit-transform:scale(1.0857);transform:scale(1.0857)}35%{-webkit-transform:scale(1.1538);transform:scale(1.1538)}40%{-webkit-transform:scale(1.0771);transform:scale(1.0771)}42%{-webkit-transform:scale(.9954);transform:scale(.9954)}45%{-webkit-transform:scale(.9057);transform:scale(.9057)}52%{-webkit-transform:scale(.9908);transform:scale(.9908)}56%{-webkit-transform:scale(1.0623);transform:scale(1.0623)}64%{-webkit-transform:scale(.9845);transform:scale(.9845)}}@-webkit-keyframes ldt-bounce-in{0%{-webkit-transform:scale(0);transform:scale(0)}5%{-webkit-transform:scale(.0846);transform:scale(.0846)}6%{-webkit-transform:scale(.191);transform:scale(.191)}7%{-webkit-transform:scale(.3255);transform:scale(.3255)}8%{-webkit-transform:scale(.4804);transform:scale(.4804)}9%{-webkit-transform:scale(.646);transform:scale(.646)}10%{-webkit-transform:scale(.8116);transform:scale(.8116)}11%{-webkit-transform:scale(.9665);transform:scale(.9665)}12%{-webkit-transform:scale(1.1);transform:scale(1.1)}13%{-webkit-transform:scale(1.2069);transform:scale(1.2069)}14%{-webkit-transform:scale(1.2796);transform:scale(1.2796)}19%{-webkit-transform:scale(1.1558);transform:scale(1.1558)}20%{-webkit-transform:scale(1.07);transform:scale(1.07)}21%{-webkit-transform:scale(.9823);transform:scale(.9823)}22%{-webkit-transform:scale(.901);transform:scale(.901)}23%{-webkit-transform:scale(.8328);transform:scale(.8328)}25%{-webkit-transform:scale(.7551);transform:scale(.7551)}29%{-webkit-transform:scale(.8516);transform:scale(.8516)}31%{-webkit-transform:scale(.973);transform:scale(.973)}33%{-webkit-transform:scale(1.0857);transform:scale(1.0857)}35%{-webkit-transform:scale(1.1538);transform:scale(1.1538)}40%{-webkit-transform:scale(1.0771);transform:scale(1.0771)}42%{-webkit-transform:scale(.9954);transform:scale(.9954)}45%{-webkit-transform:scale(.9057);transform:scale(.9057)}52%{-webkit-transform:scale(.9908);transform:scale(.9908)}56%{-webkit-transform:scale(1.0623);transform:scale(1.0623)}64%{-webkit-transform:scale(.9845);transform:scale(.9845)}}</style></svg></symbol><symbol id="sprite-pay-01" viewBox="0 0 1024 1024"><title>pay-01</title><path d="M432.293 812.616c-8.39 0-15.926-5.404-18.771-13.225s-.285-16.922 6.115-22.184c6.684-5.404 16.353-5.973 23.463-1.28 6.826 4.266 10.381 12.656 8.817 20.477-1.706 9.243-10.096 16.211-19.624 16.211z"/><path d="M1003.805 459.101H863.878V290.733c0-43.94-35.692-79.633-79.633-79.633H79.633C35.693 211.1 0 246.792 0 290.733v442.249c0 43.94 35.692 79.633 79.633 79.633H341.57c11.092 0 20.051-8.959 20.051-20.051s-8.959-20.051-20.051-20.051H79.633c-21.899 0-39.675-17.776-39.675-39.675V290.589c0-21.899 17.776-39.675 39.675-39.675h704.612c21.899 0 39.675 17.776 39.675 39.675v168.368h-48.064v-29.578c0-11.092-8.959-20.051-20.051-20.051-49.771 0-90.298-40.527-90.298-90.298 0-11.092-8.959-20.051-20.051-20.051H218.28c-11.092 0-20.051 8.959-20.051 20.051 0 49.771-40.527 90.298-90.298 90.298-11.092 0-20.051 8.959-20.051 20.051v164.955c0 11.092 8.959 20.051 20.051 20.051 49.771 0 90.298 40.527 90.298 90.298 0 11.092 8.959 20.051 20.051 20.051h406.699v48.064H522.451c-11.092 0-20.051 8.959-20.051 20.051s8.959 20.051 20.051 20.051h481.497c11.092 0 20.051-8.959 20.051-20.051V479.008c-.142-10.949-9.101-19.908-20.193-19.908zM664.936 603.578h318.96v64.56h-318.96zm318.96-39.959h-318.96v-64.56h318.96zm-855.916 12.23V447.867c55.886-8.674 100.111-52.899 108.785-108.785H627.11c8.674 55.886 52.899 100.111 108.785 108.785v11.234h-91.009c-11.092 0-20.051 8.959-20.051 20.051v205.624H236.623c-8.532-56.028-52.757-100.253-108.643-108.927zm855.916 196.808h-318.96v-64.56h318.96z"/><path d="M432.009 646.666c-74.372 0-134.808-60.436-134.808-134.808S357.637 377.05 432.009 377.05c74.372 0 134.808 60.436 134.808 134.808s-60.578 134.808-134.808 134.808zm0-229.657c-52.33 0-94.849 42.519-94.849 94.849s42.519 94.849 94.849 94.849c52.33 0 94.849-42.519 94.849-94.849s-42.661-94.849-94.849-94.849z"/></symbol><symbol id="sprite-pay-02" viewBox="0 0 1024 1024"><title>pay-02</title><path d="M853.331 180.737V85.334c0-47.104-38.229-85.333-85.333-85.333H85.332C38.228.001-.001 38.23-.001 85.334V460.8c.171 43.52 33.109 80.043 76.459 84.48l64.171 166.571c16.896 44.032 66.389 65.877 110.251 48.981l400.554-154.283c-27.648 72.363-19.797 153.429 21.333 219.136l9.899 15.531v165.717c0 9.387 7.68 17.067 17.067 17.067h307.199c9.387 0 17.067-7.68 17.067-17.067v-563.37c-.171-59.051-23.723-115.541-65.365-157.355zm0 102.058l51.712 134.485c10.069 26.453-3.072 55.979-29.355 66.219l-29.525 11.435c4.779-10.752 7.168-22.357 7.168-34.133zM34.133 460.8V85.334c0-28.331 22.869-51.2 51.2-51.2h682.666c28.331 0 51.2 22.869 51.2 51.2v108.544h-.171l.171.341v266.58c-.171 2.901-.512 5.973-1.195 8.875L661.673 313.343c-35.157-34.304-91.136-34.645-126.635-.683s-37.547 89.941-4.779 126.464l66.731 72.875H85.332c-28.331 0-51.2-22.869-51.2-51.2zm218.623 85.333l-121.344 46.763-17.92-46.763zm-13.993 182.784c-26.453 10.24-55.979-2.901-66.219-29.355l-28.843-74.923 203.776-78.677h280.746l22.187 24.235zm751.102 260.949H716.799V853.333h273.066zm0-170.667H709.29l-7.339-11.776c-41.643-66.56-43.349-150.528-4.267-218.624 3.755-6.485 2.731-14.507-2.219-19.968L555.689 416.255c-20.821-22.869-19.627-58.197 2.56-79.531 22.357-21.333 57.685-20.992 79.531.853l272.042 271.871 24.064-24.064-63.147-63.147 17.579-6.827c43.861-16.896 65.877-66.219 48.981-110.251l-57.685-150.016 55.296 55.467c35.328 35.328 55.296 83.115 55.467 133.12v375.466z"/><path d="M194.56 238.934c24.576 0 44.373-19.797 44.373-44.373v-81.92c0-24.576-19.797-44.373-44.373-44.373h-81.92c-24.576 0-44.373 19.797-44.373 44.373v81.92c0 24.576 19.797 44.373 44.373 44.373zm-92.16-44.373v-23.893h34.133v-34.133H102.4v-23.893c0-5.632 4.608-10.24 10.24-10.24h81.92c5.632 0 10.24 4.608 10.24 10.24v23.893h-34.133v34.133H204.8v23.893c0 5.632-4.608 10.24-10.24 10.24h-81.92c-5.632 0-10.24-4.608-10.24-10.24zm-17.067 95.572H153.6v34.133H85.333zm0 102.4H153.6v34.133H85.333zm307.199 0h68.267v34.133h-68.267zm-204.799-102.4H256v34.133h-68.267zm102.399 0h68.267v34.133h-68.267zm102.4 0h68.267v34.133h-68.267zM716.799 85.334h34.133v51.2h-34.133zm-68.267 0h34.133v51.2h-34.133zm-68.266 0h34.133v51.2h-34.133zm-68.267 0h34.133v51.2h-34.133zm238.933 802.132h34.133v34.133h-34.133z"/></symbol><symbol id="sprite-pay-03" viewBox="0 0 1024 1024"><title>pay-03</title><path d="M514.64 0c-.162 0-.162 0 0 0h-.822C231.557.162.001 228.583.001 510.018c0 68.872 13.708 135.928 40.795 199.185 52.356 122.715 151.123 221.481 274.003 274.003 63.257 27.086 130.312 40.795 199.185 40.795h.162c283.086-.162 509.853-233.373 509.853-513.982C1023.999 228.584 796.407.331 514.642.001zM414.553 70.854c-51.2 48.557-92.986 105.373-124.366 169.125H150.956c63.917-84.067 156.738-145.342 263.597-169.125zM112.638 299.603h151.948c-20.975 57.476-33.363 118.751-36.666 180.356H61.107c4.294-64.578 22.462-126.018 51.53-180.356zm.991 424.464c-29.729-55.494-48.392-117.76-52.686-183.99h166.813c2.808 62.926 15.36 125.192 36.831 183.99zm38.648 59.954h137.91c31.381 63.752 73.166 120.403 124.366 168.96-106.199-23.783-198.524-85.058-262.276-168.96zm135.597-243.944h196.047v183.99H329.165a550.755 550.755 0 01-41.29-183.99zM483.92 934.152c-51.035-42.446-93.316-93.481-125.523-150.297H483.92zm0-454.193H288.039c3.634-62.761 17.672-123.541 41.29-180.026h154.756v180.026zm0-239.98H358.397c32.206-56.816 74.488-107.685 125.523-150.297zm427.933 59.954c28.738 54.338 46.741 115.283 51.035 180.026H799.874c-3.138-61.605-15.69-122.55-36.666-180.026zm-38.152-59.954H737.773c-31.381-63.587-73.166-120.403-124.201-168.795 105.538 23.948 197.203 85.058 260.129 168.795zM544.039 89.848c51.035 42.446 93.316 93.481 125.523 150.297H544.039zm0 210.085h154.756c23.453 56.485 37.657 117.265 41.125 180.026H544.039zm196.212 239.649c-3.138 64.083-17.507 126.679-41.455 184.32H544.04v-184.32zm-196.212 394.57V783.525h125.523c-32.206 56.816-74.488 108.181-125.523 150.627zm69.698 18.663c51.035-48.392 92.655-105.538 124.036-169.125h134.772c-62.926 83.572-153.93 145.012-258.808 169.125zm149.636-228.748c21.471-58.797 33.858-121.394 36.831-184.32h162.684c-4.294 66.23-22.627 128.991-52.191 184.32z"/></symbol><symbol id="sprite-pay-04" viewBox="0 0 1024 1024"><title>pay-04</title><path d="M194.331 350.207c11.95-15.285 20.473-35.758 17.879-56.139-17.879.834-39.186 11.95-51.878 26.402-11.024 12.784-21.307 34.091-18.713 53.638 20.38 2.501 39.927-8.523 52.711-23.901zm17.879 28.996c-28.903-1.668-53.638 16.212-67.255 16.212S110.03 380.13 87.056 380.13c-29.829.834-57.065 17.046-72.35 44.281-30.663 53.638-8.523 132.751 22.141 176.198 14.452 21.307 32.331 45.115 55.305 44.281 22.141-.834 30.663-14.452 57.065-14.452s34.091 14.452 57.899 13.618c23.808-.834 39.186-21.307 53.638-43.448 17.046-24.642 23.808-48.543 23.808-49.376-.834-.834-46.783-17.879-46.783-70.683-.834-44.281 35.758-65.495 37.426-66.422-19.639-30.663-51.97-34.091-62.994-34.925zm250.216-60.493c62.994 0 106.349 43.448 106.349 105.515 0 62.994-44.281 106.349-108.109 106.349h-68.923V640.35h-50.21V318.709zm-70.683 170.269h57.065c43.448 0 68.089-23.808 68.089-63.828 0-40.854-24.642-63.828-68.089-63.828h-57.899v127.656zm189.816 85.969c0-40.854 31.497-66.422 87.636-69.757l64.661-3.428v-17.879c0-26.402-17.879-41.687-46.783-41.687-28.069 0-45.115 13.618-49.376 34.091h-45.949c2.594-42.521 39.186-74.018 96.992-74.018 57.065 0 93.657 29.829 93.657 77.446v161.747h-45.949v-38.26h-.834c-13.618 26.402-43.448 42.521-74.018 42.521-47.709-.185-80.04-29.088-80.04-70.776zm152.39-21.307v-18.713l-57.899 3.428c-28.903 1.668-45.115 14.452-45.115 34.925s17.046 34.091 42.521 34.091c34.091-.093 60.493-23.067 60.493-53.73zm91.064 174.531v-39.186c3.428.834 11.95.834 15.285.834 22.141 0 34.091-9.357 41.687-33.164 0-.834 4.261-14.452 4.261-14.452l-85.135-234.931h51.878l59.566 191.484h.834l59.566-191.484h51.044l-87.451 247.715c-20.473 57.065-43.448 74.944-91.897 74.944-3.428-.926-15.378-.926-19.639-1.76z"/><path d="M462.426 318.71c62.994 0 106.349 43.448 106.349 105.515 0 62.994-44.281 106.349-108.109 106.349h-68.923V640.35h-50.21V318.709zm-70.683 170.269h57.065c43.448 0 68.089-23.808 68.089-63.828 0-40.854-24.642-63.828-68.089-63.828h-57.899v127.656zm189.816 85.969c0-40.854 31.497-66.422 87.636-69.757l64.661-3.428v-17.879c0-26.402-17.879-41.687-46.783-41.687-28.069 0-45.115 13.618-49.376 34.091h-45.949c2.594-42.521 39.186-74.018 96.992-74.018 57.065 0 93.657 29.829 93.657 77.446v161.747h-45.949v-38.26h-.834c-13.618 26.402-43.448 42.521-74.018 42.521-47.709-.185-80.04-29.088-80.04-70.776zm152.39-21.307v-18.713l-57.899 3.428c-28.903 1.668-45.115 14.452-45.115 34.925s17.046 34.091 42.521 34.091c34.091-.093 60.493-23.067 60.493-53.73zm91.064 174.531v-39.186c3.428.834 11.95.834 15.285.834 22.141 0 34.091-9.357 41.687-33.164 0-.834 4.261-14.452 4.261-14.452l-85.135-234.931h51.878l59.566 191.484h.834l59.566-191.484h51.044l-87.451 247.715c-20.473 57.065-43.448 74.944-91.897 74.944-3.428-.926-15.378-.926-19.639-1.76z"/></symbol><symbol id="sprite-pay-05" viewBox="0 0 1024 1024"><title>pay-05</title><path d="M987.007 987.884c-4.522-12.475-12.786-21.051-18.712-32.122-14.502-19.024-31.498-35.553-48.495-51.925-5.925-2.027-8.576-7.641-14.19-9.979-3.742-4.834-9.668-7.328-14.502-11.071-9.668-7.328-20.116-13.566-30.874-19.803-20.427-13.099-45.688-21.362-70.637-29.782-26.976-6.549-55.356-11.383-84.827-15.282-29.16-4.21-58.474-8.265-80.617-19.803-12.786-3.742-22.143-10.759-33.213-16.529-10.292-6.861-21.362-12.475-29.782-21.051-10.448-6.237-16.996-16.685-25.261-25.261-2.807-5.614-7.641-9.044-9.979-15.282-2.807-1.092-3.742-4.522-5.458-6.549-2.027-2.339-2.027-6.861-5.458-7.641-1.715 11.695-1.092 25.572 0 37.423 1.403 5.145 2.027 11.383 3.431 16.529.78 4.522 5.145 11.851 3.431 15.282-88.569-4.522-153.28-32.589-209.416-69.545-27.756-18.4-51.614-40.854-73.756-65.024-9.668-13.41-20.116-26.04-28.692-40.854-8.732-14.502-16.217-30.874-24.169-46.312-13.099-33.213-25.261-67.207-29.782-108.996-5.925-38.827-4.522-88.569 4.21-124.59 3.118-19.803 9.668-36.644 15.282-53.953 3.742-7.952 7.641-15.905 11.071-24.169 4.834-6.861 7.328-16.217 13.41-22.143 16.217-30.406 40.23-53.017 65.024-75.003 26.664-19.647 57.071-35.553 93.716-45.064 35.24-7.952 83.111-9.356 121.159-1.092 77.186 15.905 135.349 50.522 184.155 94.806 49.43 43.505 87.478 98.548 113.519 165.444 26.976 63.776 36.332 162.793 12.162 234.834a2835.231 2835.231 0 00-29.782-16.529c-11.851-3.431-23.546-7.328-37.423-8.732-16.685-.311-33.213 0-43.973 5.458 21.83-2.339 39.451 3.742 53.017 8.732 7.952 3.118 12.475 5.145 18.712 8.732 12.162 7.173 22.922 13.566 32.122 23.234 25.885 22.766 44.285 52.861 53.017 92.468 0 1.092 1.403.78 1.092-1.092 1.092-.311 1.715-1.092 2.339-2.339 1.403-1.715 3.118-3.431 4.522-5.458 2.807-3.431 5.614-6.861 7.641-11.071 5.925-7.173 10.759-14.969 15.282-23.234 10.448-15.282 18.4-32.902 27.6-49.742 15.593-35.709 28.379-74.379 36.332-118.04 15.905-97.145-3.118-188.989-36.332-256.82-33.993-68.455-81.708-123.187-143.301-164.352C688.405 33.738 615.741 3.643 515.945.836c-.624-2.027-1.403.311-3.431 0-52.861-1.715-95.43 5.614-137.688 16.529-19.647 6.549-40.074 12.162-57.383 21.051-19.803 6.549-35.709 17.309-53.953 25.261-6.549 6.237-16.529 9.356-23.234 15.282-8.732 4.366-15.282 11.227-24.169 15.437-14.19 12.475-29.16 23.546-43.194 36.332-13.566 12.475-25.572 26.664-38.671 39.763-2.027 4.522-5.458 7.641-8.732 11.071-2.339 4.21-5.145 7.952-8.732 11.071-1.403 5.145-5.925 7.173-7.641 12.162-3.742 2.807-4.522 8.576-8.732 11.071-3.742 9.044-10.292 15.593-14.502 24.169-5.145 8.265-9.044 17.309-14.19 25.261-7.952 18.4-16.529 36.332-22.922 56.135a398.723 398.723 0 00-16.529 61.905c-4.21 20.739-8.265 47.715-7.641 69.545-2.807 7.952-.624 22.766 0 32.122 0 1.715-1.092 2.339-1.092 3.431 0 10.448 2.807 23.234 3.431 29.782 2.339 24.169 6.549 46.623 13.41 66.115 4.21 21.83 13.41 38.827 19.803 58.474 9.979 16.529 16.685 36.02 28.692 50.833 8.732 17.309 21.362 30.874 33.213 45.064 12.786 13.566 25.572 27.6 40.854 38.671 28.068 24.481 60.969 43.973 97.145 60.814 67.207 32.589 167.782 53.953 258.067 48.495 22.922-3.118 46.312-5.925 67.207-11.071 19.336-7.173 41.79-11.383 65.024-14.19 53.017-3.431 99.017 1.403 139.87 13.41 41.478 11.071 77.186 27.756 108.216 49.742 16.529 9.668 30.095 22.143 43.973 33.993 14.19 12.162 25.572 27.288 38.671 40.854 1.715 5.145 5.145 8.732 7.641 13.41 3.431 3.742 1.715 12.162 9.979 11.071 5.145-5.145-.78-12.475-1.092-18.712-5.458-5.614-6.549-12.63-10.603-17.309z"/><path d="M781.02 686c-1.092 0-1.403.78-2.339 1.092-2.027 4.21-1.092 11.071 0 15.282 5.925 12.162 7.952 28.068 21.051 33.213 6.237-2.027 5.614-11.071 5.458-19.803-2.807-10.759-6.861-20.427-13.41-27.6-4.522-1.715-7.641-4.522-10.759-2.183zm-77.186 30.875c0-.624-.78-1.092-1.092 0-10.759-1.403-14.502 4.522-19.803 8.732-9.356 24.637 5.614 48.807 32.122 48.495 10.448-2.495 16.996-9.356 18.712-21.051-1.559-20.583-10.448-33.837-29.939-36.177z"/></symbol><symbol id="sprite-pay-06" viewBox="0 0 1024 1024"><title>pay-06</title><path d="M1022.424 339.023l-.63-3.781c-.158-.63-.158-1.26-.315-1.733l-71.838-173.45V74.673H73.098v85.386L2.521 333.351c-.158.63-.315 1.418-.315 2.048l-.63 3.623C.473 345.324.001 351.625.001 358.084c0 46.316 25.836 86.646 63.961 107.284v483.958H960.04V465.368c38.124-20.638 63.961-60.967 63.961-107.284 0-6.459-.473-12.761-1.575-19.062zm-48.207-8.35H817.466l-18.905-126.661h123.983l51.673 126.661zM115.79 117.366h791.157v42.693H115.79v-42.693zm664.97 256l2.363 15.439-12.603 16.857c-15.124 20.165-38.282 31.665-63.33 31.665-25.206 0-48.207-11.5-63.33-31.665l-12.918-17.172-.788-15.124h150.607zm-152.813-42.693l-6.144-126.661h133.908l18.905 126.661H627.948zm-40.645 42.693l.788 15.439-12.603 16.857c-15.124 20.165-38.282 31.665-63.33 31.665-25.206 0-48.207-11.5-63.488-31.665l-12.918-17.329.788-14.966h150.764zm-148.716-42.693l6.459-126.661H579.11l6.144 126.661H438.586zm-188.731 0l18.59-126.661h133.75l-6.459 126.661H249.855zm143.833 42.693l-.788 15.596-12.446 16.699c-15.124 20.165-38.282 31.665-63.33 31.665s-48.207-11.5-63.33-31.665l-12.288-16.384 2.363-15.911h149.819zM101.296 204.012h123.983l-18.59 126.661H49.623l51.673-126.661zM44.11 373.366h156.278l-3.308 16.542-11.815 15.754c-15.124 20.165-38.282 31.665-63.488 31.665-38.439 0-70.577-27.569-77.666-63.961zm787.85 533.268H661.346V757.288h21.268c11.815 0 21.268-9.61 21.268-21.268 0-11.815-9.61-21.268-21.268-21.268h-21.268V565.406H831.96v341.228zm85.385 0h-42.693V522.713h-256v384.079h-512V479.075c5.041.63 10.082.945 15.281.945 39.857 0 75.303-19.22 97.516-48.837 22.213 29.617 57.659 48.837 97.516 48.837s75.303-19.22 97.516-48.837c22.213 29.617 57.659 48.837 97.516 48.837s75.303-19.22 97.516-48.837c22.213 29.617 57.659 48.837 97.516 48.837s75.303-19.22 97.516-48.837c22.213 29.617 57.659 48.837 97.516 48.837 5.199 0 10.24-.315 15.281-.945v427.559zm-15.281-469.307c-25.049 0-48.207-11.5-63.33-31.665l-12.446-16.542-2.363-15.754h155.963c-7.247 36.391-39.385 63.961-77.824 63.961z"/><path d="M149.345 522.713v298.693h426.614V522.713H149.345zm383.922 256H192.039V565.248h341.386v213.465z"/><path d="M490.574 672.059c-5.829 0-11.185 2.363-15.124 6.302l-42.693 42.693c-3.938 3.781-6.302 9.137-6.302 15.124 0 11.815 9.61 21.268 21.268 21.268 5.829 0 11.185-2.363 15.124-6.302l42.693-42.693c3.938-3.938 6.302-9.295 6.302-15.124 0-11.815-9.61-21.268-21.268-21.268zm0-85.386c-5.829 0-11.185 2.363-15.124 6.302L347.371 720.896c-3.781 3.781-6.302 9.295-6.302 15.124 0 11.815 9.61 21.268 21.268 21.268 5.829 0 11.185-2.363 15.124-6.302L505.54 623.065c3.938-3.781 6.302-9.295 6.302-15.124 0-11.658-9.61-21.268-21.268-21.268z"/></symbol><symbol id="sprite-pay-07" viewBox="0 0 1024 1024"><title>pay-07</title><path d="M822.913 521.101c-33.154 0-60.002 26.848-60.002 60.002s27.028 60.002 60.002 60.002c33.154 0 60.002-27.028 60.002-60.002s-27.028-60.002-60.002-60.002zm0 84.147c-13.334 0-23.964-10.811-23.964-23.964s10.811-23.964 23.964-23.964c13.153 0 23.964 10.811 23.964 23.964s-10.811 23.964-23.964 23.964z"/><path d="M969.945 458.035h-5.946V283.794c0-29.731-24.326-54.056-54.056-54.056h-69.012v-63.065c0-29.731-24.326-54.056-54.056-54.056H54.056C24.325 112.617 0 136.943 0 166.673v573.534c0 7.568 0 27.389 128.473 153.879 3.423 3.423 8.108 5.226 12.613 5.226.721 0 1.262-.36 1.982-.36 9.37 7.568 21.082 12.433 34.056 12.433h732.819c29.731 0 54.056-24.326 54.056-54.056V704.17h5.946c29.731 0 54.056-24.326 54.056-54.056V511.911c0-29.55-24.145-53.876-54.056-53.876zM36.038 738.405V166.853c0-9.911 8.108-18.019 18.019-18.019h732.819c9.911 0 18.019 8.108 18.019 18.019v63.065h-627.77c-29.731 0-54.056 24.326-54.056 54.056v553.893c-41.983-42.884-81.084-86.49-87.031-99.463zm891.924 119.104c0 9.911-8.108 18.019-18.019 18.019H177.124c-9.911 0-18.019-8.108-18.019-18.019V283.975c0-9.911 8.108-18.019 18.019-18.019h732.819c9.911 0 18.019 8.108 18.019 18.019v174.241H822.914c-67.931 0-123.067 55.137-123.067 123.067S754.984 704.35 822.914 704.35h105.048v153.159zm60.002-207.215c0 9.911-8.108 18.019-18.019 18.019H822.912c-48.109 0-87.031-39.101-87.031-87.031 0-48.109 39.101-87.031 87.031-87.031h147.033c9.911 0 18.019 8.108 18.019 18.019v138.023z"/><path d="M885.978 428.125c9.911 0 18.019-8.108 18.019-18.019V305.058c0-9.911-8.108-18.019-18.019-18.019s-18.019 8.108-18.019 18.019v105.048c0 9.911 7.929 18.019 18.019 18.019z"/></symbol><symbol id="sprite-pay-08" viewBox="0 0 1024 1024"><title>pay-08</title><path d="M77.955 155.1h129.504c8.442 0 15.267 6.826 15.267 15.267s-6.826 15.267-15.267 15.267H77.955c-26.224 0-47.419 21.374-47.419 47.419v29.098h962.928v-29.098c0-26.224-21.374-47.419-47.419-47.419H268.17c-8.442 0-15.267-6.826-15.267-15.267s6.826-15.267 15.267-15.267h677.875c42.928 0 77.954 35.026 77.954 77.954V614.74c0 8.442-6.826 15.267-15.267 15.267s-15.267-6.826-15.267-15.267V451.109H30.357v339.836c0 26.224 21.374 47.419 47.419 47.419h868.09c26.224 0 47.419-21.374 47.419-47.419V675.452c0-8.442 6.826-15.267 15.267-15.267s15.267 6.826 15.267 15.267v115.493c0 42.928-35.026 77.954-77.954 77.954H77.954C35.026 868.899 0 833.873 0 790.945V233.054C0 190.126 35.026 155.1 77.954 155.1zm915.508 265.654V292.687H30.355v128.067h963.108z"/><path d="M354.745 684.432c0 55.322-45.084 100.406-100.406 100.406-15.267 0-29.637-3.412-42.569-9.519-12.933 6.107-27.302 9.519-42.569 9.519-55.322 0-100.406-45.084-100.406-100.406s45.084-100.406 100.406-100.406c15.267 0 29.637 3.412 42.569 9.519 12.933-6.107 27.302-9.519 42.569-9.519 55.502 0 100.406 45.084 100.406 100.406zm-115.494 0c0-22.632-10.777-42.748-27.481-55.502-16.704 12.753-27.481 32.87-27.481 55.502s10.777 42.748 27.481 55.502c16.704-12.753 27.481-32.87 27.481-55.502zm-140.102 0c0 38.618 31.433 70.051 70.051 70.051 4.131 0 8.263-.359 12.214-1.078-17.064-17.962-27.481-42.21-27.481-68.973 0-26.583 10.418-50.832 27.481-68.973-3.951-.719-8.083-1.078-12.214-1.078-38.618.18-70.051 31.433-70.051 70.051zm155.19-69.87c-4.131 0-8.263.359-12.214 1.078 17.064 17.962 27.481 42.21 27.481 68.973 0 26.583-10.418 50.832-27.481 68.973 3.951.719 8.083 1.078 12.214 1.078 38.618 0 70.051-31.433 70.051-70.051 0-38.797-31.433-70.051-70.051-70.051zm673.385-75.799H816.721c-8.442 0-15.267-6.826-15.267-15.267s6.826-15.267 15.267-15.267h111.003c8.442 0 15.267 6.826 15.267 15.267s-6.826 15.267-15.267 15.267zm-454.432 0c-8.442 0-15.267-6.826-15.267-15.267s6.826-15.267 15.267-15.267h111.003c8.442 0 15.267 6.826 15.267 15.267s-6.826 15.267-15.267 15.267H473.292zm171.714 0c-8.442 0-15.267-6.826-15.267-15.267s6.826-15.267 15.267-15.267h111.003c8.442 0 15.267 6.826 15.267 15.267s-6.826 15.267-15.267 15.267H645.006zm-343.428-30.355h111.003c8.442 0 15.267 6.826 15.267 15.267s-6.826 15.267-15.267 15.267H301.578c-8.442 0-15.267-6.826-15.267-15.267s6.826-15.267 15.267-15.267zm626.146 176.563H579.806c-8.442 0-15.267-6.826-15.267-15.267s6.826-15.267 15.267-15.267h347.918c8.442 0 15.267 6.826 15.267 15.267s-6.826 15.267-15.267 15.267zm0 71.309H726.373c-8.442 0-15.267-6.826-15.267-15.267s6.826-15.267 15.267-15.267h201.351c8.442 0 15.267 6.826 15.267 15.267s-6.826 15.267-15.267 15.267z"/></symbol><symbol id="sprite-pay-09" viewBox="0 0 1024 1024"><title>pay-09</title><path d="M857.043 958.701L589.022 738.764h-368.64C98.838 738.764-.001 637.7-.001 513.632V290.578c0-124.216 98.838-225.28 220.383-225.28h583.234c121.544 0 220.383 101.064 220.383 225.28v223.054c0 104.478-70.048 193.67-166.957 218.453v226.616zm-636.66-829.44c-86.224 0-156.42 72.274-156.42 161.169v223.054c0 88.895 70.196 161.169 156.42 161.169h391.494l181.055 148.554V676.879l28.197-3.413c79.1-9.35 138.759-78.061 138.759-160.13V290.579c0-88.895-70.196-161.169-156.42-161.169l-583.085-.148z"/><path d="M182.391 439.875c11.427 6.975 35.024 15.137 53.426 15.137 18.699 0 26.565-6.53 26.565-16.77s-6.085-15.137-29.384-22.854c-41.257-13.802-57.136-36.211-56.691-59.956 0-37.101 31.759-65.15 81.178-65.15 23.3 0 44.077 5.343 56.246 11.427l-10.982 42.741c-8.904-4.897-26.119-11.427-43.186-11.427-15.137 0-23.597 6.085-23.597 16.325 0 9.35 7.717 14.247 32.204 22.854 37.843 13.06 53.871 32.204 54.168 61.588 0 37.101-29.384 64.408-86.372 64.408-26.119 0-49.271-5.639-64.408-13.802l10.834-44.522zM359.736 358.4c0-24.784-.742-46.006-1.632-63.666h52.239l2.82 26.861h1.187c8.608-12.614 26.119-31.314 60.401-31.314 25.674 0 46.006 13.06 54.613 33.837h.742c7.272-10.24 16.325-18.402 25.674-24.042 10.982-6.53 23.3-9.795 37.992-9.795 38.289 0 67.228 26.861 67.228 86.372v117.389h-60.401V385.557c0-28.939-9.35-45.709-29.384-45.709-14.247 0-24.487 9.795-28.494 21.667-1.632 4.452-2.374 10.982-2.374 15.879v116.647h-60.401v-111.75c0-25.229-8.904-42.444-28.494-42.444-15.879 0-25.229 12.318-28.939 22.409-2.078 4.897-2.374 10.537-2.374 15.434v116.202h-60.401V358.398zm350.089 81.475c11.427 6.975 35.024 15.137 53.426 15.137 18.699 0 26.565-6.53 26.565-16.77s-6.085-15.137-29.384-22.854c-41.257-13.802-57.136-36.211-56.691-59.956 0-37.101 31.759-65.15 81.178-65.15 23.3 0 44.077 5.343 56.246 11.427l-10.982 42.741c-8.904-4.897-26.119-11.427-43.186-11.427-15.137 0-23.597 6.085-23.597 16.325 0 9.35 7.717 14.247 32.204 22.854 37.843 13.06 53.871 32.204 54.168 61.588 0 37.101-29.384 64.408-86.372 64.408-26.119 0-49.419-5.639-64.408-13.802l10.834-44.522z"/></symbol><symbol id="sprite-pay-10" viewBox="0 0 1024 1024"><title>pay-10</title><path d="M851.946 186.024V99.953C851.946 44.77 807.176 0 751.993 0H392.091c-55.183 0-99.953 44.77-99.953 99.953v145.938h-30.021c-49.63 0-90.062 40.432-90.062 90.062v597.985c0 49.63 40.432 90.062 90.062 90.062h479.984c49.63 0 90.062-40.432 90.062-90.062V335.953c0-49.63-40.432-90.062-90.062-90.062H712.08v-60.042h139.865zM751.993 60.041c22.038 0 39.912 17.874 39.912 39.912v26.03h-79.998v-26.03c0-22.038 18.047-39.912 40.085-39.912zM352.005 99.952c0-22.038 17.874-39.912 39.912-39.912h268.278a99.64 99.64 0 00-8.33 39.912v263.94H352.004V99.952zm389.922 205.981c16.485 0 30.021 13.536 30.021 30.021v597.985c0 16.485-13.536 30.021-30.021 30.021H262.116c-16.485 0-30.021-13.536-30.021-30.021V335.954c0-16.485 13.536-30.021 30.021-30.021h30.021v118H712.08v-118h29.847z"/><path d="M291.964 483.975h419.943v60.042H291.964v-60.042zm162.077 119.909h95.962v60.042h-95.962v-60.042zm161.904 0h95.962v60.042h-95.962v-60.042zm-323.981 0h95.962v60.042h-95.962v-60.042zm162.077 119.909h95.962v60.042h-95.962v-60.042zm161.904 0h95.962v60.042h-95.962v-60.042zm-323.981 0h95.962v60.042h-95.962v-60.042zm162.077 120.083h95.962v60.042h-95.962v-60.042zm161.904 0h95.962v60.042h-95.962v-60.042zm-323.981 0h95.962v60.042h-95.962v-60.042z"/></symbol><symbol id="sprite-phone" viewBox="0 0 512 512"><title>phone</title><path d="M352 320c-32 32-32 64-64 64s-64-32-96-64-64-64-64-96 32-32 64-64S128 32 96 32 0 128 0 128c0 64 65.75 193.75 128 256s192 128 256 128c0 0 96-64 96-96s-96-128-128-96z"/></symbol><symbol id="sprite-qiwi" viewBox="0 0 1000 1000"><title>qiwi</title><path d="M967.9 984.1c-1.4-6.1-3.1-12.3-5.6-17.9-15.4-34.4-38.8-62.7-67.3-87-29.9-25.7-62.4-47.5-99.4-61.6-37.9-14.3-77.8-19.8-117.5-25.6-23.7-3.4-47.2-7.1-69-17.2-31.6-14.5-61.8-31.3-83.4-59.8-7.1-9.4-13.7-19.2-21-29.5-3.8 23.1.2 44.7 6.8 66.8-4.3 0-8 .4-11.6-.1-18.8-2.7-37.7-4.5-56.1-8.8-34.2-7.8-67-19.8-98-36.4-44.8-24-84.9-54.2-115-95.4-54.6-74.8-79.4-159.1-72.7-252 3.2-45.5 15.1-88.6 37.5-128.3 40.9-72.3 100.6-118.3 184.5-130 32.8-4.7 65.5-2.8 97.6 4.2 36.2 7.9 70.4 21.4 102.4 40.2 64.4 37.9 114.5 89.5 150.7 154.7 38.5 69.6 56.6 143.8 47.5 223.5-2.1 18.1-6.6 36-10.2 54.9-43.7-30.7-90.8-28.6-105.9-19.7 63.5-4 133.8 53.3 148.6 128.8 2.1-2.5 3.7-4.2 5.1-6 48-63.1 77.5-134 88-212.7 5.5-42.1 4.8-84.3-3.1-126.1-16.8-88.8-57.8-164.4-125-225.3C700.3 49.4 610.4 15.4 509.3 10.5c-41.9-2-83.1 2.6-123.9 12.3-46 11.1-89.2 28.7-129.7 53-58.1 34.8-106.8 79.7-145.2 135.9-46.2 67-72.5 141.1-77.6 222.4-3.5 54.8 3.8 108.3 22.1 160.3 26.3 74.7 70.6 135.4 136 180.5 52.1 35.8 109.5 58.9 170.8 72.6 33.4 7.5 67.3 11.7 101.6 12.1 35.6.4 71-2.1 105.7-11.1 19-4.8 38.2-9.4 57.5-12.1 45.3-6.3 90.3-1.5 134.4 9.5 43.1 10.8 83.1 29.2 118.8 55.8 31.6 23.6 61.5 49.2 80.1 85.2.9 1.5 3.6 2.1 5.4 3.1.9-2 3-4.2 2.6-5.9zM670.1 718.2c-.1 17.4 14.3 33.1 30.6 33.2 11.9.1 21.4-9.6 21.4-22.1.2-17.5-14.2-33.3-30.3-33.4-12.7-.1-21.6 9-21.7 22.3zm97.9-51.1c-2.1 1-4.2 6.6-3.4 9.2 3.1 10.4 7 20.6 11.7 30.4 1.5 3.3 6.7 8.6 9.9 7.3 5.5-2 5.5-5.9 5.5-9.9-2-14.3-4.3-26-14-34.4-2.3-2.1-7.3-3.7-9.7-2.6z"/></symbol><symbol id="sprite-separator" viewBox="0 0 744.987 99.765"><title>separator</title><defs><clipPath id="a" clipPathUnits="userSpaceOnUse"><path d="M0 74.824h558.74V0H0z"/></clipPath></defs><path fill="none" stroke="#936f62" stroke-linecap="round" stroke-miterlimit="10" stroke-width="5.333" d="M372.479 82.968l26.398-26.399-26.398-26.398-26.37 26.398 26.399 26.4"/><g clip-path="url(#a)" transform="matrix(1.33333 0 0 -1.33333 0 99.765)"><path fill="none" stroke="#936f62" stroke-linecap="round" stroke-miterlimit="10" stroke-width="4" d="M279.359 32.397l19.799 19.799-19.799 19.799-19.777-19.8z"/><path fill="#936f62" d="M218.117 33.91l-9.33-.04-24.596-.057c-10.178.018-22.052.04-34.774.061l-39.864.213-74.637.485L.99 34.91a1 1 0 000 2l33.926.338 74.637.485 39.864.213 34.774.061 24.596-.056 9.33-.04a2 2 0 000-4"/><path fill="none" stroke="#936f62" stroke-linecap="round" stroke-miterlimit="10" stroke-width="4" d="M340.623 35.91l-12.451-12.45-24.411 24.41 4.76 4.76 10.334-10.334-10.334-10.334-29.173 29.173-29.13-29.173-10.333 10.334 10.334 10.333 4.76-4.76-24.41-24.41-12.452 12.451"/><path fill="#936f62" d="M557.75 34.91l-33.926-.338-74.638-.485-39.863-.213-34.774-.06-24.597.055-9.329.041a2 2 0 000 4l9.33.041 24.596.056 34.774-.06 39.863-.214 74.638-.485 33.926-.338a1 1 0 000-2"/><path fill="none" stroke="#936f62" stroke-linecap="round" stroke-miterlimit="10" stroke-width="4" d="M279.37 25.766l11.47-11.47L279.37 2.83l-11.469 11.468z"/><path fill="none" stroke="#936f62" stroke-linecap="round" stroke-miterlimit="10" stroke-width="4" d="M349.735 24.996h-9.49L328.26 36.983 306.896 15.62 279.37 43.146 251.844 15.62 230.48 36.983l-11.987-11.987h-9.49"/></g></symbol><symbol id="sprite-user" viewBox="0 0 37 37"><title>user</title><path fill="#6a2d8b" d="M28.56 20.03c-2.33 3.29-5.96 5.41-10.06 5.41s-7.74-2.13-10.06-5.41c-1.61 1.26-2.66 3.21-2.66 5.41v4.63c0 3.83 3.11 6.94 6.94 6.94h11.56c3.83 0 6.94-3.11 6.94-6.94v-4.63c0-2.21-1.05-4.15-2.66-5.41zM18.5 23.12c5.75 0 10.41-5.18 10.41-11.56C28.91 5.18 24.25 0 18.5 0S8.09 5.18 8.09 11.56c0 6.39 4.66 11.56 10.41 11.56z"/></symbol></svg>