<?xml version="1.0" encoding="UTF-8" standalone="no"?>
<!-- Created with Inkscape (http://www.inkscape.org/) -->

<svg
   xmlns:dc="http://purl.org/dc/elements/1.1/"
   xmlns:cc="http://creativecommons.org/ns#"
   xmlns:rdf="http://www.w3.org/1999/02/22-rdf-syntax-ns#"
   xmlns:svg="http://www.w3.org/2000/svg"
   xmlns="http://www.w3.org/2000/svg"
   xmlns:sodipodi="http://sodipodi.sourceforge.net/DTD/sodipodi-0.dtd"
   xmlns:inkscape="http://www.inkscape.org/namespaces/inkscape"
   width="8.0311193mm"
   height="5.7865324mm"
   viewBox="0 0 8.0311191 5.7865325"
   version="1.1"
   id="svg8"
   inkscape:version="0.92.3 (2405546, 2018-03-11)"
   sodipodi:docname="arrow.svg">
  <defs
     id="defs2" />
  <sodipodi:namedview
     id="base"
     pagecolor="#ffffff"
     bordercolor="#666666"
     borderopacity="1.0"
     inkscape:pageopacity="0.0"
     inkscape:pageshadow="2"
     inkscape:zoom="5.6"
     inkscape:cx="29.463134"
     inkscape:cy="-16.141153"
     inkscape:document-units="mm"
     inkscape:current-layer="layer1"
     showgrid="false"
     inkscape:window-width="1920"
     inkscape:window-height="1027"
     inkscape:window-x="-8"
     inkscape:window-y="-8"
     inkscape:window-maximized="1" />
  <metadata
     id="metadata5">
    <rdf:RDF>
      <cc:Work
         rdf:about="">
        <dc:format>image/svg+xml</dc:format>
        <dc:type
           rdf:resource="http://purl.org/dc/dcmitype/StillImage" />
        <dc:title></dc:title>
      </cc:Work>
    </rdf:RDF>
  </metadata>
  <g
     inkscape:label="Layer 1"
     inkscape:groupmode="layer"
     id="layer1"
     transform="translate(-88.383281,-74.41038)">
    <g
       id="g826"
       transform="matrix(0.06159196,0,0,0.06159196,84.961793,75.4524)">
      <path
         d="m 133.59567,76.70975 c -1.29492,-0.40816 -3.58634,-2.75845 -3.94351,-4.04485 -0.42638,-1.53566 -0.34052,-3.5419 0.20274,-4.73737 0.5337,-1.17445 1.42792,-2.0524 19.94203,-19.57917 L 162.0944,36.706697 111.1341,36.574405 60.173805,36.442113 59.077754,35.855926 C 58.474927,35.533523 57.571309,34.790285 57.069715,34.204286 54.30198,30.97081 55.448354,26.087785 59.440808,24.104516 L 60.702972,23.47753 111.2702,23.345238 161.83744,23.212946 146.36489,8.5455974 c -8.50991,-8.06704298 -15.77069,-15.117865 -16.13508,-15.668494 -0.89411,-1.351093 -1.12386,-3.9737484 -0.49286,-5.6260134 0.50957,-1.334279 2.355,-3.169676 3.78979,-3.769166 0.54313,-0.226937 1.75405,-0.400044 2.79839,-0.400044 1.51414,0 2.09164,0.133315 3.25299,0.75095 1.95796,1.041288 45.024,41.875071 45.74202,43.371057 0.78524,1.636038 0.83173,3.720902 0.11987,5.375653 -0.5381,1.25085 -2.8536,3.532704 -22.53502,22.2075 -14.6104,13.86314 -22.38142,21.05638 -23.27127,21.54101 -1.1253,0.61287 -1.6337,0.72335 -3.22399,0.70059 -1.03841,-0.0149 -2.30473,-0.15835 -2.81406,-0.31889 z"
         id="path828"
         inkscape:connector-curvature="0" />
    </g>
  </g>
</svg>
