<svg xmlns="http://www.w3.org/2000/svg" viewBox="0 0 8.031 5.787"><path d="M4.807 5.767a.525.525 0 0 1-.243-.25.48.48 0 0 1 .013-.291c.032-.073.087-.127 1.228-1.206l.757-.717-3.139-.008-3.138-.008-.068-.037a.52.52 0 0 1-.123-.101c-.17-.2-.1-.5.146-.622l.077-.039 3.115-.008 3.114-.008-.953-.904A31.766 31.766 0 0 1 4.6.603a.441.441 0 0 1-.03-.346.513.513 0 0 1 .233-.232A.55.55 0 0 1 4.975 0c.093 0 .129.008.2.046.121.064 2.774 2.58 2.818 2.672.048.1.051.229.007.33-.033.078-.176.218-1.388 1.368-.9.854-1.378 1.297-1.433 1.327-.07.038-.1.045-.199.043a.794.794 0 0 1-.173-.02z"/></svg>