<?xml version="1.0" encoding="UTF-8" standalone="no"?>
<!-- Created with Inkscape (http://www.inkscape.org/) -->

<svg
   xmlns:dc="http://purl.org/dc/elements/1.1/"
   xmlns:cc="http://creativecommons.org/ns#"
   xmlns:rdf="http://www.w3.org/1999/02/22-rdf-syntax-ns#"
   xmlns:svg="http://www.w3.org/2000/svg"
   xmlns="http://www.w3.org/2000/svg"
   xmlns:sodipodi="http://sodipodi.sourceforge.net/DTD/sodipodi-0.dtd"
   xmlns:inkscape="http://www.inkscape.org/namespaces/inkscape"
   width="86.10009mm"
   height="74.888626mm"
   viewBox="0 0 86.100093 74.888627"
   version="1.1"
   id="svg8"
   inkscape:version="0.92.3 (2405546, 2018-03-11)"
   sodipodi:docname="cart.svg">
  <defs
     id="defs2" />
  <sodipodi:namedview
     id="base"
     pagecolor="#ffffff"
     bordercolor="#666666"
     borderopacity="1.0"
     inkscape:pageopacity="0.0"
     inkscape:pageshadow="2"
     inkscape:zoom="0.24748737"
     inkscape:cx="-444.45075"
     inkscape:cy="280.14868"
     inkscape:document-units="mm"
     inkscape:current-layer="g826"
     showgrid="false"
     inkscape:window-width="1920"
     inkscape:window-height="1027"
     inkscape:window-x="-8"
     inkscape:window-y="-8"
     inkscape:window-maximized="1" />
  <metadata
     id="metadata5">
    <rdf:RDF>
      <cc:Work
         rdf:about="">
        <dc:format>image/svg+xml</dc:format>
        <dc:type
           rdf:resource="http://purl.org/dc/dcmitype/StillImage" />
        <dc:title></dc:title>
      </cc:Work>
    </rdf:RDF>
  </metadata>
  <g
     inkscape:label="Layer 1"
     inkscape:groupmode="layer"
     id="layer1"
     transform="translate(-52.530418,-43.590583)">
    <g
       id="g826"
       transform="translate(18.520833,4.9136905)">
      <path
         d="m 65.298413,113.46429 c -1.450714,-0.21605 -3.383408,-1.18229 -4.52563,-2.26255 -2.472352,-2.33825 -3.037743,-6.06779 -1.355128,-8.93896 0.233646,-0.39869 0.538394,-0.81915 0.677214,-0.93436 0.469464,-0.38962 0.256281,-0.514 -0.880971,-0.514 -1.91332,0 -3.030815,-0.76404 -3.030815,-2.07219 0,-0.401507 0.764378,-2.599287 2.065822,-5.939768 2.097481,-5.383713 2.528554,-6.384845 2.753478,-6.394721 0.06912,-0.003 0.270301,-0.115082 0.447067,-0.248994 0.305015,-0.231071 -0.04369,-1.214873 -6.843297,-19.306803 L 47.441462,47.788617 41.531929,45.655563 c -3.250243,-1.173181 -6.154976,-2.282726 -6.454962,-2.465657 -1.531182,-0.933714 -1.388971,-3.238024 0.25941,-4.203353 1.057162,-0.619097 1.620188,-0.485249 8.614398,2.047905 3.626315,1.313374 6.749458,2.46677 6.940317,2.563104 0.944875,0.476914 1.263147,1.045215 2.606189,4.653549 l 1.352621,3.634074 31.767881,6.42e-4 c 31.182147,6.42e-4 31.778107,0.0069 32.322357,0.338732 0.30496,0.185947 0.68286,0.534034 0.83978,0.773527 0.70481,1.07567 0.79991,0.746339 -5.20235,18.017018 -3.10941,8.946874 -5.81531,16.699632 -6.01313,17.228352 -0.27687,0.739997 -0.52299,1.069381 -1.06908,1.43076 l -0.7094,0.469459 H 85.485222 64.184494 l -1.181203,3.020704 c -0.64966,1.661394 -1.207228,3.086328 -1.239037,3.166523 -0.03181,0.0802 9.941146,0.145812 22.162124,0.145812 24.647392,0 23.223822,-0.06669 23.958732,1.12241 0.43723,0.707466 0.44498,1.409647 0.0232,2.101375 -0.4986,0.817651 -1.3066,1.113921 -3.03793,1.113921 h -1.49082 l 0.57027,0.7471 c 2.32254,3.0427 1.86563,7.26844 -1.0655,9.85431 -3.657263,3.22645 -9.646155,2.67583 -12.528228,-1.15186 -1.011013,-1.34274 -1.46529,-2.72159 -1.455486,-4.41782 0.0092,-1.58901 0.382161,-2.76033 1.292997,-4.06059 l 0.680284,-0.97114 H 81.94227 73.010671 l 0.676892,0.99767 c 0.942403,1.389 1.273679,2.4602 1.274395,4.12081 0.002,4.71169 -4.586187,8.28757 -9.663545,7.53139 z m 2.565357,-4.33401 c 0.899021,-0.24964 1.943435,-1.23336 2.299596,-2.16595 0.815046,-2.13417 -0.911613,-4.41484 -3.34241,-4.41484 -2.1592,0 -3.697557,1.37512 -3.697557,3.3052 0,1.09301 0.385838,1.95129 1.152039,2.56266 1.056253,0.8428 2.259637,1.08189 3.588332,0.71293 z m 30.825634,-0.17434 c 0.985844,-0.44718 1.342196,-0.77261 1.775366,-1.62135 0.51599,-1.01102 0.37669,-2.47724 -0.31837,-3.35099 -0.821147,-1.03227 -1.827294,-1.46794 -3.224856,-1.39641 -1.438567,0.0736 -2.444937,0.69066 -3.05521,1.87321 -1.465815,2.84041 1.787257,5.87257 4.82307,4.49554 z M 73.707381,82.249069 v -2.776126 h -4.246649 -4.24665 l 0.184911,0.477146 c 0.101702,0.262431 0.522358,1.375051 0.934795,2.472488 0.412437,1.097438 0.804119,2.131978 0.870406,2.298979 0.10868,0.273807 0.434075,0.303639 3.311855,0.303639 h 3.191332 z m 18.218328,0 v -2.776126 h -6.333038 -6.333038 v 2.776126 2.776126 h 6.333038 6.333038 z m 12.057001,2.472487 c 0.0671,-0.167001 0.45983,-1.27962 0.87262,-2.472487 0.41279,-1.192867 0.804,-2.305486 0.86934,-2.472487 0.11115,-0.28407 -0.15079,-0.303639 -4.06395,-0.303639 h -4.182755 v 2.776126 2.776126 h 3.191335 c 2.87718,0 3.20335,-0.02989 3.31341,-0.303639 z M 73.707381,71.144563 v -3.29665 h -6.438356 c -6.061188,0 -6.431421,0.01778 -6.319988,0.303639 0.06511,0.167001 0.630608,1.650494 1.256679,3.29665 l 1.138308,2.993011 h 5.181679 5.181678 z m 18.218328,0 v -3.29665 h -6.333038 -6.333038 v 3.29665 3.29665 h 6.333038 6.333038 z m 16.765791,0.08675 c 0.59791,-1.717728 1.09126,-3.181702 1.09632,-3.253273 0.005,-0.07157 -2.76258,-0.130131 -6.15032,-0.130131 h -6.159535 v 3.180977 c 0,1.74954 0.05325,3.234205 0.118283,3.29926 0.06505,0.06505 2.343495,0.09759 5.063212,0.0723 l 4.94493,-0.04598 z M 73.707381,59.779795 v -2.86288 h -8.480194 -8.480193 l 1.062731,2.860695 1.06273,2.860696 7.417463,0.0022 7.417463,0.0022 z m 18.218328,0 v -2.86288 h -6.333038 -6.333038 v 2.86288 2.86288 h 6.333038 6.333038 z m 20.651551,0.216885 c 0.50518,-1.455298 0.95351,-2.743594 0.99629,-2.862881 0.0615,-0.171518 -1.61375,-0.216884 -8.0089,-0.216884 h -8.086685 v 2.86288 2.86288 h 7.090385 7.09039 z"
         id="path828"
         inkscape:connector-curvature="0" />
    </g>
  </g>
</svg>
