<svg xmlns="http://www.w3.org/2000/svg" viewBox="0 0 86.1 74.889"><path d="M31.289 74.787c-1.45-.216-3.384-1.182-4.526-2.262-2.472-2.338-3.038-6.068-1.355-8.94.234-.398.538-.818.677-.933.47-.39.257-.514-.88-.514-1.914 0-3.032-.765-3.032-2.073 0-.401.765-2.599 2.066-5.94 2.098-5.383 2.529-6.384 2.754-6.394.069-.003.27-.115.447-.25.305-.23-.044-1.214-6.843-19.306L13.432 9.112l-5.91-2.133c-3.25-1.174-6.155-2.283-6.455-2.466-1.53-.934-1.389-3.238.26-4.203 1.057-.62 1.62-.486 8.614 2.048 3.627 1.313 6.75 2.466 6.94 2.563.945.477 1.264 1.045 2.607 4.653l1.352 3.634h31.768c31.182.002 31.778.008 32.323.34.305.186.682.534.84.773.704 1.076.8.747-5.203 18.017-3.11 8.947-5.815 16.7-6.013 17.229-.277.74-.523 1.069-1.07 1.43l-.709.47H30.175l-1.181 3.02-1.24 3.167c-.031.08 9.942.146 22.163.146 24.647 0 23.224-.067 23.959 1.122.437.708.445 1.41.023 2.102-.499.817-1.307 1.114-3.038 1.114H69.37l.57.747c2.323 3.042 1.866 7.268-1.065 9.854-3.658 3.226-9.646 2.676-12.528-1.152-1.011-1.343-1.466-2.722-1.456-4.418.01-1.589.382-2.76 1.293-4.06l.68-.971H39.001l.677.997c.942 1.39 1.274 2.46 1.274 4.121.002 4.712-4.586 8.288-9.663 7.531zm2.565-4.334c.9-.25 1.944-1.233 2.3-2.166.815-2.134-.912-4.414-3.343-4.414-2.159 0-3.697 1.375-3.697 3.305 0 1.093.386 1.951 1.152 2.562 1.056.843 2.26 1.082 3.588.713zm30.826-.174c.986-.447 1.342-.773 1.775-1.621.516-1.011.377-2.478-.318-3.351-.821-1.033-1.827-1.468-3.225-1.397-1.439.074-2.445.691-3.055 1.874-1.466 2.84 1.787 5.872 4.823 4.495zM39.698 43.572v-2.776h-8.494l.185.477c.102.263.523 1.375.935 2.473.413 1.097.804 2.132.87 2.299.11.273.435.303 3.312.303h3.192zm18.218 0v-2.776H45.25v5.552h12.666zm12.057 2.473c.067-.167.46-1.28.873-2.473.413-1.193.804-2.305.87-2.472.11-.284-.152-.304-4.065-.304h-4.183v5.552h3.192c2.877 0 3.203-.03 3.313-.303zM39.698 32.468V29.17h-6.439c-6.06 0-6.431.018-6.32.304.066.167.631 1.65 1.257 3.296l1.138 2.993h10.364zm18.218 0V29.17H45.25v6.593h12.666zm16.766.086c.598-1.717 1.091-3.181 1.096-3.253.005-.071-2.762-.13-6.15-.13h-6.16v3.181c0 1.75.054 3.234.119 3.3.065.064 2.343.097 5.063.072l4.945-.046zM39.698 21.103V18.24h-16.96L23.8 21.1l1.063 2.861 7.417.003 7.418.002zm18.218 0V18.24H45.25v5.726h12.666zm20.652.217c.505-1.456.953-2.744.996-2.863.061-.172-1.614-.217-8.009-.217h-8.087v5.726H77.65z"/></svg>