<svg xmlns="http://www.w3.org/2000/svg" id="Слой_1" x="0" y="0" version="1.1" viewBox="0 0 43 44" xml:space="preserve"><style>.st0{fill:#6a2d8b}</style><path d="M25.38 28.17c2.6-1.12 4.65-2.65 6.15-4.58 1.5-1.93 2.26-4.03 2.26-6.31 0-2.28-.75-4.38-2.26-6.31-1.5-1.93-3.56-3.46-6.15-4.58-2.6-1.12-5.43-1.68-8.48-1.68-3.06 0-5.88.56-8.48 1.68-2.6 1.12-4.65 2.65-6.15 4.58C.75 12.91 0 15.01 0 17.28c0 1.95.57 3.78 1.7 5.5 1.14 1.72 2.7 3.17 4.68 4.35-.16.39-.32.75-.49 1.08-.17.33-.37.64-.6.95-.23.3-.41.54-.54.71-.13.17-.34.41-.62.72-.29.31-.47.52-.55.61 0-.02-.03.02-.1.11-.06.09-.1.13-.11.12-.01-.01-.04.03-.1.12-.06.09-.08.14-.08.14l-.06.12c-.02.05-.04.1-.05.15-.01.05-.01.1-.01.16s.01.11.02.16c.03.21.12.38.28.52.15.13.32.2.49.2h.07c.8-.11 1.49-.25 2.06-.39 2.46-.65 4.69-1.7 6.67-3.14 1.44.26 2.85.39 4.22.39 3.07 0 5.9-.56 8.5-1.69z" class="st0"/><path d="M41.3 29.08c1.14-1.71 1.7-3.55 1.7-5.51 0-2.01-.6-3.9-1.8-5.65-1.2-1.75-2.83-3.21-4.9-4.37.37 1.23.55 2.47.55 3.73 0 2.19-.54 4.27-1.61 6.24-1.07 1.96-2.61 3.7-4.61 5.2-1.86 1.38-3.97 2.43-6.34 3.17-2.35.74-4.82 1.11-7.4 1.11-.48 0-1.18-.03-2.11-.1 3.22 2.16 6.99 3.24 11.33 3.24 1.38 0 2.78-.13 4.22-.39 1.98 1.44 4.21 2.49 6.67 3.14.58.15 1.26.28 2.06.39.19.02.37-.04.53-.17.16-.13.26-.31.31-.54-.01-.1 0-.15.02-.16.02-.01.02-.06-.01-.16s-.05-.15-.05-.15l-.06-.12c-.02-.03-.04-.08-.08-.13a.443.443 0 0 0-.1-.12c-.02-.02-.06-.07-.11-.12-.05-.06-.08-.09-.1-.11-.08-.1-.26-.3-.55-.61-.29-.31-.5-.55-.62-.72-.13-.17-.31-.41-.54-.71-.23-.3-.43-.62-.6-.95-.17-.33-.33-.69-.49-1.08 1.99-1.19 3.55-2.64 4.69-4.35z" class="st0"/></svg>