<?xml version="1.0" encoding="utf-8"?>
<!-- Generator: Adobe Illustrator 23.0.1, SVG Export Plug-In . SVG Version: 6.00 Build 0)  -->
<svg version="1.1" id="Слой_1" xmlns="http://www.w3.org/2000/svg" xmlns:xlink="http://www.w3.org/1999/xlink" x="0px" y="0px"
	 viewBox="0 0 43 44" style="enable-background:new 0 0 43 44;" xml:space="preserve">
<style type="text/css">
	.st0{fill:#6A2D8B;}
</style>
<path class="st0" d="M25.38,28.17c2.6-1.12,4.65-2.65,6.15-4.58c1.5-1.93,2.26-4.03,2.26-6.31c0-2.28-0.75-4.38-2.26-6.31
	c-1.5-1.93-3.56-3.46-6.15-4.58c-2.6-1.12-5.43-1.68-8.48-1.68c-3.06,0-5.88,0.56-8.48,1.68c-2.6,1.12-4.65,2.65-6.15,4.58
	C0.75,12.91,0,15.01,0,17.28c0,1.95,0.57,3.78,1.7,5.5c1.14,1.72,2.7,3.17,4.68,4.35c-0.16,0.39-0.32,0.75-0.49,1.08
	c-0.17,0.33-0.37,0.64-0.6,0.95c-0.23,0.3-0.41,0.54-0.54,0.71c-0.13,0.17-0.34,0.41-0.62,0.72c-0.29,0.31-0.47,0.52-0.55,0.61
	c0-0.02-0.03,0.02-0.1,0.11c-0.06,0.09-0.1,0.13-0.11,0.12c-0.01-0.01-0.04,0.03-0.1,0.12c-0.06,0.09-0.08,0.14-0.08,0.14
	l-0.06,0.12c-0.02,0.05-0.04,0.1-0.05,0.15c-0.01,0.05-0.01,0.1-0.01,0.16c0,0.06,0.01,0.11,0.02,0.16
	c0.03,0.21,0.12,0.38,0.28,0.52C3.52,32.93,3.69,33,3.86,33h0.07c0.8-0.11,1.49-0.25,2.06-0.39c2.46-0.65,4.69-1.7,6.67-3.14
	c1.44,0.26,2.85,0.39,4.22,0.39C19.95,29.86,22.78,29.3,25.38,28.17z"/>
<path class="st0" d="M41.3,29.08c1.14-1.71,1.7-3.55,1.7-5.51c0-2.01-0.6-3.9-1.8-5.65c-1.2-1.75-2.83-3.21-4.9-4.37
	c0.37,1.23,0.55,2.47,0.55,3.73c0,2.19-0.54,4.27-1.61,6.24c-1.07,1.96-2.61,3.7-4.61,5.2c-1.86,1.38-3.97,2.43-6.34,3.17
	C21.94,32.63,19.47,33,16.89,33c-0.48,0-1.18-0.03-2.11-0.1c3.22,2.16,6.99,3.24,11.33,3.24c1.38,0,2.78-0.13,4.22-0.39
	c1.98,1.44,4.21,2.49,6.67,3.14c0.58,0.15,1.26,0.28,2.06,0.39c0.19,0.02,0.37-0.04,0.53-0.17c0.16-0.13,0.26-0.31,0.31-0.54
	c-0.01-0.1,0-0.15,0.02-0.16c0.02-0.01,0.02-0.06-0.01-0.16c-0.03-0.1-0.05-0.15-0.05-0.15l-0.06-0.12
	c-0.02-0.03-0.04-0.08-0.08-0.13c-0.04-0.06-0.07-0.1-0.1-0.12c-0.02-0.02-0.06-0.07-0.11-0.12c-0.05-0.06-0.08-0.09-0.1-0.11
	c-0.08-0.1-0.26-0.3-0.55-0.61c-0.29-0.31-0.5-0.55-0.62-0.72c-0.13-0.17-0.31-0.41-0.54-0.71c-0.23-0.3-0.43-0.62-0.6-0.95
	c-0.17-0.33-0.33-0.69-0.49-1.08C38.6,32.24,40.16,30.79,41.3,29.08z"/>
</svg>
