<svg xmlns="http://www.w3.org/2000/svg" viewBox="0 0 1024 1024"><path d="M963.116 621.733l-71.687-140.814c-3.38-6.759-10.343-10.958-17.819-10.958H150.389c-7.578 0-14.44 4.199-17.819 10.958L60.883 621.733c-3.175 6.247-2.867 13.621.819 19.56s10.139 9.524 17.103 9.524h24.988v353.213a19.93 19.93 0 0 0 19.97 19.97h776.474c11.06 0 19.97-9.012 19.97-19.97V650.817h24.988c6.964 0 13.416-3.584 17.103-9.524s3.994-13.313.819-19.56zM861.32 510.003l51.308 100.772H595.976l-51.308-100.772zm-698.642 0H479.33l-51.308 100.772H111.37zM880.164 984.06H531.969V873.15c0-11.06-8.91-19.97-19.97-19.97s-19.97 9.012-19.97 19.97v110.91H143.834V650.817h296.478c7.578 0 14.44-4.199 17.819-10.958l33.795-66.464V693.42c0 11.06 8.91 19.97 19.97 19.97s19.97-9.012 19.97-19.97V573.498l33.795 66.464c3.38 6.759 10.343 10.958 17.819 10.958h296.478v333.141z"/><path d="M340.871 874.481H226.888c-11.06 0-19.97 9.012-19.97 19.97a19.93 19.93 0 0 0 19.97 19.97h113.983c11.06 0 19.97-9.012 19.97-19.97s-8.91-19.97-19.97-19.97zM511.999 411.177c113.266 0 205.333-92.272 205.333-205.64S625.265 0 511.999 0 306.564 92.169 306.564 205.537s92.169 205.64 205.435 205.64zm0-371.135c91.145 0 165.29 74.247 165.29 165.495 0 91.35-74.145 165.597-165.29 165.597-91.248 0-165.393-74.247-165.393-165.597 0-91.248 74.145-165.495 165.393-165.495z"/><path d="M422.287 235.544l53.253 45.163c3.584 3.072 8.193 4.711 12.904 4.711.614 0 1.127 0 1.741-.102a19.614 19.614 0 0 0 13.621-7.066l100.26-119.82c7.066-8.5 5.94-21.097-2.458-28.163-8.5-7.066-21.097-5.94-28.163 2.458l-87.356 104.356-37.892-32.157c-8.398-7.169-21.097-6.145-28.163 2.355-7.271 8.5-6.145 21.199 2.253 28.265zM118.846 225.61h86.537c11.06 0 19.97-9.012 19.97-19.97a19.93 19.93 0 0 0-19.97-19.97h-86.537c-11.06 0-19.97 9.012-19.97 19.97s8.91 19.97 19.97 19.97zM109.527 86.332l86.537 45.675c2.97 1.536 6.145 2.355 9.319 2.355 7.169 0 14.133-3.892 17.717-10.651 5.121-9.729 1.434-21.916-8.398-27.036L128.165 51c-9.729-5.121-21.916-1.434-27.036 8.398-5.121 9.627-1.331 21.813 8.398 26.934zM101.129 351.779c3.584 6.759 10.548 10.651 17.717 10.651 3.175 0 6.349-.717 9.319-2.355l86.537-45.573c9.729-5.121 13.518-17.205 8.398-27.036-5.121-9.729-17.205-13.518-27.036-8.398l-86.537 45.573c-9.729 5.325-13.518 17.41-8.398 27.139zM818.513 225.61h86.537c11.06 0 19.97-9.012 19.97-19.97a19.93 19.93 0 0 0-19.97-19.97h-86.537c-11.06 0-19.97 9.012-19.97 19.97-.102 10.958 8.91 19.97 19.97 19.97zM818.513 134.26c3.175 0 6.349-.717 9.319-2.355l86.537-45.675c9.729-5.121 13.518-17.307 8.398-27.036s-17.307-13.518-27.036-8.398l-86.537 45.675c-9.729 5.121-13.518 17.307-8.398 27.036 3.584 6.964 10.548 10.753 17.717 10.753zM809.193 314.604l86.537 45.573c2.97 1.536 6.145 2.355 9.319 2.355 7.169 0 14.133-3.892 17.717-10.651 5.121-9.729 1.434-21.916-8.398-27.036l-86.537-45.573c-9.831-5.121-21.916-1.434-27.036 8.398-5.121 9.627-1.434 21.813 8.398 26.934zM511.999 763.264c-11.06 0-19.97 9.012-19.97 19.97v.102c0 11.06 8.91 19.97 19.97 19.97s19.97-9.012 19.97-20.072c0-10.958-8.91-19.97-19.97-19.97z"/></svg>