<!-- Generated by IcoMoon.io -->
<svg version="1.1" xmlns="http://www.w3.org/2000/svg" width="1024" height="1024" viewBox="0 0 1024 1024">
<title></title>
<g id="icomoon-ignore">
</g>
<path d="M963.116 621.733l-71.687-140.814c-3.38-6.759-10.343-10.958-17.819-10.958h-723.221c-7.578 0-14.44 4.199-17.819 10.958l-71.687 140.814c-3.175 6.247-2.867 13.621 0.819 19.56s10.139 9.524 17.103 9.524h24.988v353.213c0 11.060 8.91 19.97 19.97 19.97h776.474c11.060 0 19.97-9.012 19.97-19.97v-353.213h24.988c6.964 0 13.416-3.584 17.103-9.524s3.994-13.313 0.819-19.56zM861.32 510.003l51.308 100.772h-316.652l-51.308-100.772zM162.678 510.003h316.652l-51.308 100.772h-316.652zM880.164 984.060h-348.195v-110.91c0-11.060-8.91-19.97-19.97-19.97s-19.97 9.012-19.97 19.97v110.91h-348.195v-333.243h296.478c7.578 0 14.44-4.199 17.819-10.958l33.795-66.464v120.025c0 11.060 8.91 19.97 19.97 19.97s19.97-9.012 19.97-19.97v-119.922l33.795 66.464c3.38 6.759 10.343 10.958 17.819 10.958h296.478v333.141z"></path>
<path d="M340.871 874.481h-113.983c-11.060 0-19.97 9.012-19.97 19.97 0 11.060 8.91 19.97 19.97 19.97h113.983c11.060 0 19.97-9.012 19.97-19.97s-8.91-19.97-19.97-19.97z"></path>
<path d="M511.999 411.177c113.266 0 205.333-92.272 205.333-205.64s-92.067-205.537-205.333-205.537c-113.266 0-205.435 92.169-205.435 205.537s92.169 205.64 205.435 205.64zM511.999 40.042c91.145 0 165.29 74.247 165.29 165.495 0 91.35-74.145 165.597-165.29 165.597-91.248 0-165.393-74.247-165.393-165.597 0-91.248 74.145-165.495 165.393-165.495z"></path>
<path d="M422.287 235.544l53.253 45.163c3.584 3.072 8.193 4.711 12.904 4.711 0.614 0 1.127 0 1.741-0.102 5.325-0.41 10.241-2.97 13.621-7.066l100.26-119.82c7.066-8.5 5.94-21.097-2.458-28.163-8.5-7.066-21.097-5.94-28.163 2.458l-87.356 104.356-37.892-32.157c-8.398-7.169-21.097-6.145-28.163 2.355-7.271 8.5-6.145 21.199 2.253 28.265z"></path>
<path d="M118.846 225.61h86.537c11.060 0 19.97-9.012 19.97-19.97 0-11.060-8.91-19.97-19.97-19.97h-86.537c-11.060 0-19.97 9.012-19.97 19.97s8.91 19.97 19.97 19.97z"></path>
<path d="M109.527 86.332l86.537 45.675c2.97 1.536 6.145 2.355 9.319 2.355 7.169 0 14.133-3.892 17.717-10.651 5.121-9.729 1.434-21.916-8.398-27.036l-86.537-45.675c-9.729-5.121-21.916-1.434-27.036 8.398-5.121 9.627-1.331 21.813 8.398 26.934z"></path>
<path d="M101.129 351.779c3.584 6.759 10.548 10.651 17.717 10.651 3.175 0 6.349-0.717 9.319-2.355l86.537-45.573c9.729-5.121 13.518-17.205 8.398-27.036-5.121-9.729-17.205-13.518-27.036-8.398l-86.537 45.573c-9.729 5.325-13.518 17.41-8.398 27.139z"></path>
<path d="M818.513 225.61h86.537c11.060 0 19.97-9.012 19.97-19.97 0-11.060-8.91-19.97-19.97-19.97h-86.537c-11.060 0-19.97 9.012-19.97 19.97-0.102 10.958 8.91 19.97 19.97 19.97z"></path>
<path d="M818.513 134.26c3.175 0 6.349-0.717 9.319-2.355l86.537-45.675c9.729-5.121 13.518-17.307 8.398-27.036s-17.307-13.518-27.036-8.398l-86.537 45.675c-9.729 5.121-13.518 17.307-8.398 27.036 3.584 6.964 10.548 10.753 17.717 10.753z"></path>
<path d="M809.193 314.604l86.537 45.573c2.97 1.536 6.145 2.355 9.319 2.355 7.169 0 14.133-3.892 17.717-10.651 5.121-9.729 1.434-21.916-8.398-27.036l-86.537-45.573c-9.831-5.121-21.916-1.434-27.036 8.398-5.121 9.627-1.434 21.813 8.398 26.934z"></path>
<path d="M511.999 763.264c-11.060 0-19.97 9.012-19.97 19.97v0.102c0 11.060 8.91 19.97 19.97 19.97s19.97-9.012 19.97-20.072c0-10.958-8.91-19.97-19.97-19.97z"></path>
</svg>
