<svg xmlns="http://www.w3.org/2000/svg" viewBox="0 0 1024 1024"><path d="M901.582 563.683l-22.879-116.514c-6.274-32.75-17.067-57.657-33.119-76.384-20.572-24.078-49.539-36.809-83.673-36.809H627.96v-160.15c0-22.048-17.897-40.037-40.037-40.037s-40.037 17.897-40.037 40.037v388.198H200.002c-22.048 0-40.037 17.897-40.037 40.037 0 22.048 17.897 40.037 40.037 40.037h679.992c1.477 0 2.86-.092 4.243-.185 34.134 7.472 59.779 37.916 59.779 74.263V819.96h-86.901c-16.513-46.588-60.979-79.982-113.101-79.982s-96.588 33.488-113.101 79.982h-247.79c-16.513-46.588-60.979-79.982-113.101-79.982s-96.588 33.396-113.101 79.89c-42.713-1.661-76.938-36.809-76.938-79.89V451.966c0-22.048-17.897-40.037-40.037-40.037S.001 429.918.001 451.966v288.012c0 87.178 70.112 158.212 156.829 159.965 16.513 46.588 60.979 80.074 113.193 80.074 52.123 0 96.588-33.396 113.101-79.982h247.79c16.513 46.588 60.979 79.982 113.101 79.982s96.588-33.396 113.101-79.982h126.847c22.048 0 40.037-17.897 40.037-40.037V715.993c0-74.448-52.492-136.902-122.418-152.309zM627.963 413.958h134.043c12.177 0 28.967 0 38.193 48.247v.185l19.557 99.54H627.963zm-357.94 486.077c-22.048 0-40.037-17.897-40.037-40.037 0-22.048 17.989-40.037 40.037-40.037s40.037 17.989 40.037 40.037c-.092 22.048-17.989 40.037-40.037 40.037zm473.993 0c-22.048 0-40.037-17.897-40.037-40.037 0-22.048 17.989-40.037 40.037-40.037s40.037 17.989 40.037 40.037c-.092 22.048-17.989 40.037-40.037 40.037zM12.179 272.995c-15.776-15.407-16.143-40.775-.738-56.551s40.775-16.143 56.551-.645l129.246 126.108a23.621 23.621 0 0 0 17.805 6.366c3.782-.277 10.794-1.661 16.42-8.118L431.466 60.723c12.823-17.989 37.824-22.14 55.813-9.225 17.989 12.823 22.14 37.824 9.225 55.813L295.671 387.757a29.93 29.93 0 0 1-1.384 1.754c-18.174 22.602-45.111 36.624-73.986 38.562-2.306.185-4.613.185-6.827.185-26.477 0-52.308-10.24-71.587-28.599-.092-.092-.277-.185-.369-.369z"/></svg>