<!-- Generated by IcoMoon.io -->
<svg version="1.1" xmlns="http://www.w3.org/2000/svg" width="1024" height="1024" viewBox="0 0 1024 1024">
<title></title>
<g id="icomoon-ignore">
</g>
<path d="M994.525 252.441l28.395-75.789c1.267-3.484 1.478-7.389 0.317-10.978-1.056-3.589-3.378-6.755-6.439-8.867-3.061-2.217-6.755-3.273-10.556-3.167s-7.389 1.478-10.239 3.906l-273.389 225.149c-7.494 6.227-12.984 14.355-16.044 23.538s-3.378 19.106-0.95 28.5c1.584 6.016 3.273 12.667 4.855 19 1.267 4.75 0.95 9.817-0.845 14.461s-4.961 8.55-9.078 11.295l-0.633 0.422c-4.328 2.956-9.606 4.223-14.883 3.8s-10.133-2.639-14.038-6.227l-40.639-57.845-9.711-48.767c-1.689-8.233-1.689-16.783-0.106-25.016s4.855-16.15 9.606-23.116c7.917-11.823 19.528-20.795 33.144-25.333 5.7-1.9 11.717-2.745 17.733-2.217 6.016 0.422 11.928 2.006 17.311 4.75l44.967 22.484c2.956 1.478 6.227 2.006 9.394 1.689 3.273-0.317 6.333-1.584 8.867-3.695 2.534-2.006 4.434-4.75 5.488-7.811s1.161-6.439 0.422-9.606l-10.978-43.805c-3.589-14.25-11.4-27.022-22.484-36.733l13.617-67.767c1.584-8.128 0.211-16.678-4.012-23.855s-10.872-12.667-18.789-15.305l-22.906-7.705-0.211-0.106c-0.739-0.211-1.478-0.422-2.111-0.633v-21.745c0-4.539-1.795-8.867-4.961-12.034s-7.494-4.961-12.034-4.961c-4.539 0-8.867 1.795-12.034 4.961s-4.961 7.494-4.961 12.034v21.85c-0.739 0.211-1.478 0.317-2.111 0.633l-0.211 0.106-22.8 7.705c-7.917 2.639-14.566 8.128-18.789 15.305s-5.594 15.727-4.012 23.855l10.978 54.678c-8.55 2.111-16.889 4.855-25.016 8.233l-21.639-32.405 21.323-63.967c4.117-12.35 3.378-25.861-2.111-37.683s-15.305-21.111-27.444-25.966l-44.755-17.839v-22.695c0-4.539-1.795-8.867-4.961-12.034-3.167-3.273-7.494-5.066-12.034-5.066s-8.867 1.795-12.034 4.961c-3.167 3.167-4.961 7.494-4.961 12.034v22.589l-44.755 17.839c-12.139 4.855-21.956 14.144-27.444 25.966s-6.227 25.333-2.111 37.683l21.323 63.967-21.639 32.405c-8.128-3.378-16.466-6.227-25.016-8.233l10.978-54.678c1.584-8.128 0.211-16.678-4.012-23.855s-10.872-12.667-18.789-15.305l-22.906-7.705-0.211-0.106c-0.739-0.211-1.478-0.422-2.111-0.633v-21.639c0-4.539-1.795-8.867-4.961-12.034s-7.494-4.961-12.034-4.961c-4.539 0-8.867 1.795-12.034 4.961s-4.961 7.494-4.961 12.034v21.85c-0.739 0.211-1.478 0.317-2.111 0.633l-0.211 0.106-22.8 7.705c-7.917 2.639-14.566 8.128-18.789 15.305s-5.594 15.727-4.012 23.855l13.617 67.767c-11.084 9.606-18.894 22.484-22.484 36.733l-10.978 43.805c-0.739 3.167-0.633 6.544 0.422 9.606s2.956 5.805 5.488 7.917c2.534 2.006 5.594 3.273 8.867 3.695 3.273 0.317 6.544-0.211 9.394-1.689l44.967-22.484c5.383-2.745 11.295-4.328 17.311-4.75s12.034 0.317 17.733 2.217c13.512 4.539 25.122 13.406 33.144 25.333 4.644 6.966 7.917 14.883 9.606 23.116 1.584 8.233 1.584 16.783-0.106 25.016l-9.711 48.767-40.639 57.845c-3.8 3.589-8.761 5.805-14.038 6.227s-10.45-0.95-14.883-3.8l-0.633-0.422c-4.117-2.745-7.283-6.65-9.078-11.295s-2.006-9.711-0.845-14.461c1.689-6.333 3.378-12.984 4.855-19 2.322-9.394 2.006-19.317-0.95-28.5-3.061-9.183-8.55-17.417-16.044-23.538l-273.494-225.361c-2.85-2.428-6.544-3.8-10.239-3.906-3.8-0.106-7.494 0.95-10.556 3.167s-5.277 5.277-6.439 8.867c-1.056 3.589-0.95 7.494 0.317 10.978l28.395 75.789c15.939 42.539 42.75 80.222 77.689 109.355l7.811 6.544-78.744-9.817c-3.273-0.422-6.544 0.106-9.5 1.584-2.956 1.372-5.383 3.589-7.178 6.439-1.689 2.745-2.639 6.016-2.534 9.289s1.056 6.439 2.85 9.183c24.066 36.311 59.112 64.072 99.961 79.272l12.139 4.539-82.65 9.183c-3.589 0.422-6.861 1.9-9.5 4.328s-4.539 5.594-5.277 9.078c-0.739 3.484-0.422 7.178 1.056 10.45 1.372 3.273 3.8 6.016 6.861 7.917l29.872 17.944c35.783 21.534 75.156 36.628 116.216 44.439-26.072 17.944-48.556 40.745-66.184 67.028-1.689 2.534-2.745 5.594-2.85 8.655s0.528 6.122 2.006 8.867c1.478 2.745 3.589 4.961 6.333 6.544 2.639 1.584 5.7 2.428 8.761 2.428h6.755c33.144 0 65.867-7.389 95.634-21.85v38.95c0 3.378 0.95 6.65 2.85 9.5s4.539 4.961 7.705 6.333c3.167 1.267 6.544 1.584 9.817 0.95s6.333-2.322 8.761-4.644l39.161-39.161 22.062 22.062c1.795 1.795 3.906 3.167 6.333 4.012s4.961 1.161 7.389 0.95c2.534-0.211 4.961-1.056 7.072-2.322 2.217-1.267 4.012-3.061 5.383-5.172l15.2-22.8c5.277-7.917 12.878-14.038 21.85-17.628v2.534c0 13.617-5.383 26.6-14.989 36.205l-12.139 12.139c-13.089 12.984-23.433 28.5-30.506 45.6s-10.661 35.361-10.661 53.833c0 4.223 1.584 8.233 4.328 11.4s6.65 5.066 10.767 5.594l-9.817 19.633-21.323 5.383-43.594-48.661c5.911-9.394 8.55-20.372 7.705-31.35s-5.383-21.428-12.667-29.767c-7.283-8.233-17.1-13.933-27.972-16.255-10.872-2.217-22.062-0.95-32.089 3.8s-18.261 12.561-23.433 22.273c-5.172 9.817-7.072 20.9-5.383 31.878s6.861 21.006 14.777 28.711c7.917 7.705 18.156 12.667 29.133 14.144 2.217 0.317 4.434 0.422 6.65 0.422 5.594 0 11.084-0.95 16.361-2.745l33.038 36.944-1.9 0.528c-2.217 0.528-4.223 1.478-6.016 2.85s-3.273 3.061-4.434 4.961c-2.322 3.906-3.061 8.55-1.9 12.878s3.906 8.128 7.811 10.45c3.906 2.322 8.55 3.061 12.878 1.9l19.422-4.855 14.989 16.572c1.478 1.689 3.273 3.061 5.383 4.012s4.223 1.478 6.439 1.584c2.217 0.106 4.434-0.211 6.544-0.95s4.012-1.9 5.7-3.378c1.689-1.478 3.061-3.273 4.012-5.383 0.95-2.006 1.478-4.223 1.689-6.439 0.106-2.217-0.211-4.434-0.95-6.544s-1.9-4.012-3.378-5.7l-2.85-3.167 11.4-2.85c2.428-0.633 4.644-1.689 6.544-3.273s3.484-3.484 4.539-5.7l20.9-41.8h15.094c3.167 0 6.227-0.845 8.972-2.534s4.855-4.012 6.333-6.861c7.072-14.355 17.628-26.6 30.717-35.889l4.75 7.072-40.217 70.405c-18.156 31.667-27.656 67.556-27.656 104.078 0 4.539 1.795 8.867 4.961 12.034s7.494 4.961 12.034 4.961c4.539 0 8.867-1.795 12.034-4.961s4.961-7.494 4.961-12.034c0-30.611 8.022-60.588 23.116-87.188l23.327-40.745-2.006 5.066c-18.367 45.811-21.85 96.267-9.817 144.083 0.528 2.217 1.478 4.223 2.85 6.016s2.956 3.378 4.961 4.539c1.9 1.161 4.012 1.9 6.333 2.217 2.217 0.317 4.539 0.211 6.65-0.317 2.217-0.528 4.223-1.478 6.016-2.85s3.378-3.061 4.434-4.961c1.161-1.9 1.9-4.117 2.217-6.333s0.211-4.539-0.317-6.65c-10.345-40.85-7.389-84.022 8.339-123.078l0.211-0.528 8.972 13.512v165.511c0 4.539 1.795 8.867 4.961 12.034s7.705 5.066 12.245 5.066c4.539 0 8.867-1.795 12.034-4.961s4.961-7.494 4.961-12.034v-165.511l8.972-13.512 0.211 0.528c15.727 39.161 18.683 82.228 8.339 123.078-0.528 2.217-0.633 4.434-0.317 6.65s1.056 4.328 2.217 6.333c1.161 1.9 2.639 3.589 4.434 4.961s3.906 2.322 6.016 2.85c2.217 0.528 4.434 0.633 6.65 0.317s4.328-1.056 6.333-2.217c1.9-1.161 3.589-2.639 4.961-4.539 1.372-1.795 2.322-3.906 2.85-6.016 12.034-47.817 8.655-98.272-9.817-144.083l-2.006-5.172 23.327 40.745c15.2 26.6 23.116 56.578 23.116 87.188 0 4.539 1.795 8.867 4.961 12.034s7.494 4.961 12.034 4.961c4.539 0 8.867-1.795 12.034-4.961s4.961-7.494 4.961-12.034c0-36.522-9.5-72.411-27.656-104.078l-40.006-70.405 4.855-7.283c13.089 9.183 23.644 21.534 30.717 35.889 1.372 2.85 3.589 5.172 6.333 6.861s5.805 2.534 8.972 2.534h15.094l20.9 41.8c1.056 2.217 2.639 4.117 4.539 5.7s4.117 2.639 6.544 3.273l44.122 11.084c4.644 10.556 11.928 19.739 21.217 26.811 9.183 6.966 20.056 11.506 31.456 13.195s23.116 0.317 33.883-3.695c10.767-4.117 20.372-10.872 27.867-19.739s12.561-19.422 14.883-30.717c2.322-11.295 1.584-23.011-1.9-34.094-3.484-10.978-9.711-21.006-18.156-28.922s-18.683-13.617-29.872-16.466v-19.211c0-4.539-1.795-8.867-4.961-12.034s-7.494-4.961-12.034-4.961c-4.539 0-8.867 1.795-12.034 4.961s-4.961 7.494-4.961 12.034v19.211c-13.195 3.378-25.016 10.661-33.989 20.9s-14.777 22.8-16.572 36.311l-23.011-5.805-9.817-19.633c4.117-0.528 8.022-2.428 10.767-5.594s4.328-7.178 4.328-11.4c0.106-18.472-3.589-36.733-10.661-53.833s-17.417-32.616-30.506-45.6l-12.139-12.139c-9.606-9.606-14.989-22.695-14.989-36.205v-2.534c8.867 3.484 16.466 9.606 21.85 17.628l15.2 22.8c1.372 2.111 3.273 3.906 5.383 5.172 2.217 1.267 4.539 2.111 7.072 2.322s5.066-0.106 7.389-0.95c2.428-0.845 4.539-2.217 6.333-4.012l22.062-22.062 39.161 39.161c2.428 2.428 5.383 4.012 8.761 4.644 3.273 0.633 6.755 0.317 9.817-0.95 3.167-1.267 5.805-3.484 7.705-6.333s2.85-6.122 2.85-9.5v-38.95c29.872 14.355 62.489 21.85 95.634 21.85h6.755c3.061 0 6.122-0.845 8.761-2.428s4.855-3.906 6.227-6.544c1.478-2.745 2.111-5.805 2.006-8.867s-1.161-6.122-2.85-8.655c-17.628-26.389-40.006-49.084-66.184-67.028 41.062-7.917 80.327-22.906 116.111-44.439l29.872-17.944c3.061-1.795 5.488-4.539 6.861-7.917 1.372-3.273 1.795-6.966 1.056-10.45s-2.639-6.65-5.277-9.078c-2.639-2.428-6.016-3.906-9.5-4.328l-82.65-9.183 12.139-4.539c40.85-15.2 75.789-42.961 99.961-79.272 1.795-2.745 2.85-5.911 2.85-9.183 0.106-3.273-0.845-6.439-2.534-9.289-1.689-2.745-4.223-4.961-7.178-6.439-2.956-1.372-6.227-1.9-9.5-1.584l-78.744 9.817 7.811-6.544c35.044-28.922 61.75-66.711 77.795-109.25zM219.326 767.868c-4.328-0.528-8.233-2.745-10.978-6.122s-4.117-7.6-3.8-11.928c0.317-4.328 2.217-8.339 5.383-11.295s7.283-4.644 11.611-4.644c3.484 0 6.966 1.056 9.817 3.061s5.066 4.855 6.227 8.233c1.161 3.273 1.267 6.966 0.317 10.345s-2.956 6.439-5.7 8.655c-0.317 0.211-0.633 0.422-0.95 0.739-3.484 2.428-7.705 3.484-11.928 2.956zM785.103 870.363c-6.016 0-11.823-1.584-16.994-4.539s-9.5-7.283-12.456-12.456h59.006c-2.956 5.172-7.283 9.5-12.456 12.456-5.277 2.956-11.189 4.539-17.1 4.539zM814.553 819.169h-12.456v-12.456c5.172 2.956 9.5 7.283 12.456 12.456zM768.003 806.713v12.456h-12.456c3.061-5.172 7.283-9.5 12.456-12.456zM426.742 443.707h170.683v197.283c0 3.589-1.161 7.072-3.167 10.028-2.111 2.956-5.066 5.066-8.444 6.227l-73.678 24.594-73.678-24.594c-3.378-1.161-6.333-3.273-8.444-6.227s-3.273-6.439-3.167-10.028v-197.283zM713.642 269.541c-9.394-4.75-19.633-7.6-30.084-8.339s-21.006 0.633-31.034 3.906c-20.689 6.966-38.528 20.584-50.666 38.739-7.178 10.767-12.139 22.8-14.672 35.467s-2.428 25.755 0.106 38.317l6.333 31.878h-61.855l8.655-60.8c4.328-30.506 19.528-58.373 42.855-78.533 23.222-20.161 52.989-31.245 83.811-31.245h19.739c8.444 0 16.572 2.85 23.222 8.022s11.4 12.456 13.406 20.584l1.9 7.811zM651.259 147.941l22.695-7.6c5.7-1.795 11.717-1.795 17.311 0l22.906 7.705-11.717 58.584c-5.172-1.161-10.45-1.795-15.727-1.795h-19.739c-1.478 0-2.956 0-4.434 0.106zM462.948 89.252l49.084-19.633 49.084 19.633c4.012 1.584 7.283 4.75 9.183 8.655 1.795 3.906 2.111 8.444 0.739 12.561l-20.056 60.166h-77.795l-20.056-60.166c-1.372-4.117-1.161-8.655 0.739-12.561 1.795-3.906 5.066-7.072 9.078-8.655zM470.021 204.835h84.128l19.633 29.45c-29.45 20.795-51.194 50.877-61.75 85.395-10.556-34.516-32.194-64.6-61.75-85.395zM332.693 140.342c5.7-1.795 11.717-1.795 17.311 0l22.906 7.705-11.4 56.789c-1.478 0-2.956-0.106-4.539-0.106h-19.739c-5.277 0-10.556 0.633-15.622 1.795l-11.611-58.584zM371.537 265.108c-9.922-3.378-20.478-4.644-31.034-3.906-10.45 0.739-20.689 3.589-30.084 8.339l-11.717 5.911 1.9-7.811c2.006-8.128 6.755-15.411 13.406-20.584s14.777-8.022 23.222-8.022h19.739c30.823 0 60.588 11.084 83.811 31.245s38.422 48.028 42.855 78.533l8.655 60.8h-61.855l6.333-31.878c2.534-12.667 2.639-25.65 0.106-38.317s-7.494-24.7-14.672-35.467c-12.139-18.261-29.978-31.878-50.666-38.845zM342.403 633.285l-3.695 5.488-19.422-19.422c-3.167-3.167-7.494-4.961-12.034-4.961s-8.867 1.795-12.034 4.961l-22.062 22.062v-27.022c0-3.061-0.845-6.122-2.428-8.761s-3.906-4.855-6.544-6.227c-2.745-1.478-5.805-2.111-8.867-2.006s-6.122 1.161-8.655 2.85c-21.85 14.566-46.55 24.383-72.517 28.711 17.1-17.944 37.156-32.722 59.323-43.805l13.195-6.65c3.273-1.584 5.805-4.223 7.494-7.389s2.217-6.861 1.689-10.45c-0.528-3.589-2.217-6.861-4.75-9.394s-5.805-4.223-9.394-4.855l-38.634-6.439c-34.622-5.7-68.084-17.1-99.011-33.672l102.706-11.4c3.8-0.422 7.389-2.111 10.133-4.855s4.434-6.227 4.961-10.028c0.528-3.8-0.317-7.705-2.322-10.978s-5.066-5.805-8.655-7.178l-78.955-29.556c-20.795-7.811-39.9-19.422-56.261-34.411l92.995 11.611c3.695 0.422 7.389-0.317 10.556-2.111s5.7-4.644 7.178-8.022c1.478-3.378 1.795-7.178 0.95-10.767s-2.85-6.755-5.7-9.183l-52.566-43.805c-30.4-25.333-53.622-58.161-67.556-95.211l-6.016-16.044 224.2 184.722c2.428 2.006 4.328 4.75 5.277 7.811 1.056 3.061 1.161 6.333 0.317 9.394-1.478 5.911-3.167 12.561-4.855 18.789-3.061 11.611-2.322 23.961 1.9 35.255 4.328 11.295 12.034 20.9 22.062 27.55l0.633 0.422c11.189 7.494 24.594 10.767 38 9.289s25.755-7.494 35.15-17.1c0.633-0.633 1.161-1.372 1.689-2.111l12.561-17.839v39.9l-12.245 9.183c-11.611 8.655-25.544 13.512-40.006 13.933s-28.711-3.695-40.745-11.717c-1.9-1.267-3.906-2.111-6.122-2.534s-4.434-0.422-6.65 0c-2.217 0.422-4.328 1.267-6.122 2.534-1.9 1.267-3.484 2.85-4.75 4.75s-2.111 3.906-2.534 6.122c-0.422 2.217-0.422 4.434 0 6.65s1.267 4.328 2.534 6.122c1.267 1.9 2.85 3.484 4.75 4.75 16.466 10.978 35.783 16.994 55.628 17.417s39.372-4.855 56.261-15.2v36.628c-20.372 4.539-38.422 16.783-50.034 34.2zM634.476 709.707c15.833 15.727 26.283 36.205 29.872 58.267h-22.695c-12.773-21.217-31.456-38.317-53.622-49.4-3.695-1.9-8.022-2.322-12.034-1.267s-7.494 3.589-9.817 7.072l-54.15 81.066-54.044-81.066c-2.322-3.484-5.805-5.911-9.817-7.072-4.012-1.056-8.339-0.633-12.034 1.267-22.167 11.084-40.85 28.183-53.622 49.4h-22.695c3.484-22.062 13.933-42.433 29.872-58.267l12.139-12.139c4.539-4.539 8.55-9.711 12.034-15.2 4.223 3.061 8.867 5.488 13.827 7.072l79.061 26.389c3.484 1.161 7.283 1.161 10.767 0l79.061-26.389c4.961-1.689 9.606-4.012 13.827-7.072 3.378 5.488 7.389 10.556 12.034 15.2zM894.986 335.619l-52.566 43.805c-2.85 2.322-4.855 5.594-5.7 9.183s-0.528 7.389 0.95 10.767c1.478 3.378 4.012 6.227 7.178 8.022s6.861 2.534 10.556 2.111l92.995-11.611c-16.361 14.989-35.467 26.705-56.261 34.411l-78.955 29.556c-3.589 1.372-6.65 3.906-8.655 7.178s-2.85 7.178-2.322 10.978c0.528 3.8 2.217 7.389 4.961 10.028 2.745 2.745 6.333 4.434 10.133 4.855l102.706 11.4c-30.928 16.572-64.389 27.972-99.116 33.672l-38.634 6.439c-3.589 0.633-6.861 2.322-9.394 4.855s-4.223 5.911-4.75 9.394c-0.528 3.589 0.106 7.178 1.689 10.45 1.689 3.167 4.328 5.805 7.494 7.389l13.195 6.65c22.167 11.084 42.222 25.966 59.323 43.805-25.966-4.328-50.666-14.144-72.517-28.711-2.534-1.689-5.594-2.745-8.655-2.85s-6.122 0.528-8.867 2.006c-2.745 1.478-4.961 3.589-6.544 6.227s-2.428 5.7-2.428 8.761v27.022l-22.062-22.062c-1.584-1.584-3.484-2.85-5.488-3.695-2.111-0.845-4.328-1.267-6.544-1.267s-4.434 0.422-6.544 1.267c-2.111 0.845-3.906 2.111-5.488 3.695l-19.422 19.422-3.695-5.488c-11.611-17.522-29.661-29.767-50.245-34.2v-36.628c16.889 10.345 36.417 15.516 56.261 15.2 19.845-0.422 39.056-6.439 55.628-17.417 3.8-2.534 6.333-6.439 7.283-10.872 0.845-4.434 0-9.078-2.534-12.773-2.534-3.8-6.439-6.333-10.872-7.283-4.434-0.845-9.078 0-12.773 2.534-12.034 8.022-26.283 12.139-40.745 11.717s-28.395-5.277-40.006-13.933l-12.245-9.183v-39.9l12.561 17.839c0.528 0.739 1.056 1.372 1.689 2.111 9.394 9.606 21.745 15.727 35.15 17.1s26.811-1.9 38-9.289l0.633-0.422c10.028-6.65 17.733-16.361 22.062-27.55s4.961-23.538 1.9-35.255c-1.689-6.333-3.378-12.878-4.855-18.789-0.739-3.167-0.633-6.439 0.317-9.394 0.95-3.061 2.85-5.805 5.277-7.811l224.2-184.722-6.016 16.044c-13.617 37.050-36.944 69.877-67.239 95.211z"></path>
<path d="M465.798 609.429c1.584 1.584 3.484 2.85 5.488 3.695 2.111 0.845 4.328 1.267 6.544 1.267s4.434-0.422 6.544-1.267c2.111-0.845 3.906-2.111 5.488-3.695 5.911-5.911 10.345-13.3 12.773-21.323s2.745-16.572 0.95-24.805h17.628c5.066 6.966 7.811 15.516 7.811 24.172v10.028c0 4.539 1.795 8.867 4.961 12.034s7.494 4.961 12.034 4.961c4.539 0 8.867-1.795 12.034-4.961s4.961-7.494 4.961-12.034v-10.028c0-16.889-5.7-33.355-16.15-46.656 1.161-3.378 3.273-6.333 6.227-8.444 2.85-2.111 6.333-3.167 9.922-3.273 4.539 0 8.867-1.795 12.034-4.961s4.961-7.494 4.961-12.034c0-4.539-1.795-8.867-4.961-12.034s-7.494-4.961-12.034-4.961c-10.556 0-20.9 3.273-29.556 9.394s-15.2 14.777-18.683 24.7h-19.95v-34.094c0-4.539-1.795-8.867-4.961-12.034s-7.494-4.961-12.034-4.961c-4.539 0-8.867 1.795-12.034 4.961s-4.961 7.494-4.961 12.034v51.194c0 2.639 0.633 5.172 1.795 7.6 0 0 0 0.106 0 0.106l6.227 12.561c1.584 3.061 2.111 6.544 1.478 9.922-0.528 3.378-2.111 6.544-4.644 8.972-3.167 3.167-4.961 7.494-4.961 12.034s1.9 8.655 5.066 11.928z"></path>
</svg>
