<svg xmlns="http://www.w3.org/2000/svg" viewBox="0 0 1024 1024"><path d="M934.031.001H571.975c-23.04 0-44.008 8.655-59.977 23.04C496.028 8.656 475.061.001 452.021.001H89.965C40.35.001-.001 40.351-.001 89.967v784.089c0 39.131 25.112 72.411 59.977 84.846v35.109c0 16.579 13.41 29.989 29.989 29.989s29.989-13.41 29.989-29.989v-29.989h301.957v29.989c0 16.579 13.41 29.989 29.989 29.989s29.989-13.41 29.989-29.989v-29.989h60.099v29.989c0 16.579 13.41 29.989 29.989 29.989s29.989-13.41 29.989-29.989v-29.989h301.957v29.989c0 16.579 13.41 29.989 29.989 29.989s29.989-13.41 29.989-29.989v-35.109c34.987-12.434 60.099-45.836 60.099-84.846V89.967C1024 40.352 983.65.001 934.034.001zM482.009 904.044H89.964c-16.579 0-29.989-13.41-29.989-29.989V89.966c0-16.579 13.41-29.989 29.989-29.989H452.02c16.579 0 29.989 13.41 29.989 29.989zm482.011-29.989c0 16.579-13.41 29.989-29.989 29.989H541.986V89.967c0-16.579 13.41-29.989 29.989-29.989h362.056c16.579 0 29.989 13.41 29.989 29.989z"/><path d="M392.044 119.954H149.942c-16.579 0-29.989 13.41-29.989 29.989s13.41 29.989 29.989 29.989h241.98c16.579 0 29.989-13.41 29.989-29.989s-13.288-29.989-29.867-29.989zM392.044 240.03H149.942c-16.579 0-29.989 13.41-29.989 29.989s13.41 29.989 29.989 29.989h241.98c16.579 0 29.989-13.41 29.989-29.989.122-16.579-13.288-29.989-29.867-29.989zM874.054 664.014H631.952c-16.579 0-29.989 13.41-29.989 29.989s13.41 29.989 29.989 29.989h242.102c16.579 0 29.989-13.41 29.989-29.989s-13.531-29.989-29.989-29.989zM874.054 783.968H631.952c-16.579 0-29.989 13.41-29.989 29.989s13.41 29.989 29.989 29.989h242.102c16.579 0 29.989-13.41 29.989-29.989s-13.531-29.989-29.989-29.989zM874.054 119.954H631.952c-16.579 0-29.989 13.41-29.989 29.989s13.41 29.989 29.989 29.989h242.102c16.579 0 29.989-13.41 29.989-29.989s-13.531-29.989-29.989-29.989zM874.054 240.03H631.952c-16.579 0-29.989 13.41-29.989 29.989s13.41 29.989 29.989 29.989h242.102c16.579 0 29.989-13.41 29.989-29.989s-13.531-29.989-29.989-29.989zM392.044 664.014H149.942c-16.579 0-29.989 13.41-29.989 29.989s13.41 29.989 29.989 29.989h241.98c16.579 0 29.989-13.41 29.989-29.989s-13.288-29.989-29.867-29.989zM392.044 783.968H149.942c-16.579 0-29.989 13.41-29.989 29.989s13.41 29.989 29.989 29.989h241.98c16.579 0 29.989-13.41 29.989-29.989s-13.288-29.989-29.867-29.989zM392.044 422.033c-16.579 0-29.989 13.41-29.989 29.989v59.977c0 16.579 13.41 29.989 29.989 29.989s29.989-13.41 29.989-29.989v-59.977c0-16.579-13.41-29.989-29.989-29.989zM874.054 422.033c-16.579 0-29.989 13.41-29.989 29.989v59.977c0 16.579 13.41 29.989 29.989 29.989s29.989-13.41 29.989-29.989v-59.977c0-16.579-13.531-29.989-29.989-29.989z"/></svg>