<!-- Generated by IcoMoon.io -->
<svg version="1.1" xmlns="http://www.w3.org/2000/svg" width="1024" height="1024" viewBox="0 0 1024 1024">
<title></title>
<g id="icomoon-ignore">
</g>
<path d="M901.582 563.683l-22.879-116.514c-6.274-32.75-17.067-57.657-33.119-76.384-20.572-24.078-49.539-36.809-83.673-36.809h-133.951v-160.15c0-22.048-17.897-40.037-40.037-40.037s-40.037 17.897-40.037 40.037v388.198h-347.884c-22.048 0-40.037 17.897-40.037 40.037 0 22.048 17.897 40.037 40.037 40.037h679.992c1.477 0 2.86-0.092 4.243-0.185 34.134 7.472 59.779 37.916 59.779 74.263v103.784h-86.901c-16.513-46.588-60.979-79.982-113.101-79.982s-96.588 33.488-113.101 79.982h-247.79c-16.513-46.588-60.979-79.982-113.101-79.982s-96.588 33.396-113.101 79.89c-42.713-1.661-76.938-36.809-76.938-79.89v-288.012c0-22.048-17.897-40.037-40.037-40.037s-39.945 17.989-39.945 40.037v288.012c0 87.178 70.112 158.212 156.829 159.965 16.513 46.588 60.979 80.074 113.193 80.074 52.123 0 96.588-33.396 113.101-79.982h247.79c16.513 46.588 60.979 79.982 113.101 79.982s96.588-33.396 113.101-79.982h126.847c22.048 0 40.037-17.897 40.037-40.037v-144.005c0-74.448-52.492-136.902-122.418-152.309zM627.963 413.958h134.043c12.177 0 28.967 0 38.193 48.247 0 0.092 0 0.092 0 0.185l19.557 99.54h-191.793zM270.023 900.035c-22.048 0-40.037-17.897-40.037-40.037 0-22.048 17.989-40.037 40.037-40.037s40.037 17.989 40.037 40.037c-0.092 22.048-17.989 40.037-40.037 40.037zM744.016 900.035c-22.048 0-40.037-17.897-40.037-40.037 0-22.048 17.989-40.037 40.037-40.037s40.037 17.989 40.037 40.037c-0.092 22.048-17.989 40.037-40.037 40.037zM12.179 272.995c-15.776-15.407-16.143-40.775-0.738-56.551s40.775-16.143 56.551-0.645l129.246 126.108c6.55 6.089 13.93 6.642 17.805 6.366 3.782-0.277 10.794-1.661 16.42-8.118l200.003-279.432c12.823-17.989 37.824-22.14 55.813-9.225 17.989 12.823 22.14 37.824 9.225 55.813l-200.833 280.446c-0.462 0.645-0.923 1.2-1.384 1.754-18.174 22.602-45.111 36.624-73.986 38.562-2.306 0.185-4.613 0.185-6.827 0.185-26.477 0-52.308-10.24-71.587-28.599-0.092-0.092-0.277-0.185-0.369-0.369z"></path>
</svg>
