<svg xmlns="http://www.w3.org/2000/svg" viewBox="0 0 1024 1024"><path d="M512.128 269.169L146.793 570.244c0 .512 0 1.024-.256 1.792s-.256 1.536-.256 1.792v304.915c0 11.008 4.096 20.481 12.032 28.673 7.937 7.937 17.665 12.032 28.673 12.032h243.983V675.465h162.57v243.983h243.983c11.008 0 20.481-4.096 28.673-12.032 7.937-7.937 12.032-17.665 12.032-28.673V574.084c0-1.792-.256-3.073-.768-3.841z"/><path d="M1016.991 501.632l-139.017-115.72V126.824c0-5.888-1.792-10.753-5.633-14.593s-8.704-5.633-14.593-5.633H735.884c-5.888 0-10.753 1.792-14.593 5.633s-5.633 8.704-5.633 14.593v123.912l-154.89-129.544c-13.825-11.008-29.954-16.641-48.643-16.641s-34.818 5.376-48.387 16.641L7.263 501.632C2.911 504.96.607 509.569.094 515.201s1.024 10.753 4.352 14.849l39.426 47.107c3.328 3.841 7.937 6.144 13.313 6.912 5.12.512 10.24-1.024 15.361-4.352l439.579-366.359 439.579 366.614c3.328 3.073 7.937 4.352 13.313 4.352h1.792c5.376-.768 9.985-3.073 13.313-6.912l39.426-47.107c3.328-4.352 4.864-9.217 4.352-14.849-.256-5.888-2.56-10.497-6.912-13.825z"/></svg>