<!-- Generated by IcoMoon.io -->
<svg version="1.1" xmlns="http://www.w3.org/2000/svg" width="1024" height="1024" viewBox="0 0 1024 1024">
<title></title>
<g id="icomoon-ignore">
</g>
<path d="M512.128 269.169l-365.335 301.075c0 0.512 0 1.024-0.256 1.792s-0.256 1.536-0.256 1.792v304.915c0 11.008 4.096 20.481 12.032 28.673 7.937 7.937 17.665 12.032 28.673 12.032h243.983v-243.983h162.57v243.983h243.983c11.008 0 20.481-4.096 28.673-12.032 7.937-7.937 12.032-17.665 12.032-28.673v-304.659c0-1.792-0.256-3.073-0.768-3.841z"></path>
<path d="M1016.991 501.632l-139.017-115.72v-259.088c0-5.888-1.792-10.753-5.633-14.593s-8.704-5.633-14.593-5.633h-121.864c-5.888 0-10.753 1.792-14.593 5.633s-5.633 8.704-5.633 14.593v123.912l-154.89-129.544c-13.825-11.008-29.954-16.641-48.643-16.641s-34.818 5.376-48.387 16.641l-456.475 380.44c-4.352 3.328-6.656 7.937-7.169 13.569s1.024 10.753 4.352 14.849l39.426 47.107c3.328 3.841 7.937 6.144 13.313 6.912 5.12 0.512 10.24-1.024 15.361-4.352l439.579-366.359 439.579 366.614c3.328 3.073 7.937 4.352 13.313 4.352h1.792c5.376-0.768 9.985-3.073 13.313-6.912l39.426-47.107c3.328-4.352 4.864-9.217 4.352-14.849-0.256-5.888-2.56-10.497-6.912-13.825z"></path>
</svg>
