<svg xmlns="http://www.w3.org/2000/svg" viewBox="0 0 93.885 66.667"><defs><clipPath id="a" clipPathUnits="userSpaceOnUse"><path d="M0 50h239V0H0z"/></clipPath></defs><g clip-path="url(#a)" transform="matrix(1.33333 0 0 -1.33333 0 66.667)"><path d="M45.412 15.665c-5.063 0-9.336 4.271-9.336 9.335 0 5.063 4.273 9.335 9.336 9.335 5.063 0 9.335-4.272 9.335-9.335 0-5.064-4.114-9.335-9.335-9.335m0 34.335c-13.924 0-25-11.234-25-25 0-13.924 11.234-25 25-25s25 11.234 25 25c.158 13.766-11.234 25-25 25M20.412 42.721V6.33h-9.02L0 42.721z"/></g></svg>