<svg xmlns="http://www.w3.org/2000/svg" viewBox="0 0 9.517 8.18"><path fill="#79288e" stroke-width=".011" d="M2.148 8.16c-.261-.088-.499-.436-.712-1.045a9.586 9.586 0 0 1-.407-1.825c-.032-.273-.023-.343.068-.479.06-.09.29-.311.452-.435.171-.13.514-.356.738-.485l.173-.1-.048-.002c-.535-.029-.8-.053-1.044-.098-.383-.07-.54-.14-.64-.284C.586 3.201.492 2.87.361 2.1c-.065-.384-.086-.45-.193-.629C.03 1.238-.002 1.134 0 .89.002.539.07.274.19.148.29.043.413 0 .61 0c.215 0 .448.055.784.185.328.127 1.13.525 1.382.687.514.328 1.022.94 1.487 1.79.09.166.265.52.283.576.01.034.036.051.062.043.038-.012.039-.05 0-.15-.044-.12-.043-.194.006-.244l.031-.032-.262-.597a11.77 11.77 0 0 0-.296-.645.49.49 0 0 1-.078-.19c0-.063.063-.022.102.066.013.03.028.076.033.102.005.026.127.317.272.648l.264.6.039-.01a.274.274 0 0 1 .08-.007l.04.004.263-.6c.145-.33.264-.61.264-.624a.423.423 0 0 1 .078-.18c.033-.039.059-.039.059 0a.474.474 0 0 1-.075.185c-.016.021-.148.309-.294.64-.257.586-.263.601-.243.623.057.062.06.132.012.263-.038.098-.037.136.001.148.034.01.047-.006.101-.128.19-.428.534-1.015.806-1.376.281-.373.609-.698.897-.889.188-.124.913-.494 1.244-.634.308-.131.561-.212.758-.242.115-.018.304-.015.383.006.142.036.257.13.319.258s.117.508.102.706c-.013.186-.046.278-.173.495-.112.191-.11.184-.24.91-.123.68-.258 1.031-.44 1.144-.148.093-.443.163-.876.21-.174.018-.319.028-.684.048l-.049.002.171.1c.67.387 1.13.762 1.25 1.02a.286.286 0 0 1 .029.151c-.002.265-.133 1.015-.267 1.526-.226.864-.509 1.401-.815 1.55a.357.357 0 0 1-.17.04c-.494.026-.976-.426-1.389-1.302-.18-.384-.273-.638-.5-1.373-.202-.658-.27-.843-.323-.891-.056-.05-.066.02-.077.489-.009.37-.01.404-.034.461-.07.177-.2.216-.295.087-.066-.089-.07-.122-.08-.56-.01-.45-.022-.524-.075-.48-.053.042-.133.264-.337.93-.16.52-.241.76-.338.994-.253.614-.498 1.02-.788 1.304-.187.185-.382.298-.57.332a.708.708 0 0 1-.296-.008z"/></svg>