<?xml version="1.0" encoding="UTF-8" standalone="no"?>
<!-- Created with Inkscape (http://www.inkscape.org/) -->

<svg
   xmlns:dc="http://purl.org/dc/elements/1.1/"
   xmlns:cc="http://creativecommons.org/ns#"
   xmlns:rdf="http://www.w3.org/1999/02/22-rdf-syntax-ns#"
   xmlns:svg="http://www.w3.org/2000/svg"
   xmlns="http://www.w3.org/2000/svg"
   xmlns:sodipodi="http://sodipodi.sourceforge.net/DTD/sodipodi-0.dtd"
   xmlns:inkscape="http://www.inkscape.org/namespaces/inkscape"
   width="9.2570686mm"
   height="9.7529297mm"
   viewBox="0 0 9.2570686 9.7529297"
   version="1.1"
   id="svg2362"
   sodipodi:docname="lifting-2.svg"
   inkscape:version="0.92.3 (2405546, 2018-03-11)">
  <defs
     id="defs2356" />
  <sodipodi:namedview
     id="base"
     pagecolor="#ffffff"
     bordercolor="#666666"
     borderopacity="1.0"
     inkscape:pageopacity="0.0"
     inkscape:pageshadow="2"
     inkscape:zoom="2.8"
     inkscape:cx="26.124709"
     inkscape:cy="38.937391"
     inkscape:document-units="mm"
     inkscape:current-layer="layer1"
     showgrid="false"
     inkscape:window-width="1920"
     inkscape:window-height="1027"
     inkscape:window-x="-8"
     inkscape:window-y="-8"
     inkscape:window-maximized="1" />
  <metadata
     id="metadata2359">
    <rdf:RDF>
      <cc:Work
         rdf:about="">
        <dc:format>image/svg+xml</dc:format>
        <dc:type
           rdf:resource="http://purl.org/dc/dcmitype/StillImage" />
        <dc:title></dc:title>
      </cc:Work>
    </rdf:RDF>
  </metadata>
  <g
     inkscape:label="Layer 1"
     inkscape:groupmode="layer"
     id="layer1"
     transform="translate(-88.899465,-74.14864)">
    <path
       style="fill:#79288e;stroke-width:0.01384007"
       d="m 90.640881,83.893127 c -0.295856,-0.0068 -0.750432,-0.01762 -1.010167,-0.02401 l -0.472246,-0.01161 -0.07783,-0.04143 c -0.06267,-0.03336 -0.08565,-0.05579 -0.118008,-0.115181 -0.05619,-0.103145 -0.07579,-0.300981 -0.05518,-0.556881 0.02677,-0.332276 0.08394,-0.424124 0.311847,-0.500945 0.313879,-0.1058 0.536996,-0.282624 0.649433,-0.514686 0.06209,-0.128154 0.0831,-0.226754 0.08379,-0.393233 5.79e-4,-0.14002 -0.0028,-0.162071 -0.03591,-0.232081 -0.02217,-0.04693 -0.09375,-0.140996 -0.181942,-0.239113 -0.233496,-0.259777 -0.319211,-0.411128 -0.356254,-0.629056 -0.01675,-0.09856 -0.01811,-0.146137 -0.0067,-0.235972 0.03769,-0.297263 0.224169,-0.592737 0.466249,-0.738762 0.07383,-0.04454 0.102091,-0.07055 0.117191,-0.107874 0.03018,-0.0746 0.0048,-0.102447 -0.151605,-0.166374 -0.230648,-0.09427 -0.369308,-0.212726 -0.384319,-0.328318 -0.01873,-0.144259 0.104478,-0.255337 0.411387,-0.370871 0.127018,-0.04782 0.170228,-0.08355 0.170228,-0.14079 0,-0.06456 -0.02245,-0.09221 -0.112863,-0.13898 -0.05946,-0.03076 -0.123239,-0.08404 -0.214616,-0.17927 -0.110684,-0.115356 -0.139392,-0.155368 -0.193093,-0.269124 -0.07901,-0.167381 -0.09743,-0.254675 -0.08932,-0.423386 0.01141,-0.237352 0.07922,-0.367736 0.338786,-0.651483 0.217906,-0.2382 0.270534,-0.377174 0.253324,-0.668941 -0.01459,-0.247366 -0.102486,-0.456044 -0.262276,-0.62269 -0.147867,-0.154213 -0.280771,-0.232642 -0.529996,-0.31276 -0.266761,-0.08576 -0.28752,-0.131019 -0.276942,-0.603857 0.0053,-0.237894 0.008,-0.259524 0.04127,-0.334231 0.05566,-0.12496 0.06274,-0.126989 0.466571,-0.133656 0.187459,-0.0031 1.014938,-0.01805 1.838843,-0.03323 1.85851,-0.03425 2.180599,-0.03425 4.269325,-3.4e-5 0.92502,0.01515 1.864494,0.02989 2.08772,0.03275 l 0.405864,0.0052 0.03493,0.03608 c 0.04741,0.04897 0.07064,0.150102 0.08813,0.383754 0.01738,0.232092 0.0081,0.43073 -0.02408,0.513705 -0.02747,0.07091 -0.08432,0.102272 -0.228527,0.126065 -0.343929,0.05675 -0.683806,0.33318 -0.808217,0.657349 -0.03302,0.08603 -0.03654,0.112576 -0.036,0.271183 8.45e-4,0.247409 0.03078,0.335907 0.204598,0.604817 0.200364,0.309983 0.26404,0.471212 0.26364,0.667549 -5.5e-4,0.270397 -0.113701,0.504886 -0.378196,0.783751 -0.108297,0.11418 -0.142501,0.159167 -0.142501,0.187423 0,0.02045 0.0059,0.0433 0.01317,0.05078 0.0072,0.0075 0.07389,0.0295 0.148099,0.04894 0.16013,0.04193 0.307036,0.119466 0.363943,0.192085 0.05284,0.06743 0.06501,0.177262 0.0301,0.271672 -0.04613,0.124761 -0.215818,0.257046 -0.395302,0.308171 -0.207116,0.059 -0.212429,0.08767 -0.03423,0.184686 0.162359,0.0884 0.292445,0.268743 0.348925,0.483744 0.03791,0.144321 0.03457,0.439752 -0.0065,0.576331 -0.05684,0.188896 -0.106377,0.273473 -0.321498,0.548909 -0.07552,0.0967 -0.144501,0.194807 -0.15328,0.218015 -0.09234,0.244097 -0.06427,0.672244 0.06081,0.927596 0.109104,0.222735 0.308393,0.382945 0.560182,0.450333 0.04681,0.01253 0.150639,0.02775 0.230722,0.03383 0.171493,0.01302 0.22231,0.03528 0.261457,0.114535 0.03758,0.07607 0.05916,0.309659 0.051,0.55184 -0.0057,0.169683 -0.0106,0.201544 -0.03981,0.260173 -0.02661,0.0534 -0.04816,0.07451 -0.1074,0.105185 -0.117955,0.06108 -0.318722,0.09489 -0.658325,0.110892 -0.389122,0.01833 -5.99487,0.02793 -6.708365,0.01149 z m 3.819922,-0.336404 c 1.747974,-0.0296 2.731159,-0.06815 2.896666,-0.113576 0.116579,-0.032 0.168381,-0.129075 0.102756,-0.192569 -0.04499,-0.04353 -0.0881,-0.05654 -0.244258,-0.07374 -0.301745,-0.03323 -0.693365,-0.0413 -2.816446,-0.05802 -2.700184,-0.02126 -3.901598,-0.0052 -4.405507,0.05883 -0.164829,0.02095 -0.30237,0.05328 -0.364289,0.08563 -0.0983,0.05136 -0.05594,0.141114 0.08512,0.180375 0.310964,0.08655 2.80433,0.145954 4.745963,0.113071 z m -3.199645,-0.723214 c 0.02917,-0.02203 0.02918,-0.02189 -0.04972,-0.454526 -0.02938,-0.161112 -0.03028,-0.181973 -0.0143,-0.330539 0.0428,-0.397707 0.230996,-0.744823 0.641811,-1.183778 0.07883,-0.08423 0.305723,-0.303466 0.504209,-0.487194 0.383597,-0.355076 0.623223,-0.598621 0.657011,-0.667754 0.04002,-0.08189 0.0091,-0.111747 -0.371056,-0.35867 -0.253603,-0.164706 -0.313192,-0.220158 -0.313192,-0.291451 0,-0.0806 0.09282,-0.163293 0.279175,-0.248717 0.354663,-0.162575 0.428975,-0.216059 0.428975,-0.308744 0,-0.06508 -0.02534,-0.09429 -0.173702,-0.200236 -0.228533,-0.163198 -0.396979,-0.311452 -0.644418,-0.567174 -0.259607,-0.268298 -0.367748,-0.400855 -0.525466,-0.644107 -0.235474,-0.363177 -0.37303,-0.730829 -0.393601,-1.051995 -0.0077,-0.119884 -0.0052,-0.136586 0.04744,-0.315339 0.06561,-0.222927 0.06877,-0.262763 0.02255,-0.284514 -0.04841,-0.02278 -0.200714,0.01657 -0.338005,0.08733 -0.2326,0.119878 -0.432724,0.311214 -0.523091,0.500122 -0.04965,0.103792 -0.05229,0.116067 -0.05095,0.236754 0.0025,0.220686 0.07002,0.416237 0.192201,0.556283 0.273418,0.313407 0.367927,0.534754 0.354325,0.829864 -0.01329,0.288311 -0.170912,0.543565 -0.448273,0.725922 -0.120717,0.07937 -0.133717,0.09497 -0.133717,0.160441 0,0.06857 0.02688,0.09114 0.223764,0.187926 0.294956,0.144988 0.382165,0.259612 0.312645,0.410926 -0.04714,0.102607 -0.208789,0.202531 -0.437505,0.270449 -0.105552,0.03134 -0.136773,0.04664 -0.151869,0.07442 -0.0296,0.05447 0.01012,0.125113 0.112975,0.200916 0.182746,0.134687 0.315646,0.320734 0.377823,0.528917 0.04035,0.135117 0.04357,0.39243 0.0067,0.534489 -0.04178,0.160886 -0.134299,0.331087 -0.282891,0.520423 -0.159552,0.203304 -0.196346,0.275972 -0.21686,0.428309 -0.04462,0.331342 0.112487,0.708832 0.38992,0.936879 0.10969,0.09016 0.267169,0.17661 0.36729,0.201617 0.1051,0.02625 0.118378,0.02649 0.149819,0.0027 z m 4.45263,-0.09653 c 0.186763,-0.09774 0.402613,-0.278118 0.517738,-0.432646 0.223702,-0.300264 0.273436,-0.686042 0.127828,-0.991527 -0.02261,-0.04744 -0.105308,-0.174366 -0.183767,-0.282053 -0.228963,-0.31426 -0.270128,-0.426383 -0.270702,-0.737317 -3.92e-4,-0.212198 0.02416,-0.324335 0.106233,-0.485182 0.05994,-0.117473 0.199592,-0.260017 0.301769,-0.30802 0.163136,-0.07664 0.17699,-0.08555 0.181268,-0.116587 0.0053,-0.0383 -0.01747,-0.05134 -0.168279,-0.09648 -0.148025,-0.0443 -0.237405,-0.09115 -0.315875,-0.165566 -0.173227,-0.164272 -0.142311,-0.353666 0.0822,-0.503538 0.09743,-0.06504 0.212069,-0.104283 0.362255,-0.12401 0.112837,-0.01482 0.151226,-0.03086 0.151226,-0.06317 0,-0.02152 -0.07968,-0.09884 -0.190655,-0.185021 -0.123758,-0.09611 -0.260677,-0.242549 -0.317096,-0.339154 -0.195414,-0.334605 -0.134122,-0.784021 0.152998,-1.121821 0.163224,-0.192036 0.23431,-0.34822 0.261748,-0.575094 0.01319,-0.109063 0.01217,-0.146354 -0.0066,-0.241503 -0.05353,-0.270901 -0.237716,-0.524323 -0.465518,-0.640499 -0.09744,-0.04969 -0.220421,-0.07614 -0.267703,-0.05757 -0.07633,0.02997 -0.08293,0.07849 -0.04447,0.327262 0.07692,0.497542 -0.171464,1.112728 -0.704307,1.744409 -0.190929,0.226346 -0.307103,0.34268 -0.685806,0.686753 -0.524674,0.476695 -0.547525,0.499402 -0.531043,0.527698 0.0075,0.01292 0.10558,0.07398 0.217892,0.13568 0.50206,0.275811 0.564601,0.339489 0.443977,0.452044 -0.06707,0.06258 -0.150672,0.117423 -0.389573,0.255544 -0.343739,0.198733 -0.409139,0.260898 -0.352028,0.334615 0.06061,0.07824 0.297454,0.276532 0.72653,0.608281 0.593529,0.458899 0.842133,0.71876 1.01134,1.057135 0.0951,0.190179 0.134133,0.341966 0.142606,0.554552 0.01114,0.279592 -0.03751,0.47641 -0.15273,0.617849 -0.0648,0.07955 -0.08081,0.115566 -0.07039,0.15843 0.02022,0.08319 0.176535,0.08628 0.328967,0.0065 z m -0.661983,-0.718261 c 0.04461,-0.09635 0.05954,-0.184811 0.05343,-0.316709 -0.0051,-0.110065 -0.01207,-0.137706 -0.06115,-0.242461 -0.148991,-0.317948 -0.406411,-0.583102 -0.887713,-0.914381 -0.347932,-0.23948 -0.546036,-0.331191 -0.598456,-0.277049 -0.02392,0.0247 -0.02002,0.140944 0.01101,0.328416 0.05449,0.329201 0.176175,0.611843 0.30826,0.716009 0.03857,0.03042 0.117121,0.06733 0.213383,0.100284 0.309641,0.10599 0.531176,0.236963 0.691778,0.408986 0.04951,0.05304 0.10613,0.129249 0.12581,0.169362 0.05776,0.117726 0.0983,0.125499 0.143653,0.02754 z m -3.153277,-0.05688 c 0.02359,-0.02617 0.06953,-0.08007 0.102072,-0.119766 0.03255,-0.0397 0.09383,-0.09966 0.136183,-0.133257 0.139448,-0.110608 0.219043,-0.147491 0.443147,-0.205344 0.23543,-0.06078 0.223682,-0.05602 0.305505,-0.123881 0.142502,-0.118196 0.281732,-0.367872 0.323302,-0.579766 0.03669,-0.187007 0.0111,-0.517418 -0.04371,-0.564398 -0.01572,-0.01348 -0.06083,0.01202 -0.235816,0.133309 -0.290547,0.201388 -0.623756,0.460359 -0.753209,0.585399 -0.201594,0.194721 -0.365646,0.460578 -0.412504,0.668492 -0.01442,0.06399 -0.02015,0.1362 -0.01637,0.20628 0.0095,0.17681 0.06665,0.226954 0.151403,0.132932 z M 90.274563,80.84829 c 0.05648,-0.03017 0.144125,-0.141678 0.167831,-0.213534 0.04914,-0.148965 0.0132,-0.335934 -0.08237,-0.428482 -0.148061,-0.143379 -0.384106,-0.09291 -0.489591,0.104684 -0.107545,0.201451 6e-6,0.469745 0.221871,0.553474 0.05573,0.02103 0.123976,0.01499 0.182258,-0.01614 z m 6.547075,-0.174066 c 0.220299,-0.116079 0.265576,-0.490959 0.0792,-0.655732 -0.12134,-0.107273 -0.277182,-0.09716 -0.401891,0.02608 -0.0773,0.07639 -0.103712,0.143316 -0.10375,0.262932 -4.1e-5,0.125473 0.0309,0.207416 0.108643,0.287709 0.09831,0.101537 0.218393,0.131393 0.317801,0.07901 z m -6.568211,-2.731365 c 0.08839,-0.02299 0.174871,-0.107561 0.210924,-0.206281 0.03926,-0.107513 0.03303,-0.274954 -0.01374,-0.368764 -0.0688,-0.138014 -0.179721,-0.239113 -0.262342,-0.239113 -0.0942,0 -0.21644,0.109427 -0.280934,0.251491 -0.04847,0.106764 -0.04962,0.270287 -0.0026,0.371194 0.05099,0.109442 0.166412,0.197225 0.270503,0.205725 0.0098,7.99e-4 0.04498,-0.0056 0.07819,-0.01425 z m 6.674423,-0.175465 c 0.0497,-0.03174 0.07541,-0.0618 0.106417,-0.124415 0.07582,-0.153119 0.04942,-0.347395 -0.06899,-0.507738 -0.0468,-0.06337 -0.137845,-0.119064 -0.194646,-0.119064 -0.05824,0 -0.105519,0.02736 -0.174266,0.100847 -0.170185,0.181913 -0.187337,0.463611 -0.03729,0.612513 0.07051,0.06997 0.121107,0.08867 0.225997,0.08351 0.0576,-0.0028 0.09392,-0.01445 0.142783,-0.04565 z m -3.258427,-0.709436 c 0.307058,-0.02575 0.564568,-0.09586 0.800114,-0.217842 0.327365,-0.169528 0.588488,-0.423466 0.725362,-0.705405 0.107712,-0.221871 0.11377,-0.367356 0.02333,-0.560247 -0.06462,-0.137818 -0.131759,-0.219746 -0.213621,-0.260676 -0.122197,-0.0611 -0.206732,-0.03038 -0.564806,0.205254 -0.403391,0.265451 -0.646686,0.342616 -1.026175,0.325468 -0.276164,-0.01248 -0.483944,-0.07894 -0.866186,-0.277078 -0.09363,-0.04853 -0.203361,-0.100032 -0.243856,-0.114447 -0.09807,-0.03491 -0.20868,-0.03396 -0.281432,0.0024 -0.08527,0.04264 -0.190088,0.165627 -0.248119,0.291148 -0.04538,0.09815 -0.0505,0.120764 -0.0505,0.223043 0,0.104935 0.0043,0.12247 0.05447,0.224673 0.06805,0.138494 0.240842,0.329712 0.411403,0.455285 0.294213,0.21661 0.710745,0.373034 1.085373,0.407599 0.180714,0.01667 0.204898,0.01672 0.394641,8.1e-4 z M 95.380036,74.9766 c 1.402306,-0.01772 1.936839,-0.03994 2.083594,-0.08661 0.06637,-0.02111 0.122564,-0.07872 0.122564,-0.125669 0,-0.04709 -0.06159,-0.104505 -0.133397,-0.124336 -0.223658,-0.06177 -1.387377,-0.09727 -3.563961,-0.108711 -2.222417,-0.01169 -3.746725,0.02282 -4.199364,0.09506 -0.154468,0.02465 -0.238877,0.09597 -0.196657,0.166163 0.05614,0.09333 0.532604,0.159257 1.321988,0.182905 0.539476,0.01616 3.323714,0.0169 4.565233,0.0012 z"
       id="path2483"
       inkscape:connector-curvature="0" />
  </g>
</svg>
