<svg xmlns="http://www.w3.org/2000/svg" viewBox="0 0 10.818 8.989"><path fill="#79288e" stroke-width=".015" d="M.337 8.98a.426.426 0 0 1-.302-.236L0 8.669V5.216c0-3.865-.01-3.534.11-3.657a.556.556 0 0 1 .122-.093c.06-.03.103-.03 3.447-.03h3.386l.067.04c.09.053.142.11.182.2.028.063.034.108.04.295l.007.221.406-.4C8.343 1.225 8.78.82 9.327.347c.28-.242.39-.308.565-.338.32-.055.674.147.843.482a.734.734 0 0 1-.053.766 5.058 5.058 0 0 1-.388.356 31.54 31.54 0 0 0-2.74 2.7l-.196.216L7.354 6.6 7.35 8.671l-.045.088a.423.423 0 0 1-.11.137c-.133.101.128.094-3.522.093A431.342 431.342 0 0 1 .338 8.98zm6.593-.427c.004-.01.005-.811.003-1.78L6.93 5.01l-.39.447c-.214.246-.553.637-.753.87-.2.232-.393.444-.427.471-.264.21-.571.243-.834.089-.15-.089-.444-.333-.832-.69-.451-.418-.628-.57-.838-.726-.443-.327-.787-.47-1.208-.5-.212-.016-.32-.048-.422-.125-.314-.239-.312-.777.005-1.078.168-.16.34-.209.658-.185.586.043 1.107.273 1.753.775.103.08.356.29.562.465.206.176.408.346.448.379l.072.059.047-.053c.026-.029.148-.183.272-.343.5-.645 1.153-1.416 1.764-2.08l.131-.142v-.796H.42v6.725h3.253c2.587 0 3.253-.004 3.258-.019z"/></svg>