<svg xmlns="http://www.w3.org/2000/svg" viewBox="0 0 8.455 8.969"><path fill="#79288e" stroke-width=".014" d="M3.276 8.966c-.264-.038-.548-.154-.694-.283-.12-.106-.184-.297-.176-.525.004-.136.009-.156.05-.24.058-.115.123-.163.225-.163.065 0 .07.003.124.067.095.113.278.28.356.326.04.023.103.05.138.06.213.055.372-.164.424-.582.009-.071.014-.612.014-1.436V4.868l-.117-.111c-.539-.508-1.119-.51-1.66-.005l-.123.115-.029-.04a1.8 1.8 0 0 0-.33-.313 1.114 1.114 0 0 0-.192-.097c-.087-.03-.12-.035-.27-.035a.78.78 0 0 0-.276.031c-.2.062-.403.178-.62.354-.096.078-.116.09-.12.068a4.802 4.802 0 0 1 .075-.619c.102-.548.248-.981.484-1.439.497-.96 1.26-1.59 2.3-1.9a5.1 5.1 0 0 1 .794-.154L3.865.7l.118-.346c.065-.19.121-.349.126-.353.004-.004.089.14.189.32L4.48.65l.145.01c.755.047 1.446.258 2.005.611.375.237.76.612 1.02.995.453.664.755 1.587.797 2.433l.008.168-.102-.085c-.644-.535-1.188-.54-1.744-.02l-.11.103-.063-.052a2.805 2.805 0 0 0-.464-.32c-.44-.217-.814-.133-1.277.287l-.093.084v1.48c0 1.302-.003 1.495-.022 1.607-.105.599-.541.998-1.112 1.017-.083.003-.17.003-.192 0z"/></svg>