<?xml version="1.0" encoding="UTF-8" standalone="no"?>
<!-- Created with Inkscape (http://www.inkscape.org/) -->

<svg
   xmlns:dc="http://purl.org/dc/elements/1.1/"
   xmlns:cc="http://creativecommons.org/ns#"
   xmlns:rdf="http://www.w3.org/1999/02/22-rdf-syntax-ns#"
   xmlns:svg="http://www.w3.org/2000/svg"
   xmlns="http://www.w3.org/2000/svg"
   xmlns:sodipodi="http://sodipodi.sourceforge.net/DTD/sodipodi-0.dtd"
   xmlns:inkscape="http://www.inkscape.org/namespaces/inkscape"
   width="9.9240646mm"
   height="6.6866064mm"
   viewBox="0 0 9.9240645 6.6866064"
   version="1.1"
   id="svg2362"
   sodipodi:docname="lifting-6.svg"
   inkscape:version="0.92.3 (2405546, 2018-03-11)">
  <defs
     id="defs2356" />
  <sodipodi:namedview
     id="base"
     pagecolor="#ffffff"
     bordercolor="#666666"
     borderopacity="1.0"
     inkscape:pageopacity="0.0"
     inkscape:pageshadow="2"
     inkscape:zoom="2.8"
     inkscape:cx="-63.229224"
     inkscape:cy="56.140464"
     inkscape:document-units="mm"
     inkscape:current-layer="layer1"
     showgrid="false"
     inkscape:window-width="1920"
     inkscape:window-height="1027"
     inkscape:window-x="-8"
     inkscape:window-y="-8"
     inkscape:window-maximized="1" />
  <metadata
     id="metadata2359">
    <rdf:RDF>
      <cc:Work
         rdf:about="">
        <dc:format>image/svg+xml</dc:format>
        <dc:type
           rdf:resource="http://purl.org/dc/dcmitype/StillImage" />
        <dc:title></dc:title>
      </cc:Work>
    </rdf:RDF>
  </metadata>
  <g
     inkscape:label="Layer 1"
     inkscape:groupmode="layer"
     id="layer1"
     transform="translate(-132.32442,-88.473791)">
    <path
       style="fill:#79288e;stroke-width:0.01313662"
       d="m 134.7182,95.056553 c 0.34592,-0.311212 0.66357,-0.761729 0.78835,-1.118097 0.0704,-0.201123 0.0784,-0.275923 0.0693,-0.650262 -0.006,-0.257928 0.0509,-0.464252 0.2292,-0.827608 0.15519,-0.316276 0.34703,-0.623668 0.60666,-0.97211 0.0646,-0.0867 0.12148,-0.164229 0.12638,-0.172283 0.005,-0.0081 -0.11656,0.06901 -0.26992,0.171259 -0.91776,0.61189 -1.66961,0.913646 -2.27716,0.913942 -0.28095,1.48e-4 -0.51106,-0.06036 -0.8114,-0.213315 -0.50489,-0.257122 -0.75311,-0.62586 -0.83794,-1.244774 -0.023,-0.167862 -0.023,-0.843656 0,-1.011519 0.0399,-0.291314 0.11922,-0.535092 0.23444,-0.720731 0.0767,-0.123553 0.28001,-0.330294 0.406,-0.412828 0.20747,-0.135908 0.48572,-0.254308 0.70049,-0.298075 0.15949,-0.0325 0.4088,-0.03524 0.59898,-0.0066 0.67692,0.102021 1.51573,0.521595 2.46008,1.230534 l 0.27939,0.209751 0.0661,-0.01418 c 0.0846,-0.01815 0.2876,-0.01823 0.38533,-1.51e-4 0.0595,0.011 0.0809,0.0103 0.0996,-0.0033 0.0131,-0.0095 0.13025,-0.09787 0.26035,-0.196352 0.41992,-0.317851 0.84116,-0.586848 1.24406,-0.794413 0.48675,-0.250772 0.89631,-0.393466 1.26112,-0.439384 0.19271,-0.02426 0.48252,-0.0098 0.63055,0.0315 0.31503,0.08785 0.60498,0.244169 0.80474,0.433858 0.28054,0.266394 0.41348,0.574009 0.46261,1.070404 0.0173,0.175255 0.0173,0.656136 0,0.831392 -0.0384,0.387873 -0.13907,0.684568 -0.30581,0.90116 -0.0754,0.098 -0.23469,0.248856 -0.3326,0.315078 -0.19907,0.134639 -0.49237,0.260486 -0.71088,0.305014 -0.6425,0.130934 -1.56963,-0.193928 -2.64868,-0.928089 -0.12184,-0.0829 -0.21787,-0.144798 -0.2134,-0.13756 0.004,0.0072 0.0541,0.07426 0.11031,0.148941 0.24718,0.328488 0.46088,0.663147 0.6068,0.950254 0.20408,0.401568 0.27956,0.693712 0.25455,0.985245 -0.0272,0.316536 0.043,0.578652 0.24645,0.920103 0.13124,0.220323 0.27797,0.404705 0.5041,0.633437 l 0.21116,0.213603 -0.58443,-0.0034 -0.58443,-0.0034 -0.10355,-0.15107 c -0.30934,-0.451324 -0.52261,-0.908866 -0.58172,-1.247981 -0.017,-0.09736 -0.0193,-0.152239 -0.0105,-0.249595 0.0191,-0.212695 0.0134,-0.504878 -0.013,-0.656832 -0.0806,-0.4644 -0.32225,-1.191234 -0.56553,-1.701193 l -0.0815,-0.170775 h -0.14844 -0.14844 l -0.0378,0.07481 c -0.17569,0.347439 -0.42712,1.030195 -0.5312,1.442473 -0.0994,0.393728 -0.12099,0.628881 -0.0928,1.011519 0.0132,0.179273 -0.006,0.304454 -0.0809,0.532032 -0.0868,0.263407 -0.361,0.771324 -0.56554,1.047646 l -0.0559,0.07554 h -0.58439 -0.58438 z m -0.69274,-3.529484 c 0.51477,-0.07876 1.31458,-0.326674 2.40057,-0.744091 l 0.34469,-0.132486 -0.01,-0.05393 c -0.0119,-0.06626 -0.0115,-0.290994 6.2e-4,-0.337785 0.009,-0.03382 0.006,-0.03549 -0.2372,-0.129627 -0.86179,-0.333952 -1.55969,-0.567378 -2.07866,-0.695243 -0.31608,-0.07788 -0.507,-0.108218 -0.69624,-0.110646 -0.18527,-0.0024 -0.22558,0.0074 -0.42836,0.103701 -0.42728,0.202954 -0.72725,0.543244 -0.78976,0.895913 -0.019,0.107536 -0.019,0.127142 4.2e-4,0.232918 0.064,0.348267 0.36335,0.688967 0.78038,0.888006 0.14222,0.06788 0.20405,0.09036 0.28627,0.104103 0.0805,0.01344 0.26018,0.0047 0.42694,-0.02084 z m 7.03765,-6.19e-4 c 0.1919,-0.06409 0.45992,-0.222978 0.61725,-0.365922 0.23524,-0.213725 0.3861,-0.526392 0.36774,-0.762129 -0.031,-0.398054 -0.37166,-0.789134 -0.87724,-1.007101 -0.1988,-0.08571 -0.31831,-0.09229 -0.66738,-0.03676 -0.51222,0.08147 -1.51176,0.397376 -2.47852,0.783332 l -0.22394,0.0894 0.0113,0.05911 c 0.0114,0.05961 0.005,0.305014 -0.009,0.341553 -0.009,0.02227 0.16551,0.09382 0.77428,0.318284 0.96881,0.357221 1.68099,0.557636 2.1544,0.606271 0.0916,0.0094 0.2664,-0.0043 0.3314,-0.02604 z"
       id="path2477"
       inkscape:connector-curvature="0" />
  </g>
</svg>
