<?xml version="1.0" encoding="UTF-8" standalone="no"?>
<!-- Created with Inkscape (http://www.inkscape.org/) -->

<svg
   xmlns:dc="http://purl.org/dc/elements/1.1/"
   xmlns:cc="http://creativecommons.org/ns#"
   xmlns:rdf="http://www.w3.org/1999/02/22-rdf-syntax-ns#"
   xmlns:svg="http://www.w3.org/2000/svg"
   xmlns="http://www.w3.org/2000/svg"
   xmlns:sodipodi="http://sodipodi.sourceforge.net/DTD/sodipodi-0.dtd"
   xmlns:inkscape="http://www.inkscape.org/namespaces/inkscape"
   width="10.81782mm"
   height="8.9894056mm"
   viewBox="0 0 10.81782 8.9894057"
   version="1.1"
   id="svg2362"
   sodipodi:docname="lifting-3.svg"
   inkscape:version="0.92.3 (2405546, 2018-03-11)">
  <defs
     id="defs2356" />
  <sodipodi:namedview
     id="base"
     pagecolor="#ffffff"
     bordercolor="#666666"
     borderopacity="1.0"
     inkscape:pageopacity="0.0"
     inkscape:pageshadow="2"
     inkscape:zoom="2.8"
     inkscape:cx="-57.407057"
     inkscape:cy="41.83568"
     inkscape:document-units="mm"
     inkscape:current-layer="layer1"
     showgrid="false"
     inkscape:window-width="1920"
     inkscape:window-height="1027"
     inkscape:window-x="-8"
     inkscape:window-y="-8"
     inkscape:window-maximized="1" />
  <metadata
     id="metadata2359">
    <rdf:RDF>
      <cc:Work
         rdf:about="">
        <dc:format>image/svg+xml</dc:format>
        <dc:type
           rdf:resource="http://purl.org/dc/dcmitype/StillImage" />
        <dc:title></dc:title>
      </cc:Work>
    </rdf:RDF>
  </metadata>
  <g
     inkscape:label="Layer 1"
     inkscape:groupmode="layer"
     id="layer1"
     transform="translate(-99.873924,-87.216266)">
    <path
       style="fill:#79288e;stroke-width:0.01496326"
       d="m 100.21116,96.196378 c -0.13808,-0.03093 -0.244536,-0.114313 -0.301787,-0.236385 l -0.03504,-0.07472 -1.46e-4,-3.452964 c -1.64e-4,-3.864931 -0.01012,-3.533793 0.10993,-3.656736 0.03423,-0.03505 0.0892,-0.07703 0.122163,-0.09328 0.0592,-0.02917 0.103,-0.02955 3.44616,-0.02955 h 3.38623 l 0.0674,0.03976 c 0.0901,0.05316 0.14139,0.10936 0.18174,0.199331 0.0284,0.06336 0.0345,0.108277 0.0401,0.295587 l 0.007,0.220871 0.40647,-0.40019 c 0.57548,-0.566583 1.01211,-0.970912 1.5601,-1.444688 0.28029,-0.242326 0.39015,-0.308139 0.56446,-0.338147 0.32012,-0.05511 0.67443,0.147428 0.84339,0.482127 0.12703,0.251637 0.10579,0.55354 -0.0539,0.765903 -0.0277,0.03689 -0.20213,0.197187 -0.38755,0.356217 -0.85784,0.735753 -1.79172,1.655931 -2.73957,2.699392 l -0.19645,0.216266 -0.004,2.071114 -0.004,2.071115 -0.0451,0.08795 c -0.028,0.05456 -0.0695,0.106493 -0.10929,0.136778 -0.1334,0.101469 0.12763,0.0946 -3.52299,0.09269 -1.81766,-9.53e-4 -3.31833,-0.0048 -3.33481,-0.0084 z m 6.59324,-0.426912 c 0.004,-0.01027 0.005,-0.811696 0.003,-1.780939 l -0.004,-1.762261 -0.38994,0.447255 c -0.21447,0.24599 -0.55376,0.637167 -0.75399,0.869281 -0.20023,0.232115 -0.39222,0.444491 -0.42665,0.471947 -0.26345,0.21008 -0.57093,0.242588 -0.8335,0.08812 -0.15043,-0.08849 -0.44441,-0.332361 -0.83232,-0.690443 -0.45151,-0.4168 -0.62834,-0.569759 -0.83783,-0.724735 -0.44293,-0.327678 -0.78741,-0.470409 -1.20868,-0.5008 -0.21109,-0.01523 -0.32016,-0.04754 -0.42204,-0.125038 -0.31364,-0.238585 -0.31137,-0.776931 0.005,-1.077465 0.16841,-0.1602 0.34083,-0.208742 0.65851,-0.185393 0.58586,0.04306 1.10721,0.273632 1.75305,0.775315 0.10301,0.08002 0.35593,0.289231 0.56204,0.464921 0.20611,0.17569 0.40745,0.346079 0.44742,0.378642 l 0.0727,0.05921 0.047,-0.05276 c 0.0259,-0.02902 0.14813,-0.183422 0.2717,-0.343127 0.49912,-0.645066 1.15319,-1.415859 1.76436,-2.079214 l 0.1311,-0.142298 v -0.398001 -0.398001 h -3.25887 -3.25887 v 3.36223 3.362231 h 3.25185 c 2.58769,0 3.25331,-0.0038 3.25898,-0.01868 z"
       id="path2481"
       inkscape:connector-curvature="0" />
  </g>
</svg>
