<?xml version="1.0" encoding="UTF-8" standalone="no"?>
<!-- Created with Inkscape (http://www.inkscape.org/) -->

<svg
   xmlns:dc="http://purl.org/dc/elements/1.1/"
   xmlns:cc="http://creativecommons.org/ns#"
   xmlns:rdf="http://www.w3.org/1999/02/22-rdf-syntax-ns#"
   xmlns:svg="http://www.w3.org/2000/svg"
   xmlns="http://www.w3.org/2000/svg"
   xmlns:sodipodi="http://sodipodi.sourceforge.net/DTD/sodipodi-0.dtd"
   xmlns:inkscape="http://www.inkscape.org/namespaces/inkscape"
   width="9.4201584mm"
   height="9.7260332mm"
   viewBox="0 0 9.4201583 9.7260332"
   version="1.1"
   id="svg2362"
   sodipodi:docname="lifting-5.svg"
   inkscape:version="0.92.3 (2405546, 2018-03-11)">
  <defs
     id="defs2356" />
  <sodipodi:namedview
     id="base"
     pagecolor="#ffffff"
     bordercolor="#666666"
     borderopacity="1.0"
     inkscape:pageopacity="0.0"
     inkscape:pageshadow="2"
     inkscape:zoom="2.8"
     inkscape:cx="-18.898049"
     inkscape:cy="62.222515"
     inkscape:document-units="mm"
     inkscape:current-layer="layer1"
     showgrid="false"
     inkscape:window-width="1920"
     inkscape:window-height="1027"
     inkscape:window-x="-8"
     inkscape:window-y="-8"
     inkscape:window-maximized="1" />
  <metadata
     id="metadata2359">
    <rdf:RDF>
      <cc:Work
         rdf:about="">
        <dc:format>image/svg+xml</dc:format>
        <dc:type
           rdf:resource="http://purl.org/dc/dcmitype/StillImage" />
        <dc:title></dc:title>
      </cc:Work>
    </rdf:RDF>
  </metadata>
  <g
     inkscape:label="Layer 1"
     inkscape:groupmode="layer"
     id="layer1"
     transform="translate(-120.59513,-87.043573)">
    <path
       style="fill:#79288e;stroke-width:0.01693859"
       d="m 126.36137,96.738806 c -0.0733,-0.04494 -0.14711,-0.169089 -0.24472,-0.411737 -0.15853,-0.394071 -0.35989,-0.682903 -0.76409,-1.09597 -0.13854,-0.141582 -0.34054,-0.331024 -0.44888,-0.420982 -0.3864,-0.320842 -0.80307,-0.596079 -0.96918,-0.640204 -0.071,-0.01886 -0.0831,-0.01783 -0.1133,0.0096 -0.0501,0.04554 -0.0604,0.155881 -0.0265,0.283481 0.063,0.237519 0.0766,0.320986 0.0866,0.533018 0.01,0.206081 0.008,0.228788 -0.0314,0.341371 -0.023,0.06633 -0.0699,0.16305 -0.10417,0.214924 -0.0984,0.148979 -0.29098,0.321705 -0.44274,0.397061 -0.12802,0.06356 -0.13748,0.06556 -0.31026,0.06556 -0.1701,0 -0.18408,-0.0028 -0.30685,-0.06174 -0.0707,-0.03396 -0.17128,-0.100565 -0.2234,-0.148013 -0.0521,-0.04745 -0.12601,-0.102284 -0.16419,-0.121859 -0.0993,-0.05092 -0.30937,-0.101426 -0.42187,-0.101426 -0.13636,0 -0.26348,-0.02722 -0.3713,-0.0795 -0.12271,-0.05951 -0.34496,-0.283485 -0.43718,-0.440594 -0.24501,-0.417383 -0.35095,-0.947748 -0.2888,-1.445892 0.0243,-0.194893 0.0718,-0.336989 0.15333,-0.459072 0.1225,-0.183366 0.11708,-0.220773 -0.11607,-0.80152 -0.15147,-0.377267 -0.20439,-0.575654 -0.21827,-0.818169 -0.0367,-0.641299 0.26502,-1.033357 0.79473,-1.032666 0.43232,5.59e-4 0.72056,0.228965 0.77586,0.614805 0.025,0.174817 -0.0111,0.287308 -0.13566,0.422584 -0.0959,0.104137 -0.25315,0.196982 -0.30181,0.178215 -0.0522,-0.02014 -0.017,-0.123009 0.0759,-0.221752 0.14062,-0.149443 0.15096,-0.296416 0.0311,-0.442525 -0.14789,-0.180332 -0.4324,-0.188116 -0.56323,-0.01541 -0.0461,0.06082 -0.0487,0.07317 -0.0478,0.22686 0.002,0.357404 0.15919,0.698756 0.5396,1.172967 0.44121,0.550005 0.91972,0.869691 1.57528,1.052422 0.23267,0.06486 0.40864,0.135295 0.68197,0.27299 0.46121,0.232342 0.98222,0.58642 1.26933,0.862631 0.0842,0.08104 0.11617,0.102755 0.12337,0.08389 0.005,-0.01399 -0.0136,-0.104452 -0.0422,-0.201012 -0.15956,-0.53987 -0.17764,-1.061664 -0.0512,-1.476555 0.0459,-0.150384 0.10128,-0.443649 0.10128,-0.535795 0,-0.06072 -0.006,-0.07552 -0.0296,-0.07535 -0.0429,2.88e-4 -0.14443,0.06238 -0.31043,0.189706 -0.2616,0.200666 -0.55491,0.353158 -0.90434,0.47017 -0.28671,0.09601 -0.51216,0.130817 -0.69823,0.10779 -0.35042,-0.04337 -0.61094,-0.198123 -0.79228,-0.470655 -0.16041,-0.241055 -0.22127,-0.486035 -0.22161,-0.89203 -5.4e-4,-0.664923 0.15546,-1.200596 0.48607,-1.668889 0.23679,-0.335394 0.45262,-0.722806 0.5282,-0.948104 0.0773,-0.230334 0.0116,-0.457154 -0.19283,-0.665653 -0.18147,-0.185114 -0.42154,-0.279904 -0.66116,-0.261057 -0.14309,0.01126 -0.22355,0.04347 -0.31425,0.125832 -0.11968,0.10868 -0.18379,0.281801 -0.18795,0.507568 -0.003,0.149289 0.04,0.246854 0.16702,0.381395 0.12172,0.128892 0.21727,0.17495 0.37947,0.182914 l 0.12876,0.0063 -0.0152,0.06801 c -0.0215,0.09605 -0.0543,0.15341 -0.12174,0.212965 -0.0781,0.06889 -0.16373,0.09573 -0.30643,0.096 -0.10022,1.98e-4 -0.13556,-0.0084 -0.23161,-0.05621 -0.26813,-0.133489 -0.51285,-0.451311 -0.5956,-0.773512 -0.0323,-0.125802 -0.0331,-0.371848 -0.002,-0.520963 0.12168,-0.57703 0.68085,-1.128583 1.38389,-1.36504 0.36392,-0.1224 0.70541,-0.138276 1.12732,-0.05241 1.20778,0.245801 2.28678,1.22973 2.58515,2.35736 0.0433,0.163607 0.0879,0.260735 0.12956,0.282229 0.0162,0.0084 0.0921,0.01984 0.16853,0.02548 0.66337,0.04897 1.08452,0.530027 1.18759,1.356518 0.0297,0.238236 0.0138,0.681442 -0.0303,0.846063 -0.0808,0.301406 -0.21165,0.55757 -0.3765,0.737331 -0.16499,0.179908 -0.42994,0.308919 -0.67854,0.330392 -0.47442,0.04098 -0.88886,-0.114031 -1.14906,-0.429778 -0.0469,-0.05694 -0.0909,-0.105775 -0.0978,-0.108511 -0.0151,-0.006 -0.0744,0.210211 -0.11938,0.435133 -0.0428,0.214053 -0.0585,0.550097 -0.0339,0.724617 0.0219,0.155533 0.0669,0.350055 0.0857,0.370482 0.007,0.0076 0.0341,-0.02294 0.0601,-0.06793 0.11224,-0.193646 0.31055,-0.409871 0.48636,-0.530304 0.12237,-0.08382 0.31283,-0.167008 0.47938,-0.209377 0.1315,-0.03345 0.1917,-0.03782 0.5204,-0.03777 0.32938,5.1e-5 0.38718,0.0043 0.50773,0.03718 0.30383,0.08292 0.64544,0.08945 1.05337,0.02013 0.32239,-0.05478 0.68254,-0.195049 0.92794,-0.361411 l 0.0899,-0.06095 0.0508,0.112712 c 0.15297,0.339111 0.16869,0.727148 0.0487,1.202231 -0.12544,0.496608 -0.41026,0.941602 -0.78498,1.226407 -0.13481,0.102466 -0.40662,0.234041 -0.57568,0.278675 -0.17387,0.0459 -0.51652,0.06195 -0.69731,0.03265 -0.4332,-0.07021 -0.76565,-0.312532 -0.95987,-0.69966 -0.1881,-0.374915 -0.1625,-0.773604 0.0682,-1.062226 0.0674,-0.08431 0.10748,-0.235757 0.0774,-0.292302 -0.046,-0.08636 -0.22024,-0.122232 -0.38618,-0.0795 -0.17861,0.04599 -0.28842,0.109892 -0.426,0.247905 -0.21282,0.213484 -0.293,0.426472 -0.29425,0.781597 -7.2e-4,0.209276 1.2e-4,0.214073 0.0599,0.339639 0.16781,0.352643 0.53364,0.808671 0.85879,1.070524 0.0749,0.06035 0.13631,0.11953 0.1364,0.131517 5.4e-4,0.0781 -0.19307,0.363533 -0.34932,0.51493 -0.16665,0.16146 -0.20708,0.177416 -0.30207,0.119194 z m -3.42023,-2.460279 c 0.0756,-0.03799 0.0863,-0.09302 0.0257,-0.132929 -0.0277,-0.01821 -0.11719,-0.03746 -0.24125,-0.05187 -0.30509,-0.03542 -0.49103,-0.113091 -0.69583,-0.290676 -0.0972,-0.08425 -0.16989,-0.09775 -0.16989,-0.03155 0,0.0279 0.0321,0.07049 0.10243,0.135948 0.32606,0.303426 0.7748,0.473534 0.97886,0.37107 z m 5.30323,-0.268922 c 0.27163,-0.0469 0.50887,-0.148848 0.29293,-0.125884 -0.18381,0.01955 -0.39849,0.0055 -0.50222,-0.03292 -0.0558,-0.02064 -0.15839,-0.04156 -0.22809,-0.04649 -0.11328,-0.008 -0.13074,-0.0051 -0.16472,0.02739 -0.0503,0.04815 -0.0509,0.128819 -9.1e-4,0.155646 0.0204,0.01096 0.0565,0.02585 0.0803,0.0331 0.0754,0.02301 0.36106,0.01708 0.52284,-0.01085 z m -2.73704,-2.713603 c 0.0946,-0.101234 0.11609,-0.390798 0.0474,-0.638857 -0.0867,-0.313135 -0.33472,-0.861146 -0.63323,-1.39937 -0.13076,-0.235783 -0.17287,-0.288294 -0.20516,-0.255844 -0.0109,0.01101 0.0127,0.08071 0.0689,0.203402 0.11336,0.247231 0.31928,0.7591 0.38379,0.954011 0.0718,0.217029 0.0859,0.323003 0.0921,0.693093 0.004,0.252341 0.0114,0.336595 0.0331,0.386609 0.0429,0.09922 0.14749,0.12717 0.21311,0.05696 z"
       id="path2464"
       inkscape:connector-curvature="0" />
  </g>
</svg>
