<svg xmlns="http://www.w3.org/2000/svg" viewBox="0 0 9.924 6.687"><path fill="#79288e" stroke-width=".013" d="M2.394 6.583c.346-.311.663-.762.788-1.118.07-.201.079-.276.07-.65-.007-.259.05-.465.229-.828a6.11 6.11 0 0 1 .606-.972l.127-.173a3.252 3.252 0 0 0-.27.172c-.918.612-1.67.913-2.277.914-.281 0-.511-.06-.812-.214C.35 3.457.102 3.088.017 2.47a7.423 7.423 0 0 1 0-1.012c.04-.291.12-.535.235-.72C.328.613.532.406.658.323c.207-.135.485-.254.7-.298.16-.032.409-.035.6-.006.676.102 1.515.521 2.46 1.23l.279.21.066-.014c.084-.018.287-.018.385 0 .06.01.081.01.1-.004l.26-.196c.42-.318.841-.587 1.244-.794C7.24.2 7.648.058 8.013.012a1.97 1.97 0 0 1 .63.032c.316.088.606.244.805.434.281.266.414.574.463 1.07.017.175.017.656 0 .831-.038.388-.139.685-.306.902a1.822 1.822 0 0 1-.332.315c-.2.134-.493.26-.711.305-.643.13-1.57-.194-2.649-.928a2.32 2.32 0 0 0-.213-.138l.11.149c.247.328.46.663.607.95.204.402.28.694.254.985-.027.317.043.58.247.92.131.22.278.405.504.634l.211.214-.584-.004-.585-.003-.103-.151c-.31-.452-.523-.91-.582-1.248a.812.812 0 0 1-.01-.25c.019-.213.013-.505-.014-.657-.08-.464-.322-1.19-.565-1.7l-.082-.172h-.296l-.038.075a8.804 8.804 0 0 0-.531 1.443c-.1.393-.121.629-.093 1.011.013.18-.006.305-.081.532-.087.264-.361.772-.566 1.048l-.056.075H2.28zM1.7 3.053c.515-.078 1.315-.326 2.4-.744l.345-.132-.01-.054a1.583 1.583 0 0 1 0-.338c.01-.034.007-.036-.236-.13-.862-.334-1.56-.567-2.079-.695-.316-.078-.507-.108-.696-.11C1.24.846 1.199.856.996.952c-.427.203-.727.543-.79.896a.478.478 0 0 0 .001.233c.064.348.363.689.78.888a.99.99 0 0 0 .287.104c.08.014.26.005.427-.02zm7.038 0c.192-.064.46-.223.617-.366.235-.214.386-.527.368-.762-.031-.398-.372-.79-.878-1.007C8.648.832 8.528.825 8.18.88c-.512.081-1.512.397-2.478.783l-.224.09.01.059c.012.06.006.305-.008.341-.01.022.165.094.774.318.969.358 1.681.558 2.155.607.091.01.266-.005.331-.026z"/></svg>