<?xml version="1.0" encoding="UTF-8" standalone="no"?>
<!-- Created with Inkscape (http://www.inkscape.org/) -->

<svg
   xmlns:dc="http://purl.org/dc/elements/1.1/"
   xmlns:cc="http://creativecommons.org/ns#"
   xmlns:rdf="http://www.w3.org/1999/02/22-rdf-syntax-ns#"
   xmlns:svg="http://www.w3.org/2000/svg"
   xmlns="http://www.w3.org/2000/svg"
   xmlns:sodipodi="http://sodipodi.sourceforge.net/DTD/sodipodi-0.dtd"
   xmlns:inkscape="http://www.inkscape.org/namespaces/inkscape"
   width="8.4551868mm"
   height="8.9689627mm"
   viewBox="0 0 8.4551868 8.9689627"
   version="1.1"
   id="svg2362"
   sodipodi:docname="lifting-4.svg"
   inkscape:version="0.92.3 (2405546, 2018-03-11)">
  <defs
     id="defs2356" />
  <sodipodi:namedview
     id="base"
     pagecolor="#ffffff"
     bordercolor="#666666"
     borderopacity="1.0"
     inkscape:pageopacity="0.0"
     inkscape:pageshadow="2"
     inkscape:zoom="2.8"
     inkscape:cx="17.032699"
     inkscape:cy="58.155346"
     inkscape:document-units="mm"
     inkscape:current-layer="layer1"
     showgrid="false"
     inkscape:window-width="1920"
     inkscape:window-height="1027"
     inkscape:window-x="-8"
     inkscape:window-y="-8"
     inkscape:window-maximized="1" />
  <metadata
     id="metadata2359">
    <rdf:RDF>
      <cc:Work
         rdf:about="">
        <dc:format>image/svg+xml</dc:format>
        <dc:type
           rdf:resource="http://purl.org/dc/dcmitype/StillImage" />
        <dc:title></dc:title>
      </cc:Work>
    </rdf:RDF>
  </metadata>
  <g
     inkscape:label="Layer 1"
     inkscape:groupmode="layer"
     id="layer1"
     transform="translate(-111.08845,-86.724538)">
    <path
       style="fill:#79288e;stroke-width:0.01361519"
       d="m 114.36486,95.690726 c -0.26439,-0.03841 -0.54862,-0.154456 -0.69401,-0.283348 -0.11984,-0.106234 -0.18396,-0.296702 -0.17666,-0.52475 0.004,-0.136316 0.009,-0.156212 0.0506,-0.23994 0.058,-0.115532 0.12314,-0.162831 0.22437,-0.162831 0.0653,0 0.071,0.0031 0.12455,0.06666 0.0952,0.112973 0.27794,0.280249 0.35583,0.325631 0.0408,0.02375 0.10297,0.05066 0.13822,0.0598 0.21254,0.05512 0.37156,-0.163243 0.42341,-0.581421 0.009,-0.07128 0.0142,-0.611823 0.0142,-1.436367 l 8e-5,-1.32208 -0.11724,-0.11063 c -0.53837,-0.508008 -1.11834,-0.509576 -1.66012,-0.0045 l -0.12246,0.114161 -0.0289,-0.03998 c -0.0605,-0.08373 -0.24003,-0.253802 -0.33003,-0.312566 -0.0516,-0.03368 -0.13817,-0.07716 -0.19242,-0.09662 -0.0868,-0.03112 -0.1193,-0.03538 -0.27044,-0.03539 -0.14148,-1.5e-5 -0.19001,0.0055 -0.2749,0.03148 -0.20066,0.06131 -0.40373,0.177104 -0.62029,0.353708 -0.0957,0.07805 -0.11575,0.08946 -0.11928,0.06789 -0.008,-0.0456 0.038,-0.428087 0.0736,-0.619052 0.10207,-0.547637 0.24826,-0.981435 0.48494,-1.438998 0.4968,-0.960421 1.25986,-1.590758 2.30017,-1.900099 0.20997,-0.06244 0.52934,-0.124331 0.79362,-0.153808 l 0.21199,-0.02364 0.11788,-0.346076 c 0.0648,-0.190343 0.1213,-0.349346 0.12548,-0.353341 0.004,-0.004 0.0894,0.140363 0.18945,0.320794 l 0.18186,0.328058 0.14528,0.0092 c 0.75467,0.04788 1.44545,0.258749 2.00482,0.612004 0.3753,0.237013 0.76006,0.611943 1.02045,0.994391 0.45221,0.664166 0.75434,1.587002 0.79673,2.43351 l 0.008,0.167693 -0.10186,-0.08455 c -0.64443,-0.534971 -1.18844,-0.541051 -1.74477,-0.0195 l -0.10933,0.102501 -0.063,-0.05228 c -0.16351,-0.135632 -0.34913,-0.263813 -0.46391,-0.320356 -0.43968,-0.216609 -0.81407,-0.13233 -1.27723,0.287521 l -0.0928,0.0841 v 1.479999 c 0,1.302089 -0.003,1.495282 -0.0222,1.607131 -0.10468,0.598483 -0.54119,0.997735 -1.1117,1.016805 -0.0832,0.0028 -0.16974,0.0024 -0.19242,-9.38e-4 z"
       id="path2479"
       inkscape:connector-curvature="0" />
  </g>
</svg>
