<svg xmlns="http://www.w3.org/2000/svg" viewBox="0 0 9.257 9.753"><path fill="#79288e" stroke-width=".014" d="M1.741 9.744c-.295-.006-.75-.017-1.01-.024L.26 9.71l-.078-.042a.235.235 0 0 1-.118-.115c-.056-.103-.076-.3-.055-.557.027-.332.084-.424.312-.5.314-.106.537-.283.65-.515a.803.803 0 0 0 .083-.393c0-.14-.003-.163-.036-.233a1.344 1.344 0 0 0-.182-.239c-.233-.26-.319-.41-.356-.629a.67.67 0 0 1-.007-.236 1.05 1.05 0 0 1 .466-.738c.074-.045.103-.071.118-.108.03-.075.004-.103-.152-.167-.23-.094-.37-.212-.384-.328-.019-.144.104-.255.411-.37.127-.049.17-.084.17-.142 0-.064-.022-.092-.112-.139a.876.876 0 0 1-.215-.179.81.81 0 0 1-.193-.27.745.745 0 0 1-.09-.422c.012-.238.08-.368.34-.652.217-.238.27-.377.253-.669a.952.952 0 0 0-.263-.623c-.148-.154-.28-.232-.53-.312C.025 1.045.004 1 .014.527.02.289.022.267.056.193.11.068.118.066.522.059l1.84-.033a88.606 88.606 0 0 1 4.268 0c.925.015 1.865.03 2.088.032l.406.006.035.036c.047.049.07.15.088.383.017.233.008.431-.024.514-.028.071-.084.102-.229.126a1.11 1.11 0 0 0-.808.658c-.033.086-.036.112-.036.27.001.248.031.337.205.606.2.31.264.47.263.667 0 .27-.113.505-.378.784-.108.114-.142.159-.142.187 0 .02.006.044.013.051.007.008.074.03.148.049.16.042.307.12.364.192a.293.293 0 0 1 .03.272c-.046.125-.216.257-.395.308-.207.059-.213.088-.034.185a.77.77 0 0 1 .348.483c.038.145.035.44-.006.577-.057.189-.106.273-.322.549a1.775 1.775 0 0 0-.153.218c-.092.244-.064.672.061.927.11.223.308.383.56.45.047.013.15.028.23.034.172.013.223.036.262.115.038.076.06.31.051.552-.005.17-.01.201-.04.26a.2.2 0 0 1-.107.105c-.118.061-.319.095-.658.111-.39.018-5.995.028-6.709.011zm3.82-.336c1.748-.03 2.731-.068 2.897-.113.117-.032.168-.13.103-.193-.045-.044-.088-.057-.244-.074-.302-.033-.694-.041-2.817-.058-2.7-.021-3.902-.005-4.405.059-.165.021-.303.053-.365.086-.098.051-.056.14.085.18.311.087 2.805.146 4.746.113zm-3.2-.723c.03-.022.03-.022-.049-.455a.822.822 0 0 1-.014-.33c.042-.398.23-.745.641-1.184.08-.084.306-.303.505-.487.383-.355.623-.599.657-.668.04-.082.009-.112-.371-.359-.254-.164-.314-.22-.314-.291 0-.08.093-.163.28-.249.354-.162.429-.216.429-.309 0-.065-.026-.094-.174-.2a4.305 4.305 0 0 1-.645-.567 3.64 3.64 0 0 1-.525-.644c-.235-.363-.373-.73-.394-1.052-.007-.12-.005-.137.048-.315.065-.223.069-.263.022-.285-.048-.023-.2.017-.338.087-.232.12-.432.312-.523.5a.376.376 0 0 0-.05.237c.002.221.07.417.192.557.273.313.367.534.354.83-.013.288-.171.543-.448.725-.121.08-.134.095-.134.16 0 .07.027.092.224.189.295.145.382.26.312.41-.047.103-.208.203-.437.271-.106.031-.137.047-.152.075-.03.054.01.125.113.2.183.135.316.321.378.53.04.135.043.392.006.534a1.46 1.46 0 0 1-.282.52c-.16.204-.197.276-.217.429-.045.331.112.708.39.937.11.09.267.176.367.201.105.026.118.027.15.003zm4.453-.097c.187-.097.403-.278.518-.432.224-.3.273-.686.128-.992a2.631 2.631 0 0 0-.184-.282c-.229-.314-.27-.426-.27-.737-.001-.212.024-.325.106-.485a.8.8 0 0 1 .301-.308c.164-.077.177-.086.182-.117.005-.038-.018-.051-.169-.096a.723.723 0 0 1-.315-.166c-.174-.164-.143-.354.082-.504a.823.823 0 0 1 .362-.124c.113-.014.151-.03.151-.063 0-.021-.08-.099-.19-.185a1.452 1.452 0 0 1-.318-.339c-.195-.335-.134-.784.153-1.122a.99.99 0 0 0 .262-.575.607.607 0 0 0-.006-.241.944.944 0 0 0-.466-.64c-.097-.05-.22-.077-.268-.058-.076.03-.083.078-.044.327.077.497-.172 1.113-.704 1.744-.191.227-.307.343-.686.687-.525.477-.548.5-.531.528.007.013.105.074.218.135.502.276.564.34.444.452-.067.063-.151.118-.39.256-.344.199-.41.26-.352.335.06.078.297.276.727.608.593.459.842.719 1.01 1.057.096.19.135.342.144.555.01.28-.038.476-.153.617-.065.08-.081.116-.07.159.02.083.176.086.328.006zm-.662-.718a.623.623 0 0 0 .054-.317.482.482 0 0 0-.061-.242c-.15-.318-.407-.583-.888-.914-.348-.24-.546-.332-.599-.278-.023.025-.02.141.011.329.055.33.177.612.309.716.038.03.117.067.213.1.31.106.531.237.692.41.05.052.106.128.126.169.057.117.098.125.143.027zM3 7.813c.024-.026.07-.08.102-.12.033-.04.094-.1.136-.133.14-.11.22-.147.443-.205.236-.06.224-.056.306-.124.142-.118.282-.368.323-.58.037-.187.011-.517-.043-.564-.016-.014-.061.012-.236.133-.29.201-.624.46-.753.585-.202.195-.366.461-.413.669a.77.77 0 0 0-.016.206c.01.177.066.227.151.133zM1.375 6.7a.486.486 0 0 0 .168-.214c.05-.149.013-.336-.082-.428-.149-.144-.385-.093-.49.104-.108.202 0 .47.222.554a.225.225 0 0 0 .182-.016zm6.547-.174c.22-.116.266-.491.08-.656-.122-.107-.278-.097-.403.026-.077.076-.103.143-.103.263 0 .125.03.207.108.288.099.101.219.131.318.079zM1.354 3.794a.336.336 0 0 0 .21-.206.54.54 0 0 0-.013-.369c-.069-.138-.18-.239-.262-.239-.094 0-.217.11-.281.252a.499.499 0 0 0-.003.37c.051.11.167.198.27.206.01.001.046-.005.079-.014zm6.674-.175a.266.266 0 0 0 .107-.125c.076-.153.05-.347-.07-.507-.046-.064-.137-.12-.194-.12-.058 0-.105.028-.174.101-.17.182-.187.464-.037.613.07.07.12.089.226.083a.258.258 0 0 0 .142-.045zm-3.258-.71c.307-.025.565-.096.8-.218.327-.17.589-.423.725-.705.108-.222.114-.367.024-.56-.065-.138-.132-.22-.214-.26-.122-.062-.207-.031-.565.204-.403.266-.646.343-1.026.326-.276-.013-.484-.08-.866-.277a2.825 2.825 0 0 0-.244-.115.381.381 0 0 0-.281.003.664.664 0 0 0-.248.29.394.394 0 0 0-.05.224.37.37 0 0 0 .054.225c.068.138.24.33.41.455.295.217.712.373 1.086.407.181.017.205.017.395.001zM6.48.828C7.884.81 8.418.788 8.565.741c.067-.02.123-.078.123-.125S8.625.51 8.553.49C8.33.43 7.166.394 4.99.383 2.767.37 1.243.405.79.478.636.502.551.574.593.644c.056.093.533.16 1.322.183.54.016 3.324.017 4.566.001z"/></svg>