<?xml version="1.0" encoding="UTF-8" standalone="no"?>
<!-- Created with Inkscape (http://www.inkscape.org/) -->

<svg
   xmlns:dc="http://purl.org/dc/elements/1.1/"
   xmlns:cc="http://creativecommons.org/ns#"
   xmlns:rdf="http://www.w3.org/1999/02/22-rdf-syntax-ns#"
   xmlns:svg="http://www.w3.org/2000/svg"
   xmlns="http://www.w3.org/2000/svg"
   xmlns:sodipodi="http://sodipodi.sourceforge.net/DTD/sodipodi-0.dtd"
   xmlns:inkscape="http://www.inkscape.org/namespaces/inkscape"
   width="9.516613mm"
   height="8.1802006mm"
   viewBox="0 0 9.516613 8.1802006"
   version="1.1"
   id="svg2362"
   inkscape:version="0.92.3 (2405546, 2018-03-11)"
   sodipodi:docname="lifting-1.svg">
  <defs
     id="defs2356" />
  <sodipodi:namedview
     id="base"
     pagecolor="#ffffff"
     bordercolor="#666666"
     borderopacity="1.0"
     inkscape:pageopacity="0.0"
     inkscape:pageshadow="2"
     inkscape:zoom="2.8"
     inkscape:cx="68.178205"
     inkscape:cy="82.542794"
     inkscape:document-units="mm"
     inkscape:current-layer="layer1"
     showgrid="false"
     inkscape:window-width="1920"
     inkscape:window-height="1027"
     inkscape:window-x="-8"
     inkscape:window-y="-8"
     inkscape:window-maximized="1" />
  <metadata
     id="metadata2359">
    <rdf:RDF>
      <cc:Work
         rdf:about="">
        <dc:format>image/svg+xml</dc:format>
        <dc:type
           rdf:resource="http://purl.org/dc/dcmitype/StillImage" />
        <dc:title></dc:title>
      </cc:Work>
    </rdf:RDF>
  </metadata>
  <g
     inkscape:label="Layer 1"
     inkscape:groupmode="layer"
     id="layer1"
     transform="translate(-77.772811,-87.258632)">
    <path
       style="fill:#79288e;stroke-width:0.01120512"
       d="m 79.920363,95.419269 c -0.26081,-0.08846 -0.498061,-0.436953 -0.711593,-1.045252 -0.170858,-0.486733 -0.334757,-1.222204 -0.40687,-1.825769 -0.03254,-0.272343 -0.02262,-0.342255 0.06789,-0.47836 0.0605,-0.09098 0.289719,-0.31169 0.452007,-0.435221 0.171476,-0.130525 0.514024,-0.355655 0.738129,-0.485115 l 0.17251,-0.09965 -0.04807,-0.0025 c -0.534597,-0.02835 -0.799351,-0.05317 -1.043561,-0.09781 -0.383162,-0.07004 -0.540275,-0.139707 -0.64001,-0.283801 -0.142461,-0.205825 -0.235591,-0.537942 -0.366901,-1.308425 -0.0654,-0.383736 -0.08577,-0.450146 -0.192846,-0.62865 -0.139155,-0.231983 -0.169423,-0.336556 -0.168202,-0.581129 0.0017,-0.349314 0.07002,-0.61508 0.190466,-0.741421 0.09978,-0.104662 0.221478,-0.147455 0.419565,-0.147534 0.215111,-8.7e-5 0.448156,0.0549 0.784289,0.185049 0.328038,0.127017 1.128899,0.524954 1.382026,0.686712 0.513543,0.328173 1.021531,0.939887 1.486139,1.789592 0.09088,0.166212 0.26508,0.521207 0.283034,0.57679 0.01103,0.03416 0.036,0.05116 0.06286,0.0428 0.03806,-0.01185 0.03811,-0.05015 2.09e-4,-0.150395 -0.04495,-0.118893 -0.04331,-0.193282 0.0054,-0.243144 l 0.0314,-0.03216 -0.261928,-0.59746 c -0.144061,-0.328604 -0.277426,-0.618872 -0.296367,-0.645042 -0.0357,-0.04932 -0.07768,-0.152066 -0.07768,-0.190113 0,-0.06261 0.06262,-0.02126 0.101259,0.06686 0.01315,0.02998 0.028,0.07569 0.03302,0.101572 0.005,0.02588 0.127757,0.317412 0.272763,0.64784 l 0.263647,0.600779 0.03887,-0.01053 c 0.02138,-0.0058 0.05701,-0.0089 0.07917,-0.007 l 0.0403,0.0035 0.263595,-0.599341 c 0.144976,-0.329637 0.263878,-0.61039 0.264226,-0.623896 0.0011,-0.04126 0.04374,-0.140251 0.07766,-0.180108 0.03341,-0.03927 0.05872,-0.03915 0.05872,2.67e-4 0,0.03742 -0.04297,0.143877 -0.07439,0.18429 -0.01651,0.02124 -0.148749,0.309149 -0.293862,0.639801 -0.257468,0.586664 -0.263345,0.601721 -0.24333,0.623383 0.0573,0.06202 0.06035,0.132222 0.01141,0.262459 -0.03712,0.09877 -0.03664,0.1366 0.0019,0.148601 0.03328,0.01036 0.04653,-0.0065 0.100588,-0.128039 0.190298,-0.427864 0.534084,-1.014664 0.805932,-1.375622 0.28144,-0.373694 0.6088,-0.698069 0.897165,-0.888984 0.187749,-0.124301 0.913094,-0.494603 1.243706,-0.634935 0.307804,-0.13065 0.561516,-0.211562 0.757927,-0.241712 0.114936,-0.01764 0.304608,-0.01479 0.383774,0.0058 0.141825,0.03684 0.256604,0.12984 0.318376,0.257951 0.06193,0.12845 0.116922,0.508031 0.102382,0.70676 -0.01358,0.185643 -0.04587,0.277837 -0.173283,0.494828 -0.112324,0.19129 -0.110477,0.184307 -0.240788,0.910109 -0.121955,0.679266 -0.256813,1.030741 -0.438975,1.144085 -0.148403,0.09234 -0.443559,0.1628 -0.875884,0.209097 -0.174456,0.01868 -0.319353,0.0289 -0.684781,0.04828 l -0.04808,0.0025 0.170792,0.09883 c 0.670178,0.387817 1.129437,0.763012 1.249854,1.021073 0.02379,0.05098 0.02899,0.07855 0.02851,0.151 -0.0018,0.264495 -0.132861,1.01475 -0.266655,1.526014 -0.226034,0.863741 -0.508775,1.401285 -0.814805,1.549101 -0.06231,0.0301 -0.0924,0.03744 -0.169678,0.04142 -0.494602,0.02547 -0.976449,-0.426471 -1.389236,-1.303014 -0.180623,-0.383548 -0.273047,-0.637585 -0.499566,-1.373108 -0.202641,-0.657988 -0.269919,-0.843032 -0.32395,-0.891007 -0.05534,-0.04914 -0.06622,0.02013 -0.07685,0.489356 -0.0084,0.37098 -0.0108,0.40399 -0.0335,0.461485 -0.0699,0.17703 -0.200476,0.21521 -0.295566,0.08642 -0.06533,-0.08848 -0.07009,-0.121738 -0.07996,-0.559003 -0.01019,-0.451377 -0.02151,-0.524693 -0.07438,-0.481646 -0.05305,0.0432 -0.133481,0.26486 -0.337866,0.931152 -0.159315,0.519363 -0.24103,0.760064 -0.337229,0.993351 -0.253324,0.614324 -0.498787,1.020807 -0.787906,1.30476 -0.18763,0.184277 -0.382433,0.2973 -0.571054,0.331319 -0.09983,0.01801 -0.229277,0.01445 -0.295855,-0.0081 z"
       id="path2485"
       inkscape:connector-curvature="0" />
  </g>
</svg>
