<svg xmlns="http://www.w3.org/2000/svg" viewBox="0 0 343.958 472.355"><defs><clipPath id="a" clipPathUnits="userSpaceOnUse"><path d="M0 74.824h558.74V0H0z"/></clipPath></defs><path d="M177.714 471.97c-1.281-.456-1.297-.475-1.092-1.293.28-1.114.723-1.317 2.188-1.003 1.73.371 3.025 0 3.846-1.1 1.46-1.958 1.656-1.201-2.858-11.099-2.336-5.123-4.02-9.133-3.89-9.264.127-.126.804-.193 1.505-.148l1.275.082 3.088 7.092c1.7 3.9 3.224 7.226 3.39 7.391.224.225.372.104.584-.476.156-.428 1.437-3.754 2.848-7.392l2.563-6.615 1.39-.08c1.054-.06 1.389.01 1.389.292 0 .414-7.392 18.704-8.196 20.28-.789 1.547-1.865 2.688-3.038 3.22-1.27.577-3.547.629-4.992.114zm111.01-11.72l.069-12.105h2.646l.08 1.39c.043.764.15 1.389.234 1.389.086 0 .684-.487 1.33-1.082 1.71-1.576 3.195-2.152 5.552-2.152 1.66 0 2.217.126 3.637.825 1.967.969 3.374 2.424 4.344 4.493.614 1.311.697 1.817.697 4.266 0 2.448-.083 2.954-.697 4.265-.974 2.077-2.379 3.525-4.374 4.507-1.44.71-2.005.84-3.622.84-2.203 0-4.192-.756-5.688-2.163-.488-.46-.994-.835-1.125-.835-.13 0-.236 1.905-.236 4.233v4.234h-2.916zm12.3 3.41c4.395-2.242 4.693-9.542.505-12.39-3.018-2.054-6.982-1.097-9.032 2.179-.693 1.106-.805 1.558-.882 3.539-.08 2.071-.022 2.395.662 3.697 1.75 3.331 5.529 4.617 8.746 2.976zM7.958 466.655c-1.626-.45-2.783-1.1-3.71-2.088-.849-.902-1.074-.855-1.074.226 0 1.54-.187 1.742-1.616 1.742H.265V440.34h1.137c.626 0 1.28.143 1.455.318.225.224.318 1.775.318 5.291 0 2.736.096 4.975.213 4.975.117 0 .623-.427 1.124-.95 3.097-3.224 8.34-3.09 11.729.299 3.662 3.662 3.577 10.527-.177 14.194-2.153 2.104-5.319 2.958-8.105 2.187zm3.75-2.614c2.667-.952 4.24-3.383 4.268-6.597.023-2.571-.58-4.07-2.237-5.56-2.786-2.504-6.61-2.221-9.088.674-3.327 3.887-1.56 10.14 3.283 11.613 1.036.315 2.685.258 3.773-.13zm33.329 2.757c-6.409-1.347-9.306-9.415-5.478-15.255 2.105-3.21 5.977-4.61 9.84-3.554 3.284.897 5.898 4.798 5.898 8.805v1.539l-6.946.004c-3.82.003-7.103.104-7.296.227-.276.175-.29.448-.067 1.278 1.207 4.483 6.824 6.025 10.936 3.001.783-.576 1.185-.72 1.514-.545.703.376 1.138 1.02.975 1.443-.23.601-2.557 2.203-3.85 2.65-1.499.518-4.088.71-5.526.407zm7.293-11.376c.113-.972-1.247-3.424-2.41-4.348-.88-.698-1.26-.813-2.91-.883-2.274-.096-3.485.47-4.857 2.267-.884 1.16-1.562 3.031-1.27 3.505.103.165 2.251.237 5.767.192l5.604-.071zm26.593 11.375c-3.182-.66-5.088-2.812-5.1-5.76-.007-1.72.453-2.842 1.617-3.947 1.78-1.691 4.699-2.355 8.432-1.918 1.237.145 2.487.29 2.778.323.463.052.523-.082.478-1.075-.157-3.472-4.056-4.986-8.95-3.475-1.975.61-2.187.534-2.415-.872l-.152-.938 1.815-.626c2.304-.796 7.009-.876 8.619-.147a6.715 6.715 0 0 1 3.398 3.42c.566 1.288.62 1.84.726 7.402.063 3.305.037 6.318-.057 6.695-.159.631-.27.678-1.42.604-1.235-.08-1.25-.09-1.33-1.073-.046-.545-.143-.992-.217-.992-.073 0-.52.295-.99.654-1.978 1.508-4.908 2.208-7.232 1.725zm4.49-2.48c1.648-.495 2.75-1.33 3.375-2.556.587-1.15.697-3.22.193-3.636-.443-.365-3.16-.85-4.76-.85-2.047 0-3.603.508-4.597 1.502-.777.777-.896 1.07-.896 2.206 0 1.057.14 1.467.728 2.12 1.301 1.447 3.617 1.919 5.958 1.215zm32.56 2.479c-1.562-.32-2.496-.86-3.602-2.085-1.6-1.771-1.797-2.946-1.715-10.233l.07-6.332 1.165-.083c.753-.054 1.243.04 1.385.265.122.191.225 3.027.23 6.3.01 5.218.071 6.087.5 7.033 1.677 3.69 7.355 3.548 9.349-.235.54-1.023.595-1.58.725-7.194l.14-6.086h2.382v18.257h-1.19c-1.169 0-1.193-.018-1.276-.926-.128-1.393-.448-1.514-1.426-.538-1.596 1.593-4.335 2.348-6.737 1.857zm140.75.003c-3.154-.659-5.094-2.825-5.094-5.688 0-4.322 3.942-6.653 10.043-5.939 1.237.145 2.487.29 2.778.323.794.09.826-1.265.064-2.706-1.234-2.334-4.587-3.076-8.441-1.868-.923.29-1.748.527-1.833.53-.234.005-.77-1.275-.77-1.837 0-.744 2.78-1.616 5.704-1.789 3.309-.196 5.03.315 6.706 1.992 1.853 1.852 2.01 2.647 2.01 10.236v6.35h-2.646l-.082-.993c-.046-.545-.135-.992-.198-.992-.064 0-.682.402-1.374.892-1.975 1.402-4.58 1.966-6.867 1.489zm5.614-2.911c1.795-.87 2.598-2.08 2.727-4.113l.106-1.67-1.154-.335c-.635-.183-2.344-.34-3.8-.348-3.034-.017-4.338.438-5.205 1.816-.716 1.139-.537 3.13.362 4.03 1.498 1.497 4.583 1.772 6.964.62zm70.772 2.768c-5.478-1.529-8.188-7.495-6.035-13.283.599-1.61 2.749-4.098 4.166-4.82 2.279-1.163 5.652-1.184 7.876-.05 1.161.592 2.99 2.466 3.647 3.737.502.972 1.183 3.965 1.19 5.233l.004.86h-6.857c-3.772 0-7.046.072-7.276.16-.952.366-.14 2.71 1.476 4.258 2.378 2.28 6.527 2.252 9.277-.062.712-.599.86-.633 1.348-.309 1.197.795 1.19 1.211-.04 2.313-2.16 1.935-5.888 2.769-8.776 1.963zm7.626-11.172c.221-1.557-1.58-4.269-3.318-4.997-1.288-.539-3.425-.446-4.777.208-1.295.627-2.552 2.17-3.008 3.692-.561 1.873-.636 1.849 5.522 1.769 5.486-.072 5.496-.073 5.581-.672zm-189.393 10.74c-.777-.402-1.395-.982-1.782-1.673-.566-1.012-.592-1.333-.596-7.327-.004-4.632-.088-6.32-.326-6.467-.177-.11-.743-.267-1.257-.35-.889-.145-.935-.205-.935-1.207 0-1.05.003-1.054 1.123-1.135 1.317-.095 1.356-.187 1.456-3.358l.067-2.117h2.381l.067 2.117c.11 3.536-.104 3.307 3.108 3.307 2.71 0 2.771.014 2.93.643.088.353.082.889-.014 1.19-.159.501-.378.548-2.554.548-3.629 0-3.405-.379-3.403 5.765 0 2.868.126 5.663.278 6.21.42 1.515 1.2 1.888 3.567 1.71l1.974-.15v1.006c0 .587-.171 1.147-.412 1.347-.226.188-1.327.39-2.447.448-1.741.091-2.208.018-3.225-.508zm75.675-.02c-2.332-1.191-2.651-2.412-2.651-10.128 0-5.872.054-5.68-1.625-5.68-.762 0-.784-.036-.706-1.125.08-1.096.108-1.128 1.14-1.257l1.058-.132.067-2.117c.104-3.309.124-3.35 1.595-3.255l1.249.08.132 2.646.132 2.646 2.778.132 2.779.132.08 1.125.082 1.124h-2.608c-1.676 0-2.721.114-2.925.318-.227.226-.318 1.866-.318 5.697 0 7.4.235 7.877 3.8 7.703l1.889-.092.082 1c.076.922.012 1.028-.851 1.389-1.426.595-3.795.501-5.18-.206zM101.07 426.038c-4.14-.516-8.381-1.94-11.621-3.903-2.248-1.362-5.048-3.469-5.048-3.798 0-.357 4.736-6.043 5.034-6.043.124 0 1.156.673 2.292 1.495 2.327 1.682 5.573 3.303 7.909 3.95 2.432.672 7.088.804 8.98.253 4.046-1.175 6.034-4.374 4.774-7.675-.998-2.613-3.368-3.855-11.282-5.915-11.984-3.118-15.855-6.682-15.855-14.597 0-4.12 1.121-6.93 3.868-9.69 1.782-1.791 4.878-3.501 7.58-4.185 4.96-1.255 11.964-.507 17.257 1.843 1.817.807 5.956 3.438 5.956 3.787 0 .333-4.197 6.243-4.51 6.35-.143.05-.92-.349-1.727-.884-4.051-2.69-8.142-3.957-12.235-3.793-2.28.092-2.839.211-4.175.895-1.962 1.003-3.04 2.456-3.221 4.34-.256 2.658 1.147 4.7 4.14 6.023.798.353 3.829 1.297 6.736 2.099 6.069 1.672 9.18 2.927 11.676 4.708 3.266 2.331 4.628 4.946 4.832 9.277.223 4.756-1.033 8.137-4.084 10.991-1.971 1.844-4.61 3.256-7.433 3.978-2.376.607-7.05.842-9.843.494zm56.976-.096c-9.83-1.869-17.365-9.133-19.859-19.14-.324-1.304-.442-2.921-.437-6.017.005-3.715.09-4.548.695-6.802 2.105-7.849 8.245-14.58 15.724-17.237 3.33-1.184 6.117-1.567 10.4-1.43 7.346.236 12.608 2.422 17.354 7.208 5.03 5.073 7.357 10.862 7.34 18.261-.013 5.384-1.12 9.42-3.734 13.625-1.473 2.367-4.6 5.712-6.823 7.3-2.157 1.54-5.601 3.156-8.183 3.839-2.727.722-9.61.939-12.477.393zm10.545-8.353c3.51-1.09 7.292-4.162 9.204-7.476 1.925-3.334 2.79-8.379 2.125-12.37-.941-5.638-4.41-10.517-9.089-12.785-2.653-1.287-4.34-1.637-7.716-1.605-3.72.035-6.337.823-9.037 2.72-4.493 3.155-6.923 7.831-7.164 13.786-.233 5.77 1.27 9.819 5.059 13.636 2.51 2.528 4.996 3.906 8.119 4.499 2.484.471 6.255.292 8.499-.405zm143.616 8.21c-5.836-1.248-10.693-4.184-14.262-8.62-3.899-4.848-5.603-9.738-5.62-16.128-.011-4.8.702-8.046 2.62-11.908 1.732-3.486 5.147-7.42 8.365-9.633 1.875-1.29 5.362-2.869 7.707-3.488 3.212-.848 9.48-.995 12.835-.3 5.204 1.078 9.437 3.41 13.046 7.187 4.58 4.795 6.731 9.927 6.99 16.685.224 5.816-1.01 10.57-3.904 15.045-3.832 5.925-9.403 9.753-16.267 11.177-3.16.656-8.4.648-11.51-.017zm10.549-8.064c5.671-1.525 10.294-6.588 11.593-12.698.619-2.907.354-7.927-.546-10.372-1.09-2.959-1.953-4.302-4.248-6.61-3.45-3.473-6.475-4.71-11.527-4.717-2.395-.003-3.437.12-4.895.575-8.061 2.517-12.938 11.056-11.42 19.998 1.27 7.492 6.654 13.091 13.656 14.206 1.882.299 5.561.109 7.387-.382zM0 400.776v-24.76l13.295.093c12.692.09 13.39.12 15.36.67 5.77 1.61 9.843 5.43 11.204 10.512 1.008 3.758.602 8.4-1.023 11.713-1.405 2.865-4.362 5.489-7.859 6.973-1.248.53-1.735.873-1.72 1.213.01.26 2.737 4.284 6.058 8.94 3.321 4.658 6.094 8.676 6.162 8.93.115.43-.237.464-4.755.464-4.726 0-4.897-.019-5.415-.596-.295-.327-2.992-4.061-5.994-8.297-3.003-4.237-5.625-7.841-5.83-8.01-.259-.215-1.897-.286-5.494-.235l-5.125.072-.133 8.467-.132 8.466-4.3.073-4.299.073zm26.653-1.282c3.381-1.562 5.037-4.384 4.77-8.128-.24-3.351-2.226-5.705-5.726-6.79-1.27-.392-2.614-.46-9.16-.46H8.863l-.07 8.15-.07 8.15 8.14-.08 8.14-.08zm31.98 25.611c-.21-.547-.21-48.093 0-48.64.241-.628 8.434-.628 8.675 0 .21.547.21 48.093 0 48.64-.137.357-.772.419-4.337.419-3.565 0-4.2-.062-4.337-.419zm148.396.095c-.071-.186-.098-11.292-.06-24.68l.067-24.341h12.965c14.694 0 15.278.062 19.222 2.036 6.887 3.447 9.87 11.59 7.115 19.428-1.176 3.346-4.53 6.676-8.345 8.286-1.338.565-1.848.914-1.838 1.259.007.262 2.734 4.286 6.06 8.943 3.324 4.657 6.1 8.675 6.167 8.93.114.428-.239.463-4.756.463-4.724 0-4.897-.02-5.418-.596-.297-.327-2.895-3.929-5.776-8.003-2.88-4.075-5.479-7.679-5.776-8.01-.53-.59-.626-.599-5.714-.529l-5.174.072-.133 8.467-.132 8.466-4.173.073c-3.193.056-4.203-.006-4.301-.264zm26.528-25.706c3.381-1.562 5.037-4.384 4.77-8.128-.239-3.324-2.254-5.714-5.724-6.788-1.271-.394-2.612-.462-9.162-.462h-7.673l-.07 8.15-.07 8.15 8.14-.08 8.14-.08zm31.942 25.7c-.07-.183-.095-11.285-.058-24.673l.068-24.342 4.214-.073c3.193-.056 4.265.008 4.427.264.246.387.307 48.099.062 48.735-.137.357-.776.419-4.374.419-3.127 0-4.246-.086-4.339-.331zm-100.531-96.691c-29.96-1.281-59.954-11.12-85.196-27.948-20.922-13.947-37.872-31.931-50.665-53.758-2.983-5.088-8.033-15.435-10.317-21.136-19.27-48.106-15.41-101.1 10.54-144.674C41.088 61.24 57.972 43.4 77.633 29.95c1.152-.788 2.21-1.622 2.352-1.852.187-.305 0-1.013-.685-2.598-1.292-2.988-2.428-4.806-4.258-6.81-4.91-5.378-12.721-8.26-26.782-9.878-2.751-.317-5.389-.632-5.862-.7l-.86-.123V3.022l1.39-.142c.763-.078 20.439-.765 43.722-1.527 52.723-1.726 60.512-1.76 73.422-.333 40.716 4.503 64.057 22.329 67.493 51.545.46 3.915.175 13.239-.527 17.227-3.074 17.454-12.977 30.89-30.636 41.561-2.842 1.718-11.623 6.226-13.774 7.072-.619.244-1.125.553-1.125.689 0 .135.804.782 1.786 1.438 5.484 3.66 13.584 11.28 18.884 17.766 10.257 12.553 18.401 26.927 26.158 46.17 2.592 6.428 3.81 9.741 8.996 24.474 2.152 6.112 4.647 13.077 5.545 15.478 1.762 4.71 5.987 13.24 8.76 17.682 4.596 7.364 10.267 13.573 16.26 17.803 5.276 3.723 13.128 7.245 19.398 8.7 1.384.322 1.422.314 2.213-.431 3.404-3.206 11.992-14.137 16.5-21 15.38-23.413 24.097-49.231 26.619-78.845.616-7.233.368-23.306-.467-30.295-.264-2.215.321-1.033.787 1.587 2.308 12.982 2.728 30.585 1.076 45.112-5.02 44.145-27.766 83.836-63.36 110.567-30.477 22.886-68.36 34.78-105.691 33.183zm23.018-11.082c11.252-.924 22.886-3.187 33.784-6.574 5.076-1.578 7.168-2.347 7.275-2.673.052-.16-1.23-.463-3.114-.736-13.754-1.994-28.504-8.828-40.193-18.622-10.97-9.192-20.432-21.075-29.877-37.52-3.106-5.41-10.27-19.73-13.634-27.253-1.43-3.201-4.893-11.119-7.694-17.594-18.417-42.587-20.918-48.025-26.34-57.283-10.064-17.182-19.898-27.18-33.184-33.738-7.65-3.776-15.033-5.818-25.929-7.174-3.404-.423-12.583-.42-15.446.004-5.117.76-10.751 2.683-11.71 3.999-.857 1.176-3.596 12.088-4.848 19.314-.742 4.284-1.594 10.819-1.878 14.394-.176 2.228-.16 2.346.312 2.197.273-.087 1.489-.521 2.7-.966 6.198-2.275 18.829-3.054 25.983-1.603 10.17 2.064 20.136 7.732 28.844 16.405 12.84 12.79 24.56 32.2 36.421 60.325 3.18 7.543 7.729 18.989 11.195 28.178 8.598 22.794 12.783 31.791 19.448 41.805 9 13.522 19.164 21.29 32.893 25.142 2.105.59 2.618.632 6.261.504 2.183-.077 6.112-.316 8.731-.531zm-55.808-5.485c-12.102-9.063-21.895-20.729-31.693-37.754-3.018-5.244-9.23-17.672-12.199-24.407-4.156-9.426-5.889-13.742-12.882-32.082-10.16-26.65-17.489-39.855-27.904-50.282-6.42-6.426-13.164-10.59-20.248-12.499-2.23-.6-3.043-.68-7.196-.698-3.53-.016-4.767.065-5.027.326-.268.269-.333 1.817-.29 6.951.332 40.722 16.292 79.865 44.263 108.559 16.872 17.307 36.627 30.016 59.664 38.382 4.712 1.712 12.528 4.075 13.493 4.08l.794.005-.775-.58zm119.514-13.943c9.784-5.439 20.158-12.905 28.171-20.275 1.346-1.237 2.447-2.334 2.447-2.437 0-.102-2.008-.14-4.464-.084-16.692.383-32.53-6.46-45.599-19.7-7.887-7.99-13.41-16.037-19.866-28.94-3.901-7.797-5.699-11.916-11.813-27.066-10.052-24.907-11.967-28.96-22.976-48.605-10.173-18.153-16.417-27.477-21.9-32.7-1.083-1.033-1.97-1.993-1.97-2.136 0-.142.924-.654 2.051-1.139 8.625-3.705 16.021-8.71 21.762-14.728 3.368-3.53 5.712-6.881 7.936-11.342 2.144-4.303 3.128-7.128 4.146-11.906.696-3.268.734-3.797.74-10.584.007-6.355-.06-7.523-.611-10.583-2.996-16.636-12.196-29.226-27.556-37.712-11.227-6.2-26.92-10.045-41.408-10.143l-5.027-.034-.067 36.71c-.058 31.994-.117 36.712-.453 36.712-.213 0-1.478-.662-2.812-1.47-7.699-4.669-16.199-7.933-24.787-9.52-1.955-.36-3.662-.722-3.792-.802-.13-.08-.237-2.907-.238-6.282-.006-11.998-.756-23.15-1.985-29.487-.644-3.321-.785-3.769-1.184-3.769-.314 0-7.47 5.74-10.72 8.6-3.96 3.483-13.126 12.77-16.413 16.629-10.54 12.374-18.801 25.437-25.126 39.727-1.617 3.655-3.836 9.247-3.836 9.669 0 .447.4.28 3.176-1.323 6.427-3.713 16.869-7.141 25.531-8.383 4.735-.678 15.316-.682 19.711-.008 13.8 2.119 24.962 7.094 36.38 16.214 3.743 2.99 11.711 10.937 15.224 15.184 14.886 17.997 28.438 42.173 42.716 76.2 1.13 2.692 4.18 10.22 6.78 16.73 2.6 6.51 5.807 14.367 7.13 17.462 11.891 27.837 24.484 44.254 42.186 54.996 6.996 4.245 13.1 6.548 20.505 7.736.364.058 1.674.122 2.91.14l2.25.034z"/></svg>