<?xml version="1.0" encoding="UTF-8" standalone="no"?>
<!-- Created with Inkscape (http://www.inkscape.org/) -->

<svg
   xmlns:dc="http://purl.org/dc/elements/1.1/"
   xmlns:cc="http://creativecommons.org/ns#"
   xmlns:rdf="http://www.w3.org/1999/02/22-rdf-syntax-ns#"
   xmlns:svg="http://www.w3.org/2000/svg"
   xmlns="http://www.w3.org/2000/svg"
   xmlns:sodipodi="http://sodipodi.sourceforge.net/DTD/sodipodi-0.dtd"
   xmlns:inkscape="http://www.inkscape.org/namespaces/inkscape"
   width="343.95834mm"
   height="472.3548mm"
   viewBox="0 0 343.95834 472.3548"
   version="1.1"
   id="svg8"
   inkscape:version="0.92.3 (2405546, 2018-03-11)"
   sodipodi:docname="logo.svg">
  <defs
     id="defs2">
    <clipPath
       clipPathUnits="userSpaceOnUse"
       id="a">
      <path
         id="path815"
         d="M 0,74.824 H 558.74 V 0 H 0 Z"
         inkscape:connector-curvature="0" />
    </clipPath>
  </defs>
  <sodipodi:namedview
     id="base"
     pagecolor="#ffffff"
     bordercolor="#666666"
     borderopacity="1.0"
     inkscape:pageopacity="0.0"
     inkscape:pageshadow="2"
     inkscape:zoom="0.35"
     inkscape:cx="1560.7968"
     inkscape:cy="898.35328"
     inkscape:document-units="mm"
     inkscape:current-layer="g855"
     showgrid="false"
     inkscape:window-width="1920"
     inkscape:window-height="1027"
     inkscape:window-x="-8"
     inkscape:window-y="-8"
     inkscape:window-maximized="1" />
  <metadata
     id="metadata5">
    <rdf:RDF>
      <cc:Work
         rdf:about="">
        <dc:format>image/svg+xml</dc:format>
        <dc:type
           rdf:resource="http://purl.org/dc/dcmitype/StillImage" />
        <dc:title></dc:title>
      </cc:Work>
    </rdf:RDF>
  </metadata>
  <g
     inkscape:label="Layer 1"
     inkscape:groupmode="layer"
     id="layer1"
     transform="translate(442.44297,85.832163)">
    <g
       id="g855"
       transform="matrix(0.26458333,0,0,0.26458333,-442.44297,-85.832159)">
      <g
         id="g834"
         transform="matrix(1.33333,0,0,-1.33333,1919.466,950.607)"
         clip-path="url(#a)" />
      <path
         id="path836"
         d="m 671.676,1783.826 c -4.843,-1.727 -4.903,-1.797 -4.127,-4.889 1.057,-4.212 2.731,-4.979 8.27,-3.791 6.54,1.402 11.431,0 14.536,-4.16 5.52,-7.398 6.256,-4.538 -10.804,-41.946 -8.83,-19.362 -15.193,-34.52 -14.7,-35.013 0.478,-0.478 3.038,-0.73 5.687,-0.56 l 4.818,0.311 11.673,26.802 c 6.421,14.74 12.185,27.312 12.81,27.937 0.846,0.847 1.407,0.39 2.207,-1.802 0.59,-1.615 5.434,-14.187 10.764,-27.937 l 9.69,-25 5.25,-0.302 c 3.984,-0.23 5.25,0.036 5.25,1.102 0,1.564 -27.936,70.693 -30.976,76.652 -2.98,5.842 -7.05,10.155 -11.483,12.168 -4.798,2.18 -13.406,2.375 -18.865,0.428 z m 419.564,-44.298 0.26,-45.75 h 10 l 0.302,5.25 c 0.166,2.888 0.566,5.25 0.888,5.25 0.323,0 2.583,-1.84 5.022,-4.089 6.463,-5.957 12.078,-8.133 20.986,-8.133 6.274,0 8.379,0.478 13.747,3.12 7.434,3.66 12.753,9.162 16.419,16.982 2.322,4.953 2.634,6.866 2.634,16.12 0,9.254 -0.312,11.167 -2.634,16.12 -3.68,7.852 -8.991,13.325 -16.531,17.037 -5.447,2.681 -7.58,3.176 -13.689,3.176 -8.327,0 -15.846,-2.86 -21.5,-8.177 -1.845,-1.736 -3.758,-3.156 -4.25,-3.156 -0.492,0 -0.894,7.2 -0.894,16 v 16 h -11.02 z m 46.486,12.89 c 16.613,-8.475 17.74,-36.066 1.912,-46.833 -11.406,-7.76 -26.388,-4.144 -34.138,8.238 -2.617,4.18 -3.042,5.89 -3.332,13.374 -0.302,7.829 -0.083,9.054 2.5,13.973 6.612,12.592 20.897,17.452 33.058,11.248 z M 30.08,1763.732 c -6.145,-1.7 -10.518,-4.161 -14.022,-7.892 -3.206,-3.411 -4.059,-3.231 -4.059,0.856 0,5.82 -0.706,6.582 -6.107,6.582 H 1 v -99 h 4.3 c 2.365,0 4.84,0.54 5.5,1.2 0.848,0.848 1.2,6.711 1.2,20 0,10.34 0.362,18.8 0.804,18.8 0.442,0 2.354,-1.614 4.25,-3.588 11.706,-12.186 31.518,-11.682 44.328,1.128 13.841,13.841 13.519,39.79 -0.666,53.647 -8.14,7.952 -20.104,11.18 -30.635,8.267 z m 14.171,-9.88 c 10.083,-3.599 16.028,-12.785 16.135,-24.932 0.086,-9.72 -2.193,-15.383 -8.455,-21.013 -10.53,-9.468 -24.983,-8.397 -34.347,2.543 -12.578,14.694 -5.898,38.325 12.408,43.894 3.914,1.19 10.146,0.975 14.259,-0.493 z m 125.97,10.42 c -24.22,-5.091 -35.17,-35.586 -20.702,-57.657 7.954,-12.133 22.59,-17.42 37.188,-13.432 12.414,3.392 22.292,18.136 22.292,33.277 v 5.818 l -26.25,0.015 c -14.437,0.01 -26.847,0.394 -27.577,0.857 -1.044,0.662 -1.098,1.693 -0.253,4.83 4.563,16.947 25.791,22.773 41.332,11.344 2.96,-2.177 4.48,-2.724 5.722,-2.06 2.66,1.423 4.301,3.854 3.687,5.456 -0.872,2.271 -9.666,8.323 -14.549,10.013 -5.668,1.96 -15.454,2.681 -20.89,1.539 z m 27.567,-42.994 c 0.425,-3.675 -4.715,-12.944 -9.112,-16.434 -3.325,-2.639 -4.76,-3.074 -11,-3.339 -8.592,-0.364 -13.17,1.774 -18.353,8.57 -3.341,4.38 -5.904,11.456 -4.798,13.246 0.387,0.625 8.505,0.896 21.795,0.727 l 21.179,-0.27 z m 100.508,42.992 c -12.028,-2.494 -19.229,-10.628 -19.275,-21.774 -0.027,-6.497 1.711,-10.741 6.109,-14.917 6.73,-6.391 17.76,-8.899 31.869,-7.246 4.675,0.547 9.4,1.096 10.5,1.22 1.75,0.197 1.976,-0.312 1.807,-4.065 -0.592,-13.123 -15.329,-18.845 -33.824,-13.132 -7.468,2.307 -8.269,2.018 -9.13,-3.296 l -0.576,-3.545 6.861,-2.368 c 8.707,-3.006 26.49,-3.308 32.575,-0.554 5.78,2.617 10.322,7.187 12.845,12.928 2.138,4.865 2.343,6.95 2.743,27.972 0.239,12.493 0.141,23.88 -0.216,25.304 -0.6,2.387 -1.017,2.564 -5.368,2.285 -4.666,-0.3 -4.72,-0.344 -5.027,-4.054 -0.171,-2.062 -0.539,-3.75 -0.817,-3.75 -0.279,0 -1.964,1.112 -3.745,2.47 -7.475,5.702 -18.547,8.344 -27.331,6.522 z m 16.972,-9.372 c 6.225,-1.874 10.389,-5.029 12.754,-9.664 2.218,-4.349 2.632,-12.171 0.727,-13.741 -1.674,-1.38 -11.945,-3.215 -17.99,-3.215 -7.736,0 -13.616,1.923 -17.374,5.68 -2.936,2.937 -3.386,4.045 -3.386,8.338 0,3.993 0.532,5.542 2.75,8.008 4.919,5.47 13.674,7.255 22.519,4.594 z m 123.057,9.365 c -5.9,-1.208 -9.43,-3.25 -13.611,-7.879 -6.048,-6.695 -6.793,-11.134 -6.484,-38.676 l 0.269,-23.93 4.4,-0.315 c 2.845,-0.203 4.697,0.15 5.236,1 0.458,0.723 0.85,11.44 0.87,23.815 0.033,19.717 0.267,23.005 1.89,26.579 6.336,13.948 27.797,13.41 35.332,-0.887 2.038,-3.868 2.25,-5.972 2.74,-27.192 l 0.532,-23 h 9 v 69 H 474 c -4.415,0 -4.506,-0.066 -4.821,-3.5 -0.483,-5.263 -1.694,-5.72 -5.388,-2.033 -6.034,6.022 -16.387,8.875 -25.465,7.018 z m 531.97,0.013 c -11.92,-2.489 -19.252,-10.676 -19.252,-21.498 0,-16.334 14.9,-25.146 37.956,-22.445 4.675,0.547 9.4,1.097 10.5,1.22 3.002,0.338 3.123,-4.782 0.242,-10.23 -4.664,-8.82 -17.336,-11.624 -31.903,-7.058 -3.486,1.093 -6.604,1.993 -6.929,2 -0.883,0.02 -2.91,-4.815 -2.91,-6.942 0,-2.81 10.507,-6.105 21.56,-6.76 12.506,-0.742 19.01,1.19 25.347,7.528 7.003,7.002 7.593,10.007 7.593,38.687 v 24 h -10 l -0.31,-3.75 c -0.171,-2.062 -0.508,-3.75 -0.748,-3.75 -0.24,0 -2.576,1.517 -5.19,3.371 -7.466,5.297 -17.312,7.431 -25.956,5.627 z m 21.217,-11.004 c 6.787,-3.285 9.82,-7.86 10.31,-15.545 l 0.401,-6.311 -4.362,-1.264 c -2.4,-0.694 -8.862,-1.288 -14.362,-1.318 -11.47,-0.064 -16.397,1.656 -19.674,6.864 -2.707,4.304 -2.03,11.83 1.369,15.23 5.66,5.66 17.321,6.7 26.318,2.344 z M 1259,1763.736 c -20.705,-5.779 -30.95,-28.328 -22.811,-50.204 2.264,-6.086 10.39,-15.488 15.746,-18.22 8.612,-4.394 21.362,-4.473 29.767,-0.185 4.388,2.238 11.3,9.32 13.783,14.123 1.9,3.674 4.472,14.985 4.498,19.778 l 0.017,3.25 h -25.919 c -14.255,0 -26.63,0.274 -27.5,0.607 -3.597,1.38 -0.524,10.24 5.581,16.093 8.987,8.614 24.67,8.509 35.063,-0.236 2.691,-2.264 3.25,-2.392 5.093,-1.168 4.525,3.005 4.498,4.578 -0.15,8.742 -8.166,7.313 -22.256,10.465 -33.168,7.42 z m 28.822,-42.225 c 0.835,-5.886 -5.97,-16.135 -12.54,-18.886 -4.87,-2.038 -12.948,-1.687 -18.056,0.786 -4.894,2.37 -9.647,8.202 -11.37,13.954 -2.12,7.077 -2.402,6.987 20.87,6.684 20.737,-0.27 20.775,-0.275 21.096,-2.538 z M 572.004,1762.1 c -2.935,-1.516 -5.273,-3.71 -6.733,-6.322 -2.14,-3.825 -2.239,-5.035 -2.255,-27.69 -0.013,-17.507 -0.333,-23.888 -1.232,-24.443 -0.669,-0.414 -2.806,-1.01 -4.75,-1.326 -3.358,-0.546 -3.534,-0.773 -3.534,-4.558 0,-3.97 0.013,-3.984 4.245,-4.29 4.976,-0.36 5.126,-0.706 5.503,-12.693 l 0.252,-8 h 9 l 0.252,8 c 0.42,13.365 -0.392,12.5 11.748,12.5 10.242,0 10.475,0.051 11.071,2.428 0.335,1.335 0.314,3.36 -0.048,4.5 -0.601,1.894 -1.432,2.072 -9.656,2.072 -13.714,0 -12.868,-1.434 -12.861,21.786 0,10.843 0.475,21.406 1.05,23.474 1.59,5.725 4.534,7.136 13.484,6.459 l 7.46,-0.564 v 3.8 c 0,2.219 -0.647,4.338 -1.556,5.092 -0.855,0.71 -5.018,1.472 -9.25,1.694 -6.58,0.344 -8.345,0.067 -12.19,-1.92 z m 286.016,-0.072 c -8.812,-4.503 -10.02,-9.116 -10.02,-38.28 0,-22.192 0.207,-21.47 -6.14,-21.47 -2.882,0 -2.965,-0.133 -2.668,-4.25 0.3,-4.143 0.408,-4.262 4.308,-4.75 l 4,-0.5 0.252,-8 c 0.394,-12.507 0.469,-12.66 6.03,-12.303 l 4.718,0.303 0.5,10 0.5,10 10.5,0.5 10.5,0.5 0.307,4.25 0.308,4.25 h -9.858 c -6.333,0 -10.286,0.43 -11.057,1.2 -0.855,0.855 -1.2,7.052 -1.2,21.532 0,27.97 0.888,29.77 14.365,29.115 l 7.135,-0.347 0.312,3.776 c 0.288,3.487 0.043,3.887 -3.218,5.25 -5.39,2.252 -14.343,1.897 -19.574,-0.776 z M 382,1610.223 c -15.646,-1.95 -31.677,-7.333 -43.922,-14.752 -8.495,-5.146 -19.078,-13.11 -19.078,-14.355 0,-1.349 17.9,-22.838 19.024,-22.838 0.47,0 4.37,2.542 8.665,5.648 8.795,6.359 21.064,12.485 29.891,14.927 9.193,2.542 26.791,3.04 33.944,0.961 15.288,-4.444 22.804,-16.532 18.039,-29.01 -3.771,-9.875 -12.729,-14.571 -42.64,-22.355 -45.292,-11.786 -59.923,-25.257 -59.923,-55.17 0,-15.572 4.238,-26.19 14.617,-36.623 6.736,-6.771 18.44,-13.233 28.647,-15.817 18.75,-4.745 45.22,-1.918 65.227,6.966 6.866,3.05 22.509,12.994 22.509,14.31 0,1.26 -15.86,23.596 -17.043,24.001 -0.541,0.186 -3.48,-1.318 -6.53,-3.342 -15.31,-10.163 -30.771,-14.955 -46.24,-14.334 -8.615,0.346 -10.73,0.799 -15.779,3.382 -7.416,3.792 -11.493,9.284 -12.177,16.404 -0.965,10.046 4.338,17.76 15.647,22.762 3.017,1.334 14.474,4.904 25.461,7.933 22.936,6.323 34.696,11.066 44.128,17.796 12.345,8.81 17.495,18.695 18.264,35.061 0.845,17.977 -3.903,30.755 -15.437,41.544 -7.448,6.967 -17.419,12.303 -28.092,15.033 -8.979,2.296 -26.644,3.183 -37.202,1.868 z m 215.342,-0.362 c -37.15,-7.064 -65.632,-34.52 -75.055,-72.345 -1.227,-4.927 -1.672,-11.038 -1.655,-22.738 0.02,-14.04 0.342,-17.188 2.628,-25.71 7.957,-29.664 31.162,-55.102 59.428,-65.147 12.586,-4.473 23.123,-5.92 39.312,-5.402 27.76,0.891 47.651,9.153 65.586,27.24 19.013,19.175 27.808,41.054 27.742,69.02 -0.048,20.347 -4.23,35.603 -14.114,51.495 -5.565,8.947 -17.381,21.59 -25.786,27.59 -8.154,5.822 -21.17,11.929 -30.928,14.51 -10.306,2.728 -36.322,3.548 -47.158,1.487 z m 39.856,-31.573 c 13.265,-4.119 27.56,-15.729 34.787,-28.253 7.274,-12.604 10.548,-31.67 8.03,-46.757 -3.556,-21.306 -16.664,-39.745 -34.35,-48.32 -10.029,-4.862 -16.403,-6.187 -29.165,-6.065 -14.056,0.134 -23.948,3.11 -34.155,10.279 -16.981,11.926 -26.165,29.6 -27.074,52.106 -0.881,21.81 4.795,37.111 19.119,51.539 9.487,9.555 18.884,14.762 30.686,17.003 9.387,1.781 23.642,1.102 32.122,-1.532 z M 1180,1609.32 c -22.057,-4.718 -40.414,-15.814 -53.903,-32.582 -14.738,-18.32 -21.178,-36.803 -21.24,-60.954 -0.046,-18.146 2.652,-30.411 9.9,-45.006 6.545,-13.177 19.453,-28.044 31.615,-36.411 7.087,-4.877 20.268,-10.841 29.128,-13.181 12.14,-3.207 35.833,-3.76 48.513,-1.134 19.666,4.073 35.666,12.889 49.306,27.164 17.313,18.122 25.44,37.52 26.421,63.062 0.845,21.98 -3.819,39.948 -14.758,56.863 -14.481,22.394 -35.537,36.86 -61.482,42.244 -11.941,2.477 -31.75,2.448 -43.5,-0.065 z m 39.869,-30.48 c 21.435,-5.763 38.905,-24.898 43.817,-47.99 2.338,-10.99 1.338,-29.963 -2.066,-39.201 -4.12,-11.184 -7.38,-16.26 -16.054,-24.987 -13.042,-13.124 -24.472,-17.8 -43.566,-17.825 -9.054,-0.01 -12.989,0.45 -18.5,2.172 -30.47,9.515 -48.9,41.786 -43.165,75.585 4.804,28.315 25.149,49.478 51.616,53.69 7.11,1.13 21.018,0.412 27.918,-1.444 z M 0,1514.744 v -93.583 l 50.25,0.354 c 47.967,0.338 50.604,0.452 58.05,2.53 21.81,6.087 37.203,20.528 42.35,39.733 3.807,14.204 2.274,31.747 -3.868,44.268 -5.312,10.83 -16.485,20.745 -29.702,26.356 -4.718,2.003 -6.559,3.3 -6.505,4.585 0.041,0.985 10.346,16.191 22.898,33.791 12.553,17.6 23.035,32.788 23.292,33.75 0.434,1.62 -0.898,1.75 -17.974,1.75 -17.86,0 -18.506,-0.07 -20.466,-2.25 -1.113,-1.237 -11.308,-15.35 -22.655,-31.361 -11.347,-16.011 -21.26,-29.634 -22.03,-30.272 -0.981,-0.814 -7.175,-1.08 -20.769,-0.889 l -19.371,0.272 -0.5,32 -0.5,32 -16.25,0.275 -16.25,0.275 z m 100.734,-4.845 c 12.781,-5.903 19.04,-16.568 18.027,-30.72 -0.906,-12.667 -8.409,-21.564 -21.637,-25.66 -4.799,-1.485 -9.88,-1.74 -34.624,-1.74 h -29 l -0.265,30.803 -0.264,30.803 30.764,-0.303 30.765,-0.304 z m 120.873,96.798 c -0.793,-2.068 -0.793,-181.77 0,-183.837 0.91,-2.373 31.875,-2.373 32.786,0 0.793,2.067 0.793,181.77 0,183.837 -0.518,1.35 -2.92,1.581 -16.393,1.581 -13.472,0 -15.875,-0.231 -16.393,-1.581 z m 560.863,0.357 c -0.267,-0.702 -0.37,-42.676 -0.228,-93.276 l 0.258,-92 h 49 c 55.538,0 57.742,0.234 72.649,7.695 26.032,13.03 37.304,43.806 26.892,73.43 -4.445,12.646 -17.121,25.232 -31.541,31.318 -5.056,2.133 -6.985,3.454 -6.947,4.756 0.029,0.99 10.335,16.201 22.902,33.801 12.566,17.6 23.058,32.788 23.313,33.75 0.43,1.62 -0.903,1.75 -17.977,1.75 -17.856,0 -18.507,-0.072 -20.478,-2.25 -1.12,-1.237 -10.942,-14.85 -21.828,-30.25 -10.886,-15.4 -20.71,-29.021 -21.832,-30.27 -2.006,-2.233 -2.365,-2.266 -21.597,-2 l -19.556,0.27 -0.5,32 -0.5,32 -15.772,0.276 c -12.068,0.21 -15.885,-0.024 -16.258,-1 z m 100.264,-97.155 c 12.781,-5.903 19.04,-16.568 18.027,-30.72 -0.9,-12.563 -8.515,-21.597 -21.63,-25.657 -4.807,-1.489 -9.874,-1.744 -34.631,-1.744 h -29 l -0.265,30.804 -0.264,30.803 30.764,-0.303 30.765,-0.304 z m 120.727,97.13 c -0.263,-0.688 -0.361,-42.65 -0.219,-93.25 l 0.258,-92 15.925,-0.277 c 12.07,-0.21 16.12,0.033 16.734,1 0.929,1.463 1.157,181.789 0.234,184.195 -0.518,1.35 -2.933,1.581 -16.531,1.581 -11.819,0 -16.048,-0.322 -16.401,-1.25 z M 623.5,1241.586 c -113.235,-4.842 -226.595,-42.03 -322,-105.629 C 222.425,1083.244 158.362,1015.27 110.01,932.777 98.737,913.545 79.65,874.439 71.019,852.893 -1.813,671.075 12.778,470.78 110.85,306.093 155.297,231.455 219.112,164.029 293.418,113.194 c 4.355,-2.979 8.356,-6.13 8.89,-7.001 0.708,-1.152 0.002,-3.83 -2.587,-9.819 C 294.839,85.082 290.542,78.21 283.628,70.636 265.07,50.311 235.547,39.42 182.402,33.3 172.006,32.103 162.037,30.913 160.25,30.656 L 157,30.189 V 11.422 l 5.25,-0.536 C 165.137,10.591 239.5,7.994 327.5,5.114 526.767,-1.408 556.205,-1.541 605,3.855 c 153.889,17.02 242.107,84.392 255.092,194.814 1.74,14.797 0.662,50.039 -1.992,65.11 -11.617,65.97 -49.047,116.75 -115.789,157.084 -10.743,6.492 -43.931,23.531 -52.061,26.728 -2.338,0.92 -4.25,2.09 -4.25,2.603 0,0.512 3.037,2.958 6.75,5.436 20.728,13.833 51.34,42.633 71.373,67.148 38.767,47.443 69.547,101.77 98.865,174.5 9.794,24.296 14.396,36.816 34,92.5 8.133,23.1 17.564,49.425 20.958,58.5 6.657,17.8 22.628,50.038 33.108,66.83 17.37,27.831 38.805,51.3 61.457,67.287 19.937,14.07 49.617,27.383 73.312,32.882 5.232,1.215 5.375,1.187 8.367,-1.631 12.864,-12.118 45.324,-53.429 62.363,-79.368 58.13,-88.491 91.072,-186.072 100.605,-298 2.328,-27.336 1.392,-88.084 -1.764,-114.5 -1,-8.37 1.213,-3.905 2.974,6 8.723,49.066 10.309,115.596 4.065,170.5 -18.975,166.85 -104.94,316.862 -239.473,417.892 -115.185,86.499 -258.362,131.452 -399.46,125.417 z m 87,-41.885 c 42.527,-3.49 86.496,-12.046 127.684,-24.847 19.185,-5.962 27.095,-8.869 27.498,-10.103 0.198,-0.604 -4.65,-1.75 -11.769,-2.782 -51.986,-7.536 -107.733,-33.364 -151.911,-70.381 -41.464,-34.743 -77.224,-79.653 -112.92,-141.81 -11.74,-20.443 -38.818,-74.568 -51.53,-103 -5.409,-12.1 -18.495,-42.026 -29.08,-66.5 -69.61,-160.957 -79.06,-181.51 -99.554,-216.5 -38.036,-64.942 -75.203,-102.73 -125.418,-127.515 -28.913,-14.27 -56.818,-21.99 -98,-27.113 -12.868,-1.6 -47.557,-1.592 -58.38,0.015 -19.341,2.87 -40.634,10.141 -44.257,15.112 -3.239,4.446 -13.591,45.688 -18.323,73 -2.805,16.191 -6.027,40.89 -7.097,54.401 -0.667,8.421 -0.603,8.869 1.176,8.305 1.035,-0.328 5.628,-1.971 10.208,-3.652 23.425,-8.599 71.162,-11.543 98.2,-6.057 38.44,7.798 76.108,29.222 109.02,62.003 48.528,48.337 92.82,121.698 137.653,228 12.022,28.506 29.21,71.768 42.31,106.5 32.496,86.15 48.316,120.154 73.506,158 34.018,51.11 72.43,80.471 124.318,95.027 7.956,2.232 9.895,2.388 23.666,1.903 8.25,-0.291 23.1,-1.194 33,-2.006 z m -210.93,-20.73 C 453.83,1144.715 416.819,1100.626 379.786,1036.277 368.38,1016.459 344.903,969.487 333.68,944.033 317.971,908.404 311.423,892.094 284.993,822.777 246.59,722.053 218.893,672.145 179.528,632.736 155.266,608.446 129.773,592.709 103,585.494 c -8.426,-2.27 -11.5,-2.569 -27.196,-2.638 -13.343,-0.06 -18.017,0.244 -19,1.231 -1.014,1.018 -1.259,6.87 -1.1,26.274 1.258,153.91 61.58,301.852 167.296,410.3 63.766,65.413 138.431,113.447 225.5,145.067 17.811,6.469 47.35,15.4 51,15.421 l 3,0.017 -2.93,-2.194 z m 451.705,-52.697 c 36.982,-20.557 76.191,-48.775 106.475,-76.63 5.087,-4.678 9.25,-8.824 9.25,-9.211 0,-0.387 -7.592,-0.53 -16.872,-0.318 -63.089,1.447 -122.949,-24.413 -172.344,-74.455 C 847.976,935.462 827.097,905.047 802.699,856.277 787.955,826.808 781.161,811.24 758.054,753.983 720.062,659.845 712.821,644.526 671.212,570.277 632.764,501.667 609.164,466.426 588.444,446.685 584.35,442.784 581,439.153 581,438.615 c 0,-0.537 3.487,-2.474 7.75,-4.305 32.597,-14.002 60.55,-32.92 82.25,-55.667 12.727,-13.34 21.588,-26.006 29.991,-42.866 8.106,-16.263 11.825,-26.94 15.673,-45 2.631,-12.349 2.771,-14.35 2.798,-40 0.025,-24.019 -0.23,-28.435 -2.312,-40 C 705.828,147.901 671.056,100.315 613,68.245 570.569,44.807 511.254,30.276 456.5,29.907 l -19,-0.129 -0.253,138.75 c -0.221,120.92 -0.442,138.75 -1.715,138.75 -0.804,0 -5.586,-2.5 -10.626,-5.557 -29.098,-17.644 -61.223,-29.98 -93.682,-35.976 -7.392,-1.365 -13.841,-2.73 -14.332,-3.033 -0.49,-0.303 -0.897,-10.988 -0.902,-23.743 -0.02,-45.349 -2.857,-87.494 -7.502,-111.446 -2.435,-12.555 -2.965,-14.245 -4.475,-14.245 -1.186,0 -28.23,21.694 -40.513,32.499 -14.97,13.168 -49.612,48.267 -62.035,62.852 -39.837,46.77 -71.061,96.14 -94.964,150.15 C 100.387,372.594 92,393.73 92,395.322 c 0,1.692 1.512,1.063 12.006,-5 24.289,-14.033 63.755,-26.99 96.494,-31.682 17.896,-2.564 57.887,-2.58 74.5,-0.03 52.158,8.008 94.343,26.81 137.5,61.282 14.143,11.297 44.261,41.336 57.536,57.385 56.262,68.022 107.484,159.395 161.448,288 4.27,10.175 15.8,38.63 25.624,63.233 9.824,24.602 21.95,54.302 26.947,66 44.945,105.21 92.541,167.258 159.445,207.858 26.44,16.045 49.51,24.748 77.5,29.237 1.375,0.22 6.325,0.46 11,0.53 l 8.5,0.13 z"
         inkscape:connector-curvature="0" />
    </g>
  </g>
</svg>
