<svg xmlns="http://www.w3.org/2000/svg" viewBox="0 0 1240.989 1242.125"><defs><clipPath id="a" clipPathUnits="userSpaceOnUse"><path d="M0 74.824h558.74V0H0z"/></clipPath></defs><path fill="none" stroke-linecap="round" stroke-miterlimit="10" stroke-width="5.333" d="M2266.722 933.81l26.398-26.398-26.398-26.399-26.37 26.4 26.399 26.398"/><g clip-path="url(#a)" transform="matrix(1.33333 0 0 -1.33333 1894.243 950.607)"><path fill="none" stroke-linecap="round" stroke-miterlimit="10" stroke-width="4" d="M279.359 32.397l19.799 19.799-19.799 19.799-19.777-19.8z"/><path fill="#231f20" d="M218.117 33.91l-9.33-.04-24.596-.057c-10.178.018-22.052.04-34.774.061l-39.864.213-74.637.485L.99 34.91a1 1 0 0 0 0 2l33.926.338 74.637.485 39.864.213 34.774.061 24.596-.056 9.33-.04a2 2 0 0 0 0-4"/><path fill="none" stroke-linecap="round" stroke-miterlimit="10" stroke-width="4" d="M340.623 35.91l-12.451-12.45-24.411 24.41 4.76 4.76 10.334-10.334-10.334-10.334-29.173 29.173-29.13-29.173-10.333 10.334 10.334 10.333 4.76-4.76-24.41-24.41-12.452 12.451"/><path fill="#231f20" d="M557.75 34.91l-33.926-.338-74.638-.485-39.863-.213-34.774-.06-24.597.055-9.329.041a2 2 0 0 0 0 4l9.33.041 24.596.056 34.774-.06 39.863-.214 74.638-.485 33.926-.338a1 1 0 0 0 0-2"/><path fill="none" stroke-linecap="round" stroke-miterlimit="10" stroke-width="4" d="M279.37 25.766l11.47-11.47L279.37 2.83l-11.469 11.468z"/><path fill="none" stroke-linecap="round" stroke-miterlimit="10" stroke-width="4" d="M349.735 24.996h-9.49L328.26 36.983 306.896 15.62 279.37 43.146 251.844 15.62 230.48 36.983l-11.987-11.987h-9.49"/></g><path fill="#7f618e" d="M598.277 1241.587c-113.235-4.842-226.595-42.03-322-105.629-79.075-52.713-143.137-120.687-191.49-203.18-11.273-19.232-30.36-58.338-38.99-79.884-72.832-181.818-58.242-382.113 39.83-546.8 44.447-74.638 108.263-142.064 182.568-192.899 4.355-2.979 8.356-6.13 8.89-7.001.708-1.152.002-3.83-2.587-9.819-4.882-11.292-9.179-18.164-16.093-25.738C239.849 50.311 210.324 39.42 157.179 33.3c-10.396-1.197-20.364-2.387-22.152-2.644l-3.25-.467V11.422l5.25-.536c2.888-.295 77.25-2.892 165.25-5.772 199.268-6.522 228.705-6.655 277.5-1.259 153.89 17.02 242.107 84.392 255.092 194.814 1.74 14.797.662 50.039-1.992 65.11-11.616 65.97-49.047 116.75-115.788 157.084-10.743 6.492-43.932 23.531-52.062 26.728-2.337.92-4.25 2.09-4.25 2.603 0 .512 3.038 2.958 6.75 5.436 20.729 13.833 51.34 42.633 71.373 67.148 38.768 47.443 69.547 101.77 98.865 174.5 9.794 24.296 14.396 36.816 34 92.5 8.133 23.1 17.564 49.425 20.958 58.5 6.658 17.8 22.628 50.038 33.108 66.83 17.37 27.831 38.805 51.3 61.457 67.287 19.937 14.07 49.617 27.383 73.312 32.882 5.232 1.215 5.375 1.187 8.367-1.631 12.864-12.118 45.324-53.429 62.363-79.368 58.13-88.491 91.073-186.072 100.605-298 2.328-27.336 1.392-88.084-1.764-114.5-1-8.37 1.214-3.905 2.974 6 8.723 49.066 10.309 115.596 4.065 170.5-18.975 166.85-104.94 316.862-239.473 417.892-115.185 86.499-258.362 131.452-399.46 125.417zm87-41.885c42.527-3.49 86.496-12.046 127.684-24.847 19.185-5.962 27.095-8.869 27.499-10.103.197-.604-4.652-1.75-11.77-2.782-51.986-7.536-107.733-33.364-151.91-70.381-41.465-34.743-77.225-79.653-112.921-141.81-11.74-20.443-38.818-74.568-51.53-103-5.409-12.1-18.495-42.026-29.08-66.5-69.609-160.957-79.06-181.51-99.554-216.5-38.035-64.942-75.202-102.73-125.418-127.515-28.912-14.27-56.818-21.99-98-27.113-12.868-1.6-47.556-1.592-58.38.015-19.34 2.87-40.634 10.141-44.256 15.112-3.24 4.446-13.592 45.688-18.324 73-2.805 16.191-6.027 40.89-7.097 54.401-.667 8.421-.603 8.869 1.176 8.305 1.035-.328 5.629-1.971 10.209-3.652 23.425-8.599 71.162-11.543 98.199-6.057 38.44 7.798 76.108 29.222 109.02 62.003 48.528 48.337 92.82 121.698 137.653 228 12.023 28.506 29.21 71.768 42.31 106.5 32.496 86.15 48.316 120.154 73.506 158 34.018 51.11 72.43 80.471 124.318 95.027 7.956 2.232 9.895 2.388 23.666 1.903 8.25-.291 23.1-1.194 33-2.006zm-210.93-20.73c-45.74-34.256-82.75-78.345-119.784-142.694-11.405-19.818-34.883-66.79-46.106-92.244-15.708-35.629-22.257-51.939-48.686-121.256-38.404-100.724-66.101-150.632-105.466-190.041-24.262-24.29-49.755-40.027-76.528-47.242-8.426-2.27-11.5-2.569-27.196-2.638-13.343-.06-18.017.244-19 1.231-1.013 1.018-1.258 6.87-1.1 26.274 1.258 153.91 61.58 301.852 167.296 410.3 63.766 65.413 138.431 113.447 225.5 145.067 17.812 6.469 47.35 15.4 51 15.421l3 .017-2.93-2.194zm451.705-52.697c36.982-20.557 76.192-48.775 106.475-76.63 5.088-4.678 9.25-8.824 9.25-9.211 0-.387-7.592-.53-16.872-.318-63.089 1.447-122.948-24.413-172.344-74.455-29.808-30.198-50.686-60.613-75.085-109.383-14.743-29.469-21.538-45.037-44.645-102.294-37.992-94.138-45.233-109.457-86.841-183.706-38.449-68.61-62.05-103.851-82.769-123.592-4.094-3.901-7.444-7.532-7.444-8.07 0-.537 3.488-2.474 7.75-4.305 32.597-14.002 60.55-32.92 82.25-55.667 12.727-13.34 21.589-26.006 29.992-42.866 8.105-16.263 11.824-26.94 15.672-45 2.631-12.349 2.772-14.35 2.798-40 .026-24.019-.23-28.435-2.312-40-11.322-62.877-46.094-110.463-104.15-142.533-42.431-23.438-101.746-37.969-156.5-38.338l-19-.129-.253 138.75c-.221 120.92-.442 138.75-1.715 138.75-.804 0-5.586-2.5-10.626-5.557-29.098-17.644-61.223-29.98-93.682-35.976-7.392-1.365-13.84-2.73-14.332-3.033-.49-.303-.896-10.988-.902-23.743-.02-45.349-2.857-87.494-7.502-111.446-2.434-12.555-2.965-14.245-4.474-14.245-1.187 0-28.23 21.694-40.514 32.499-14.969 13.168-49.612 48.267-62.035 62.852-39.837 46.77-71.061 96.14-94.963 150.15-6.115 13.816-14.502 34.951-14.502 36.544 0 1.692 1.512 1.063 12.006-5 24.289-14.033 63.755-26.99 96.494-31.682 17.896-2.564 57.887-2.58 74.5-.03 52.158 8.008 94.343 26.81 137.5 61.282 14.143 11.297 44.262 41.336 57.536 57.385 56.262 68.022 107.484 159.395 161.448 288 4.27 10.175 15.8 38.63 25.624 63.233 9.824 24.602 21.95 54.302 26.947 66 44.946 105.21 92.541 167.257 159.445 207.857 26.44 16.045 49.51 24.748 77.5 29.237 1.375.22 6.325.46 11 .53l8.5.13z"/></svg>