<svg xmlns="http://www.w3.org/2000/svg" viewBox="0 0 1024 1024"><path d="M194.331 350.207c11.95-15.285 20.473-35.758 17.879-56.139-17.879.834-39.186 11.95-51.878 26.402-11.024 12.784-21.307 34.091-18.713 53.638 20.38 2.501 39.927-8.523 52.711-23.901zm17.879 28.996c-28.903-1.668-53.638 16.212-67.255 16.212S110.03 380.13 87.056 380.13c-29.829.834-57.065 17.046-72.35 44.281-30.663 53.638-8.523 132.751 22.141 176.198 14.452 21.307 32.331 45.115 55.305 44.281 22.141-.834 30.663-14.452 57.065-14.452s34.091 14.452 57.899 13.618c23.808-.834 39.186-21.307 53.638-43.448 17.046-24.642 23.808-48.543 23.808-49.376-.834-.834-46.783-17.879-46.783-70.683-.834-44.281 35.758-65.495 37.426-66.422-19.639-30.663-51.97-34.091-62.994-34.925zM462.426 318.71c62.994 0 106.349 43.448 106.349 105.515 0 62.994-44.281 106.349-108.109 106.349h-68.923V640.35h-50.21V318.709zm-70.683 170.269h57.065c43.448 0 68.089-23.808 68.089-63.828 0-40.854-24.642-63.828-68.089-63.828h-57.899v127.656zm189.816 85.969c0-40.854 31.497-66.422 87.636-69.757l64.661-3.428v-17.879c0-26.402-17.879-41.687-46.783-41.687-28.069 0-45.115 13.618-49.376 34.091h-45.949c2.594-42.521 39.186-74.018 96.992-74.018 57.065 0 93.657 29.829 93.657 77.446v161.747h-45.949v-38.26h-.834c-13.618 26.402-43.448 42.521-74.018 42.521-47.709-.185-80.04-29.088-80.04-70.776zm152.39-21.307v-18.713l-57.899 3.428c-28.903 1.668-45.115 14.452-45.115 34.925s17.046 34.091 42.521 34.091c34.091-.093 60.493-23.067 60.493-53.73zm91.064 174.531v-39.186c3.428.834 11.95.834 15.285.834 22.141 0 34.091-9.357 41.687-33.164 0-.834 4.261-14.452 4.261-14.452l-85.135-234.931h51.878l59.566 191.484h.834l59.566-191.484h51.044l-87.451 247.715c-20.473 57.065-43.448 74.944-91.897 74.944-3.428-.926-15.378-.926-19.639-1.76z"/><path d="M462.426 318.71c62.994 0 106.349 43.448 106.349 105.515 0 62.994-44.281 106.349-108.109 106.349h-68.923V640.35h-50.21V318.709zm-70.683 170.269h57.065c43.448 0 68.089-23.808 68.089-63.828 0-40.854-24.642-63.828-68.089-63.828h-57.899v127.656zm189.816 85.969c0-40.854 31.497-66.422 87.636-69.757l64.661-3.428v-17.879c0-26.402-17.879-41.687-46.783-41.687-28.069 0-45.115 13.618-49.376 34.091h-45.949c2.594-42.521 39.186-74.018 96.992-74.018 57.065 0 93.657 29.829 93.657 77.446v161.747h-45.949v-38.26h-.834c-13.618 26.402-43.448 42.521-74.018 42.521-47.709-.185-80.04-29.088-80.04-70.776zm152.39-21.307v-18.713l-57.899 3.428c-28.903 1.668-45.115 14.452-45.115 34.925s17.046 34.091 42.521 34.091c34.091-.093 60.493-23.067 60.493-53.73zm91.064 174.531v-39.186c3.428.834 11.95.834 15.285.834 22.141 0 34.091-9.357 41.687-33.164 0-.834 4.261-14.452 4.261-14.452l-85.135-234.931h51.878l59.566 191.484h.834l59.566-191.484h51.044l-87.451 247.715c-20.473 57.065-43.448 74.944-91.897 74.944-3.428-.926-15.378-.926-19.639-1.76z"/></svg>