<svg xmlns="http://www.w3.org/2000/svg" viewBox="0 0 1024 1024"><path d="M822.913 521.101c-33.154 0-60.002 26.848-60.002 60.002s27.028 60.002 60.002 60.002c33.154 0 60.002-27.028 60.002-60.002s-27.028-60.002-60.002-60.002zm0 84.147c-13.334 0-23.964-10.811-23.964-23.964s10.811-23.964 23.964-23.964c13.153 0 23.964 10.811 23.964 23.964s-10.811 23.964-23.964 23.964z"/><path d="M969.945 458.035h-5.946V283.794c0-29.731-24.326-54.056-54.056-54.056h-69.012v-63.065c0-29.731-24.326-54.056-54.056-54.056H54.056C24.325 112.617 0 136.943 0 166.673v573.534c0 7.568 0 27.389 128.473 153.879 3.423 3.423 8.108 5.226 12.613 5.226.721 0 1.262-.36 1.982-.36 9.37 7.568 21.082 12.433 34.056 12.433h732.819c29.731 0 54.056-24.326 54.056-54.056V704.17h5.946c29.731 0 54.056-24.326 54.056-54.056V511.911c0-29.55-24.145-53.876-54.056-53.876zM36.038 738.405V166.853c0-9.911 8.108-18.019 18.019-18.019h732.819c9.911 0 18.019 8.108 18.019 18.019v63.065h-627.77c-29.731 0-54.056 24.326-54.056 54.056v553.893c-41.983-42.884-81.084-86.49-87.031-99.463zm891.924 119.104c0 9.911-8.108 18.019-18.019 18.019H177.124c-9.911 0-18.019-8.108-18.019-18.019V283.975c0-9.911 8.108-18.019 18.019-18.019h732.819c9.911 0 18.019 8.108 18.019 18.019v174.241H822.914c-67.931 0-123.067 55.137-123.067 123.067S754.984 704.35 822.914 704.35h105.048v153.159zm60.002-207.215c0 9.911-8.108 18.019-18.019 18.019H822.912c-48.109 0-87.031-39.101-87.031-87.031 0-48.109 39.101-87.031 87.031-87.031h147.033c9.911 0 18.019 8.108 18.019 18.019v138.023z"/><path d="M885.978 428.125c9.911 0 18.019-8.108 18.019-18.019V305.058c0-9.911-8.108-18.019-18.019-18.019s-18.019 8.108-18.019 18.019v105.048c0 9.911 7.929 18.019 18.019 18.019z"/></svg>