<svg xmlns="http://www.w3.org/2000/svg" viewBox="0 0 1024 1024"><path d="M853.331 180.737V85.334c0-47.104-38.229-85.333-85.333-85.333H85.332C38.228.001-.001 38.23-.001 85.334V460.8c.171 43.52 33.109 80.043 76.459 84.48l64.171 166.571c16.896 44.032 66.389 65.877 110.251 48.981l400.554-154.283c-27.648 72.363-19.797 153.429 21.333 219.136l9.899 15.531v165.717c0 9.387 7.68 17.067 17.067 17.067h307.199c9.387 0 17.067-7.68 17.067-17.067v-563.37c-.171-59.051-23.723-115.541-65.365-157.355zm0 102.058l51.712 134.485c10.069 26.453-3.072 55.979-29.355 66.219l-29.525 11.435c4.779-10.752 7.168-22.357 7.168-34.133zM34.133 460.8V85.334c0-28.331 22.869-51.2 51.2-51.2h682.666c28.331 0 51.2 22.869 51.2 51.2v108.544h-.171l.171.341v266.58c-.171 2.901-.512 5.973-1.195 8.875L661.673 313.343c-35.157-34.304-91.136-34.645-126.635-.683s-37.547 89.941-4.779 126.464l66.731 72.875H85.332c-28.331 0-51.2-22.869-51.2-51.2zm218.623 85.333l-121.344 46.763-17.92-46.763zm-13.993 182.784c-26.453 10.24-55.979-2.901-66.219-29.355l-28.843-74.923 203.776-78.677h280.746l22.187 24.235zm751.102 260.949H716.799V853.333h273.066zm0-170.667H709.29l-7.339-11.776c-41.643-66.56-43.349-150.528-4.267-218.624 3.755-6.485 2.731-14.507-2.219-19.968L555.689 416.255c-20.821-22.869-19.627-58.197 2.56-79.531 22.357-21.333 57.685-20.992 79.531.853l272.042 271.871 24.064-24.064-63.147-63.147 17.579-6.827c43.861-16.896 65.877-66.219 48.981-110.251l-57.685-150.016 55.296 55.467c35.328 35.328 55.296 83.115 55.467 133.12v375.466z"/><path d="M194.56 238.934c24.576 0 44.373-19.797 44.373-44.373v-81.92c0-24.576-19.797-44.373-44.373-44.373h-81.92c-24.576 0-44.373 19.797-44.373 44.373v81.92c0 24.576 19.797 44.373 44.373 44.373zm-92.16-44.373v-23.893h34.133v-34.133H102.4v-23.893c0-5.632 4.608-10.24 10.24-10.24h81.92c5.632 0 10.24 4.608 10.24 10.24v23.893h-34.133v34.133H204.8v23.893c0 5.632-4.608 10.24-10.24 10.24h-81.92c-5.632 0-10.24-4.608-10.24-10.24zM85.333 290.133H153.6v34.133H85.333zM85.333 392.533H153.6v34.133H85.333zM392.532 392.533h68.267v34.133h-68.267zM187.733 290.133H256v34.133h-68.267zM290.132 290.133h68.267v34.133h-68.267zM392.532 290.133h68.267v34.133h-68.267zM716.799 85.334h34.133v51.2h-34.133zM648.532 85.334h34.133v51.2h-34.133zM580.266 85.334h34.133v51.2h-34.133zM511.999 85.334h34.133v51.2h-34.133zM750.932 887.466h34.133v34.133h-34.133z"/></svg>