<svg xmlns="http://www.w3.org/2000/svg" viewBox="0 0 1024 1024"><path d="M857.043 958.701L589.022 738.764h-368.64C98.838 738.764-.001 637.7-.001 513.632V290.578c0-124.216 98.838-225.28 220.383-225.28h583.234c121.544 0 220.383 101.064 220.383 225.28v223.054c0 104.478-70.048 193.67-166.957 218.453v226.616zm-636.66-829.44c-86.224 0-156.42 72.274-156.42 161.169v223.054c0 88.895 70.196 161.169 156.42 161.169h391.494l181.055 148.554V676.879l28.197-3.413c79.1-9.35 138.759-78.061 138.759-160.13V290.579c0-88.895-70.196-161.169-156.42-161.169l-583.085-.148z"/><path d="M182.391 439.875c11.427 6.975 35.024 15.137 53.426 15.137 18.699 0 26.565-6.53 26.565-16.77s-6.085-15.137-29.384-22.854c-41.257-13.802-57.136-36.211-56.691-59.956 0-37.101 31.759-65.15 81.178-65.15 23.3 0 44.077 5.343 56.246 11.427l-10.982 42.741c-8.904-4.897-26.119-11.427-43.186-11.427-15.137 0-23.597 6.085-23.597 16.325 0 9.35 7.717 14.247 32.204 22.854 37.843 13.06 53.871 32.204 54.168 61.588 0 37.101-29.384 64.408-86.372 64.408-26.119 0-49.271-5.639-64.408-13.802l10.834-44.522zM359.736 358.4c0-24.784-.742-46.006-1.632-63.666h52.239l2.82 26.861h1.187c8.608-12.614 26.119-31.314 60.401-31.314 25.674 0 46.006 13.06 54.613 33.837h.742c7.272-10.24 16.325-18.402 25.674-24.042 10.982-6.53 23.3-9.795 37.992-9.795 38.289 0 67.228 26.861 67.228 86.372v117.389h-60.401V385.557c0-28.939-9.35-45.709-29.384-45.709-14.247 0-24.487 9.795-28.494 21.667-1.632 4.452-2.374 10.982-2.374 15.879v116.647h-60.401v-111.75c0-25.229-8.904-42.444-28.494-42.444-15.879 0-25.229 12.318-28.939 22.409-2.078 4.897-2.374 10.537-2.374 15.434v116.202h-60.401V358.398zM709.825 439.875c11.427 6.975 35.024 15.137 53.426 15.137 18.699 0 26.565-6.53 26.565-16.77s-6.085-15.137-29.384-22.854c-41.257-13.802-57.136-36.211-56.691-59.956 0-37.101 31.759-65.15 81.178-65.15 23.3 0 44.077 5.343 56.246 11.427l-10.982 42.741c-8.904-4.897-26.119-11.427-43.186-11.427-15.137 0-23.597 6.085-23.597 16.325 0 9.35 7.717 14.247 32.204 22.854 37.843 13.06 53.871 32.204 54.168 61.588 0 37.101-29.384 64.408-86.372 64.408-26.119 0-49.419-5.639-64.408-13.802l10.834-44.522z"/></svg>