<svg xmlns="http://www.w3.org/2000/svg" viewBox="0 0 1024 1024"><path d="M851.946 186.024V99.953C851.946 44.77 807.176 0 751.993 0H392.091c-55.183 0-99.953 44.77-99.953 99.953v145.938h-30.021c-49.63 0-90.062 40.432-90.062 90.062v597.985c0 49.63 40.432 90.062 90.062 90.062h479.984c49.63 0 90.062-40.432 90.062-90.062V335.953c0-49.63-40.432-90.062-90.062-90.062H712.08v-60.042h139.865zM751.993 60.041c22.038 0 39.912 17.874 39.912 39.912v26.03h-79.998v-26.03c0-22.038 18.047-39.912 40.085-39.912zM352.005 99.952c0-22.038 17.874-39.912 39.912-39.912h268.278a99.64 99.64 0 0 0-8.33 39.912v263.94H352.004V99.952zm389.922 205.981c16.485 0 30.021 13.536 30.021 30.021v597.985c0 16.485-13.536 30.021-30.021 30.021H262.116c-16.485 0-30.021-13.536-30.021-30.021V335.954c0-16.485 13.536-30.021 30.021-30.021h30.021v118H712.08v-118h29.847z"/><path d="M291.964 483.975h419.943v60.042H291.964v-60.042zM454.041 603.884h95.962v60.042h-95.962v-60.042zM615.945 603.884h95.962v60.042h-95.962v-60.042zM291.964 603.884h95.962v60.042h-95.962v-60.042zM454.041 723.793h95.962v60.042h-95.962v-60.042zM615.945 723.793h95.962v60.042h-95.962v-60.042zM291.964 723.793h95.962v60.042h-95.962v-60.042zM454.041 843.876h95.962v60.042h-95.962v-60.042zM615.945 843.876h95.962v60.042h-95.962v-60.042zM291.964 843.876h95.962v60.042h-95.962v-60.042z"/></svg>