<svg xmlns="http://www.w3.org/2000/svg" viewBox="0 0 1024 1024"><path d="M1022.424 339.023l-.63-3.781c-.158-.63-.158-1.26-.315-1.733l-71.838-173.45V74.673H73.098v85.386L2.521 333.351c-.158.63-.315 1.418-.315 2.048l-.63 3.623C.473 345.324.001 351.625.001 358.084c0 46.316 25.836 86.646 63.961 107.284v483.958H960.04V465.368c38.124-20.638 63.961-60.967 63.961-107.284 0-6.459-.473-12.761-1.575-19.062zm-48.207-8.35H817.466l-18.905-126.661h123.983l51.673 126.661zM115.79 117.366h791.157v42.693H115.79v-42.693zm664.97 256l2.363 15.439-12.603 16.857c-15.124 20.165-38.282 31.665-63.33 31.665-25.206 0-48.207-11.5-63.33-31.665l-12.918-17.172-.788-15.124h150.607zm-152.813-42.693l-6.144-126.661h133.908l18.905 126.661H627.948zm-40.645 42.693l.788 15.439-12.603 16.857c-15.124 20.165-38.282 31.665-63.33 31.665-25.206 0-48.207-11.5-63.488-31.665l-12.918-17.329.788-14.966h150.764zm-148.716-42.693l6.459-126.661H579.11l6.144 126.661H438.586zm-188.731 0l18.59-126.661h133.75l-6.459 126.661H249.855zm143.833 42.693l-.788 15.596-12.446 16.699c-15.124 20.165-38.282 31.665-63.33 31.665s-48.207-11.5-63.33-31.665l-12.288-16.384 2.363-15.911h149.819zM101.296 204.012h123.983l-18.59 126.661H49.623l51.673-126.661zM44.11 373.366h156.278l-3.308 16.542-11.815 15.754c-15.124 20.165-38.282 31.665-63.488 31.665-38.439 0-70.577-27.569-77.666-63.961zm787.85 533.268H661.346V757.288h21.268c11.815 0 21.268-9.61 21.268-21.268 0-11.815-9.61-21.268-21.268-21.268h-21.268V565.406H831.96v341.228zm85.385 0h-42.693V522.713h-256v384.079h-512V479.075c5.041.63 10.082.945 15.281.945 39.857 0 75.303-19.22 97.516-48.837 22.213 29.617 57.659 48.837 97.516 48.837s75.303-19.22 97.516-48.837c22.213 29.617 57.659 48.837 97.516 48.837s75.303-19.22 97.516-48.837c22.213 29.617 57.659 48.837 97.516 48.837s75.303-19.22 97.516-48.837c22.213 29.617 57.659 48.837 97.516 48.837 5.199 0 10.24-.315 15.281-.945v427.559zm-15.281-469.307c-25.049 0-48.207-11.5-63.33-31.665l-12.446-16.542-2.363-15.754h155.963c-7.247 36.391-39.385 63.961-77.824 63.961z"/><path d="M149.345 522.713v298.693h426.614V522.713H149.345zm383.922 256H192.039V565.248h341.386v213.465z"/><path d="M490.574 672.059c-5.829 0-11.185 2.363-15.124 6.302l-42.693 42.693c-3.938 3.781-6.302 9.137-6.302 15.124 0 11.815 9.61 21.268 21.268 21.268 5.829 0 11.185-2.363 15.124-6.302l42.693-42.693c3.938-3.938 6.302-9.295 6.302-15.124 0-11.815-9.61-21.268-21.268-21.268zM490.574 586.673c-5.829 0-11.185 2.363-15.124 6.302L347.371 720.896c-3.781 3.781-6.302 9.295-6.302 15.124 0 11.815 9.61 21.268 21.268 21.268 5.829 0 11.185-2.363 15.124-6.302L505.54 623.065c3.938-3.781 6.302-9.295 6.302-15.124 0-11.658-9.61-21.268-21.268-21.268z"/></svg>