<svg xmlns="http://www.w3.org/2000/svg" viewBox="0 0 1024 1024"><path d="M432.293 812.616c-8.39 0-15.926-5.404-18.771-13.225s-.285-16.922 6.115-22.184c6.684-5.404 16.353-5.973 23.463-1.28 6.826 4.266 10.381 12.656 8.817 20.477-1.706 9.243-10.096 16.211-19.624 16.211z"/><path d="M1003.805 459.101H863.878V290.733c0-43.94-35.692-79.633-79.633-79.633H79.633C35.693 211.1 0 246.792 0 290.733v442.249c0 43.94 35.692 79.633 79.633 79.633H341.57c11.092 0 20.051-8.959 20.051-20.051s-8.959-20.051-20.051-20.051H79.633c-21.899 0-39.675-17.776-39.675-39.675V290.589c0-21.899 17.776-39.675 39.675-39.675h704.612c21.899 0 39.675 17.776 39.675 39.675v168.368h-48.064v-29.578c0-11.092-8.959-20.051-20.051-20.051-49.771 0-90.298-40.527-90.298-90.298 0-11.092-8.959-20.051-20.051-20.051H218.28c-11.092 0-20.051 8.959-20.051 20.051 0 49.771-40.527 90.298-90.298 90.298-11.092 0-20.051 8.959-20.051 20.051v164.955c0 11.092 8.959 20.051 20.051 20.051 49.771 0 90.298 40.527 90.298 90.298 0 11.092 8.959 20.051 20.051 20.051h406.699v48.064H522.451c-11.092 0-20.051 8.959-20.051 20.051s8.959 20.051 20.051 20.051h481.497c11.092 0 20.051-8.959 20.051-20.051V479.008c-.142-10.949-9.101-19.908-20.193-19.908zM664.936 603.578h318.96v64.56h-318.96zm318.96-39.959h-318.96v-64.56h318.96zm-855.916 12.23V447.867c55.886-8.674 100.111-52.899 108.785-108.785H627.11c8.674 55.886 52.899 100.111 108.785 108.785v11.234h-91.009c-11.092 0-20.051 8.959-20.051 20.051v205.624H236.623c-8.532-56.028-52.757-100.253-108.643-108.927zm855.916 196.808h-318.96v-64.56h318.96z"/><path d="M432.009 646.666c-74.372 0-134.808-60.436-134.808-134.808S357.637 377.05 432.009 377.05c74.372 0 134.808 60.436 134.808 134.808s-60.578 134.808-134.808 134.808zm0-229.657c-52.33 0-94.849 42.519-94.849 94.849s42.519 94.849 94.849 94.849c52.33 0 94.849-42.519 94.849-94.849s-42.661-94.849-94.849-94.849z"/></svg>