<svg xmlns="http://www.w3.org/2000/svg" viewBox="0 0 1024 1024"><path d="M514.64 0c-.162 0-.162 0 0 0H513.818C231.557.162.001 228.583.001 510.018c0 68.872 13.708 135.928 40.795 199.185 52.356 122.715 151.123 221.481 274.003 274.003 63.257 27.086 130.312 40.795 199.185 40.795h.162c283.086-.162 509.853-233.373 509.853-513.982C1023.999 228.584 796.407.331 514.642.001zM414.553 70.854c-51.2 48.557-92.986 105.373-124.366 169.125H150.956c63.917-84.067 156.738-145.342 263.597-169.125zM112.638 299.603h151.948c-20.975 57.476-33.363 118.751-36.666 180.356H61.107c4.294-64.578 22.462-126.018 51.53-180.356zm.991 424.464c-29.729-55.494-48.392-117.76-52.686-183.99h166.813c2.808 62.926 15.36 125.192 36.831 183.99zm38.648 59.954h137.91c31.381 63.752 73.166 120.403 124.366 168.96-106.199-23.783-198.524-85.058-262.276-168.96zm135.597-243.944h196.047v183.99H329.165a550.755 550.755 0 0 1-41.29-183.99zM483.92 934.152c-51.035-42.446-93.316-93.481-125.523-150.297H483.92zm0-454.193H288.039c3.634-62.761 17.672-123.541 41.29-180.026h154.756v180.026zm0-239.98H358.397c32.206-56.816 74.488-107.685 125.523-150.297zm427.933 59.954c28.738 54.338 46.741 115.283 51.035 180.026H799.874c-3.138-61.605-15.69-122.55-36.666-180.026zm-38.152-59.954H737.773c-31.381-63.587-73.166-120.403-124.201-168.795 105.538 23.948 197.203 85.058 260.129 168.795zM544.039 89.848c51.035 42.446 93.316 93.481 125.523 150.297H544.039zm0 210.085h154.756c23.453 56.485 37.657 117.265 41.125 180.026H544.039zm196.212 239.649c-3.138 64.083-17.507 126.679-41.455 184.32H544.04v-184.32zm-196.212 394.57V783.525h125.523c-32.206 56.816-74.488 108.181-125.523 150.627zm69.698 18.663c51.035-48.392 92.655-105.538 124.036-169.125h134.772c-62.926 83.572-153.93 145.012-258.808 169.125zm149.636-228.748c21.471-58.797 33.858-121.394 36.831-184.32h162.684c-4.294 66.23-22.627 128.991-52.191 184.32z"/></svg>