<?xml version="1.0" encoding="utf-8"?>
<!-- Generator: Adobe Illustrator 23.0.1, SVG Export Plug-In . SVG Version: 6.00 Build 0)  -->
<svg version="1.1" id="Слой_1" xmlns="http://www.w3.org/2000/svg" xmlns:xlink="http://www.w3.org/1999/xlink" x="0px" y="0px"
	 viewBox="0 0 37 37" style="enable-background:new 0 0 37 37;" xml:space="preserve">
<style type="text/css">
	.st0{fill:#6A2D8B;}
</style>
<path class="st0" d="M28.56,20.03c-2.33,3.29-5.96,5.41-10.06,5.41s-7.74-2.13-10.06-5.41c-1.61,1.26-2.66,3.21-2.66,5.41v4.63
	c0,3.83,3.11,6.94,6.94,6.94h11.56c3.83,0,6.94-3.11,6.94-6.94v-4.63C31.22,23.23,30.17,21.29,28.56,20.03z M18.5,23.12
	c5.75,0,10.41-5.18,10.41-11.56C28.91,5.18,24.25,0,18.5,0S8.09,5.18,8.09,11.56C8.09,17.95,12.75,23.12,18.5,23.12z"/>
</svg>
