<?xml version="1.0" encoding="UTF-8" standalone="no"?>
<!-- Created with Inkscape (http://www.inkscape.org/) -->

<svg
   xmlns:dc="http://purl.org/dc/elements/1.1/"
   xmlns:cc="http://creativecommons.org/ns#"
   xmlns:rdf="http://www.w3.org/1999/02/22-rdf-syntax-ns#"
   xmlns:svg="http://www.w3.org/2000/svg"
   xmlns="http://www.w3.org/2000/svg"
   xmlns:sodipodi="http://sodipodi.sourceforge.net/DTD/sodipodi-0.dtd"
   xmlns:inkscape="http://www.inkscape.org/namespaces/inkscape"
   width="106.87164mm"
   height="82.780449mm"
   viewBox="0 0 106.87163 82.780448"
   version="1.1"
   id="svg8"
   inkscape:version="0.92.3 (2405546, 2018-03-11)"
   sodipodi:docname="default.svg">
  <defs
     id="defs2" />
  <sodipodi:namedview
     id="base"
     pagecolor="#ffffff"
     bordercolor="#666666"
     borderopacity="1.0"
     inkscape:pageopacity="0.0"
     inkscape:pageshadow="2"
     inkscape:zoom="1.4"
     inkscape:cx="197.65966"
     inkscape:cy="160.03914"
     inkscape:document-units="mm"
     inkscape:current-layer="g826"
     showgrid="false"
     inkscape:window-width="1920"
     inkscape:window-height="1027"
     inkscape:window-x="-8"
     inkscape:window-y="-8"
     inkscape:window-maximized="1" />
  <metadata
     id="metadata5">
    <rdf:RDF>
      <cc:Work
         rdf:about="">
        <dc:format>image/svg+xml</dc:format>
        <dc:type
           rdf:resource="http://purl.org/dc/dcmitype/StillImage" />
        <dc:title></dc:title>
      </cc:Work>
    </rdf:RDF>
  </metadata>
  <g
     inkscape:label="Layer 1"
     inkscape:groupmode="layer"
     id="layer1"
     transform="translate(-50.562185,-119.46761)">
    <g
       id="g826">
      <path
         style="fill:#282828;stroke-width:0.92668724"
         d="M 50.828548,201.25538 C 50.582502,200.614 50.490015,181.9495 50.622999,159.77851 l 0.241777,-40.3109 h 53.284524 53.28452 v 41.23751 41.23762 l -53.07902,0.2397 c -41.969546,0.18935 -53.172626,-0.005 -53.526307,-0.92706 z M 156.04385,160.69746 v -39.85525 l -52.12616,0.2397 -52.126168,0.2397 -0.242106,38.4569 c -0.133202,21.15134 -0.04159,38.97854 0.202594,39.61598 0.348602,0.90845 11.670261,1.15887 52.3683,1.15887 h 51.92357 z m -97.302174,0.008 V 128.2711 h 44.480984 44.481 v 32.43402 32.43413 h -44.481 -44.480984 z m 33.592416,27.61083 c 5.479042,-1.66848 9.961888,-3.27544 9.961888,-3.57096 0,-0.29552 -3.699383,-4.15728 -8.220858,-8.58174 -7.389579,-7.23112 -8.574017,-8.04456 -11.713396,-8.04456 -3.169763,0 -4.336973,0.82964 -12.629612,8.97697 -7.271744,7.14432 -9.137056,9.50913 -9.137056,11.58356 v 2.60669 l 10.888571,0.0328 c 9.706903,0.0328 11.969687,-0.2977 20.850463,-3.00181 z m 53.516188,-2.59027 v -5.56013 h -3.35614 c -8.59062,0 -36.2118,5.23823 -48.075002,9.11718 l -5.560123,1.8181 28.495635,0.0876 28.49563,0.0876 z m -29.16624,-3.60325 c 5.11019,-1.00805 13.76313,-2.35342 19.22876,-2.98867 l 9.93748,-1.15515 v -3.32119 c 0,-3.03071 -1.0735,-4.38539 -12.2786,-15.4948 -6.75323,-6.69546 -13.20113,-12.44668 -14.32866,-12.7804 -1.12751,-0.33383 -3.00405,-0.12149 -4.17009,0.47174 -2.63955,1.34296 -23.897194,22.28722 -23.897194,23.54493 0,1.78712 13.359644,14.40181 14.800994,13.97561 0.77886,-0.22985 5.59711,-1.2438 10.70731,-2.25229 z M 82.036207,166.26524 c 1.741851,0 4.129738,0.67422 5.306383,1.4985 2.106159,1.47529 2.329965,1.3098 14.41502,-10.65683 11.9459,-11.82894 12.38346,-12.15544 16.28926,-12.15544 3.89864,0 4.35437,0.33711 15.90852,11.76952 l 11.89489,11.76951 V 149.30741 130.12444 H 103.22266 60.595058 v 27.04748 27.04738 l 9.137056,-8.97697 c 7.957434,-7.81811 9.545943,-8.97709 12.304093,-8.97709 z m -8.972988,-14.32147 c -2.779788,-2.77974 -2.901783,-5.94507 -0.353966,-9.18406 2.510593,-3.19171 7.116345,-3.32885 9.96477,-0.29661 6.217947,6.61874 -3.191117,15.90064 -9.610793,9.481 z m 8.848017,-0.97193 c 0.635802,-0.76616 1.15598,-2.43277 1.15598,-3.70383 0,-3.297 -1.856282,-5.09682 -5.256571,-5.09682 -3.707836,0 -5.16866,1.44049 -5.16866,5.09682 0,1.57993 0.500411,3.37307 1.112024,3.98468 1.56431,1.56439 6.774759,1.385 8.157227,-0.28129 z"
         id="path828"
         inkscape:connector-curvature="0" />
    </g>
  </g>
</svg>
