<svg xmlns="http://www.w3.org/2000/svg" viewBox="0 0 328.345 328.646">
    <defs>
        <clipPath id="a" clipPathUnits="userSpaceOnUse">
            <path d="M0 74.824h558.74V0H0z"/>
        </clipPath>
    </defs>
    <defs>
        <linearGradient id="anim" x1="25%" x2="75%" y1="0%" y2="100%">
            <stop offset="0%" stop-color="#480062">
                <animate attributeName="stop-color" dur="2s" repeatCount="indefinite" values="#FF5C00; #001395; #FF5C00"/>
            </stop>
            <stop offset="100%" stop-color="#226201">
                <animate attributeName="stop-color" dur="2s" repeatCount="indefinite" values="#001395; #FF5C00; #001395"/>
            </stop>
        </linearGradient>
    </defs>
    <g>
        <path fill="none" stroke-linecap="round" stroke-miterlimit="10" stroke-width="5.333" d="M599.737 247.07l6.984-6.984-6.984-6.985-6.977 6.985 6.984 6.985"/>
        <g fill="none" stroke-linecap="round" stroke-miterlimit="10" stroke-width="4" clip-path="url(#a)" transform="matrix(.35278 0 0 -.35278 501.185 251.515)">
            <path d="M279.359 32.397l19.799 19.799-19.799 19.799-19.777-19.8z"/>
            <path d="M340.623 35.91l-12.451-12.45-24.411 24.41 4.76 4.76 10.334-10.334-10.334-10.334-29.173 29.173-29.13-29.173-10.333 10.334 10.334 10.333 4.76-4.76-24.41-24.41-12.452 12.451"/>
            <path d="M279.37 25.766l11.47-11.47L279.37 2.83l-11.469 11.468z"/>
            <path d="M349.735 24.996h-9.49L328.26 36.983 306.896 15.62 279.37 43.146 251.844 15.62 230.48 36.983l-11.987-11.987h-9.49"/>
        </g>
        <path fill="url('#anim')" stroke-width=".622"
              d="M160.514 266.512c-18.648-.797-37.317-6.921-53.028-17.395-13.022-8.681-23.572-19.875-31.535-33.46-1.857-3.167-5-9.607-6.421-13.156-11.994-29.942-9.591-62.927 6.56-90.048 7.319-12.291 17.828-23.395 30.065-31.767.717-.49 1.376-1.01 1.464-1.153.117-.19 0-.63-.426-1.617-.804-1.86-1.512-2.991-2.65-4.239-3.056-3.347-7.918-5.14-16.67-6.148a288.073 288.073 0 0 1-3.648-.436l-.536-.077v-3.09l.865-.088c.476-.049 12.722-.477 27.214-.951 32.816-1.074 37.663-1.096 45.699-.207 25.343 2.803 39.87 13.898 42.01 32.082.286 2.437.108 8.24-.329 10.723-1.913 10.864-8.077 19.226-19.068 25.868-1.77 1.07-7.235 3.876-8.574 4.402-.385.152-.7.344-.7.429 0 .084.5.487 1.112.895 3.414 2.278 8.455 7.02 11.754 11.058 6.384 7.813 11.453 16.76 16.281 28.737 1.613 4.001 2.37 6.063 5.6 15.233 1.339 3.804 2.892 8.14 3.45 9.634 1.097 2.931 3.727 8.24 5.453 11.006 2.86 4.583 6.39 8.448 10.12 11.08 3.284 2.318 8.172 4.51 12.074 5.416.862.2.885.195 1.378-.269 2.118-1.995 7.464-8.799 10.27-13.07 9.573-14.573 14.998-30.643 16.568-49.076.383-4.501.23-14.505-.29-18.856-.165-1.378.2-.643.49.988 1.436 8.08 1.697 19.037.669 28.079-3.125 27.477-17.282 52.181-39.437 68.82-18.97 14.244-42.548 21.647-65.784 20.653zm14.327-6.898c7.003-.574 14.244-1.983 21.027-4.091 3.16-.982 4.462-1.461 4.529-1.664.032-.1-.766-.288-1.938-.458-8.562-1.241-17.742-5.495-25.017-11.59-6.829-5.722-12.718-13.118-18.596-23.354-1.934-3.367-6.393-12.28-8.486-16.963-.891-1.992-3.046-6.92-4.79-10.951-11.463-26.507-13.02-29.892-16.394-35.654-6.264-10.695-12.385-16.918-20.654-21-4.762-2.35-9.357-3.62-16.14-4.464-2.118-.264-7.83-.262-9.613.002-3.185.473-6.692 1.67-7.289 2.489-.533.732-2.238 7.524-3.017 12.022-.462 2.666-.993 6.733-1.169 8.958-.11 1.387-.1 1.461.194 1.368.17-.054.927-.324 1.681-.601 3.858-1.416 11.72-1.901 16.172-.998 6.33 1.284 12.533 4.813 17.953 10.211 7.992 7.96 15.286 20.042 22.67 37.548 1.98 4.694 4.81 11.818 6.967 17.538 5.352 14.188 7.957 19.787 12.105 26.02 5.602 8.417 11.928 13.252 20.473 15.65 1.31.367 1.63.393 3.897.313 1.36-.048 3.805-.197 5.435-.33zm-34.736-3.413c-7.533-5.642-13.628-12.902-19.727-23.5-1.878-3.263-5.744-10.999-7.593-15.19-2.586-5.868-3.665-8.554-8.017-19.97-6.325-16.587-10.886-24.806-17.369-31.296-3.995-4-8.193-6.591-12.602-7.78-1.388-.373-1.894-.423-4.48-.434-2.197-.01-2.966.04-3.128.203-.167.167-.207 1.131-.181 4.327.207 25.346 10.14 49.71 27.55 67.569 10.502 10.772 22.798 18.682 37.136 23.89 2.934 1.065 7.798 2.536 8.399 2.54l.494.002-.482-.361zm74.387-8.679c6.09-3.385 12.548-8.032 17.535-12.62.838-.77 1.523-1.452 1.523-1.516 0-.064-1.25-.087-2.778-.053-10.39.239-20.248-4.02-28.382-12.261-4.91-4.973-8.347-9.982-12.365-18.013-2.428-4.853-3.547-7.417-7.353-16.846-6.256-15.503-7.449-18.026-14.3-30.254-6.333-11.298-10.22-17.102-13.631-20.353-.675-.642-1.226-1.24-1.226-1.329 0-.088.574-.407 1.276-.709 5.368-2.306 9.971-5.421 13.545-9.167 2.096-2.197 3.555-4.283 4.94-7.06 1.334-2.678 1.946-4.436 2.58-7.41.433-2.034.457-2.363.46-6.588.005-3.955-.037-4.682-.38-6.587-1.864-10.355-7.59-18.191-17.152-23.472-6.987-3.86-16.755-6.253-25.772-6.314l-3.13-.021-.04 22.85c-.037 19.913-.074 22.849-.283 22.849-.133 0-.92-.412-1.75-.915-4.792-2.906-10.083-4.937-15.428-5.925-1.217-.224-2.28-.45-2.36-.5-.081-.05-.148-1.809-.149-3.91-.003-7.467-.47-14.408-1.235-18.352-.401-2.068-.489-2.346-.737-2.346-.196 0-4.649 3.572-6.672 5.352-2.465 2.168-8.17 7.948-10.216 10.35-6.56 7.702-11.703 15.833-15.639 24.727-1.007 2.276-2.388 5.756-2.388 6.018 0 .28.249.176 1.977-.823 4-2.31 10.5-4.445 15.891-5.217 2.947-.423 9.533-.425 12.269-.005 8.59 1.318 15.536 4.415 22.644 10.092 2.329 1.86 7.289 6.807 9.475 9.45 9.265 11.202 17.7 26.25 26.587 47.428.704 1.676 2.602 6.362 4.22 10.414 1.618 4.051 3.615 8.942 4.438 10.869 7.402 17.326 15.24 27.544 26.258 34.23 4.354 2.643 8.153 4.076 12.763 4.815.226.036 1.041.076 1.811.087l1.4.022z"/>
    </g>
</svg>